G04 #@! TF.GenerationSoftware,KiCad,Pcbnew,(5.1.7)-1*
G04 #@! TF.CreationDate,2021-03-15T09:13:19+08:00*
G04 #@! TF.ProjectId,dsmp3_v5_ns8002,64736d70-335f-4763-955f-6e7338303032,1.2.1*
G04 #@! TF.SameCoordinates,Original*
G04 #@! TF.FileFunction,Copper,L1,Top*
G04 #@! TF.FilePolarity,Positive*
%FSLAX46Y46*%
G04 Gerber Fmt 4.6, Leading zero omitted, Abs format (unit mm)*
G04 Created by KiCad (PCBNEW (5.1.7)-1) date 2021-03-15 09:13:19*
%MOMM*%
%LPD*%
G01*
G04 APERTURE LIST*
G04 #@! TA.AperFunction,ComponentPad*
%ADD10C,1.600000*%
G04 #@! TD*
G04 #@! TA.AperFunction,ComponentPad*
%ADD11R,1.600000X1.600000*%
G04 #@! TD*
G04 #@! TA.AperFunction,ComponentPad*
%ADD12O,1.700000X1.700000*%
G04 #@! TD*
G04 #@! TA.AperFunction,ComponentPad*
%ADD13R,1.700000X1.700000*%
G04 #@! TD*
G04 #@! TA.AperFunction,ComponentPad*
%ADD14R,3.500000X2.500000*%
G04 #@! TD*
G04 #@! TA.AperFunction,ComponentPad*
%ADD15O,1.750000X3.500000*%
G04 #@! TD*
G04 #@! TA.AperFunction,ComponentPad*
%ADD16R,1.300000X1.300000*%
G04 #@! TD*
G04 #@! TA.AperFunction,ComponentPad*
%ADD17C,1.300000*%
G04 #@! TD*
G04 #@! TA.AperFunction,ComponentPad*
%ADD18O,2.900000X1.900000*%
G04 #@! TD*
G04 #@! TA.AperFunction,ComponentPad*
%ADD19O,1.900000X2.900000*%
G04 #@! TD*
G04 #@! TA.AperFunction,SMDPad,CuDef*
%ADD20O,0.600000X2.300000*%
G04 #@! TD*
G04 #@! TA.AperFunction,SMDPad,CuDef*
%ADD21R,1.981200X0.533400*%
G04 #@! TD*
G04 #@! TA.AperFunction,ComponentPad*
%ADD22O,1.600000X1.600000*%
G04 #@! TD*
G04 #@! TA.AperFunction,ComponentPad*
%ADD23C,1.800000*%
G04 #@! TD*
G04 #@! TA.AperFunction,ComponentPad*
%ADD24R,1.800000X1.800000*%
G04 #@! TD*
G04 #@! TA.AperFunction,ComponentPad*
%ADD25C,1.000000*%
G04 #@! TD*
G04 #@! TA.AperFunction,SMDPad,CuDef*
%ADD26R,1.060000X0.650000*%
G04 #@! TD*
G04 #@! TA.AperFunction,SMDPad,CuDef*
%ADD27R,0.400000X1.200000*%
G04 #@! TD*
G04 #@! TA.AperFunction,ViaPad*
%ADD28C,0.800000*%
G04 #@! TD*
G04 #@! TA.AperFunction,Conductor*
%ADD29C,0.250000*%
G04 #@! TD*
G04 APERTURE END LIST*
D10*
X43728000Y-72898000D03*
X46228000Y-72898000D03*
X48220000Y-86614000D03*
D11*
X45720000Y-86614000D03*
D12*
X112014000Y-50292000D03*
D13*
X114554000Y-50292000D03*
D10*
X91186000Y-63754000D03*
X91186000Y-58674000D03*
D14*
X54864000Y-116332000D03*
D15*
X49864000Y-110382000D03*
X59864000Y-110382000D03*
X52364000Y-110382000D03*
X57364000Y-110382000D03*
X43648000Y-110382000D03*
X38648000Y-110382000D03*
X46148000Y-110382000D03*
X36148000Y-110382000D03*
D14*
X41148000Y-116332000D03*
X27178000Y-116332000D03*
D15*
X22178000Y-110382000D03*
X32178000Y-110382000D03*
X24678000Y-110382000D03*
X29678000Y-110382000D03*
D16*
X103378000Y-117850000D03*
D17*
X103378000Y-115280000D03*
X103378000Y-113340000D03*
X103378000Y-110800000D03*
D18*
X103978000Y-107730000D03*
X103978000Y-120870000D03*
D19*
X108158000Y-114300000D03*
D10*
X34036000Y-33996000D03*
X34036000Y-31496000D03*
D13*
X90424000Y-114300000D03*
D12*
X90424000Y-116840000D03*
X90424000Y-119380000D03*
D10*
X95250000Y-110704000D03*
X95250000Y-108204000D03*
X113538000Y-108204000D03*
X113538000Y-113284000D03*
X77216000Y-94488000D03*
X72136000Y-94488000D03*
D11*
X73660000Y-114808000D03*
D10*
X73660000Y-112308000D03*
X83860000Y-30226000D03*
D11*
X86360000Y-30226000D03*
D10*
X37846000Y-97028000D03*
X32766000Y-97028000D03*
X28956000Y-104862000D03*
D11*
X28956000Y-102362000D03*
D10*
X53594000Y-96012000D03*
X48514000Y-96012000D03*
X53340000Y-39370000D03*
X50840000Y-39370000D03*
G04 #@! TA.AperFunction,SMDPad,CuDef*
G36*
G01*
X31667000Y-52982000D02*
X31667000Y-52682000D01*
G75*
G02*
X31817000Y-52532000I150000J0D01*
G01*
X33467000Y-52532000D01*
G75*
G02*
X33617000Y-52682000I0J-150000D01*
G01*
X33617000Y-52982000D01*
G75*
G02*
X33467000Y-53132000I-150000J0D01*
G01*
X31817000Y-53132000D01*
G75*
G02*
X31667000Y-52982000I0J150000D01*
G01*
G37*
G04 #@! TD.AperFunction*
G04 #@! TA.AperFunction,SMDPad,CuDef*
G36*
G01*
X31667000Y-54252000D02*
X31667000Y-53952000D01*
G75*
G02*
X31817000Y-53802000I150000J0D01*
G01*
X33467000Y-53802000D01*
G75*
G02*
X33617000Y-53952000I0J-150000D01*
G01*
X33617000Y-54252000D01*
G75*
G02*
X33467000Y-54402000I-150000J0D01*
G01*
X31817000Y-54402000D01*
G75*
G02*
X31667000Y-54252000I0J150000D01*
G01*
G37*
G04 #@! TD.AperFunction*
G04 #@! TA.AperFunction,SMDPad,CuDef*
G36*
G01*
X31667000Y-55522000D02*
X31667000Y-55222000D01*
G75*
G02*
X31817000Y-55072000I150000J0D01*
G01*
X33467000Y-55072000D01*
G75*
G02*
X33617000Y-55222000I0J-150000D01*
G01*
X33617000Y-55522000D01*
G75*
G02*
X33467000Y-55672000I-150000J0D01*
G01*
X31817000Y-55672000D01*
G75*
G02*
X31667000Y-55522000I0J150000D01*
G01*
G37*
G04 #@! TD.AperFunction*
G04 #@! TA.AperFunction,SMDPad,CuDef*
G36*
G01*
X31667000Y-56792000D02*
X31667000Y-56492000D01*
G75*
G02*
X31817000Y-56342000I150000J0D01*
G01*
X33467000Y-56342000D01*
G75*
G02*
X33617000Y-56492000I0J-150000D01*
G01*
X33617000Y-56792000D01*
G75*
G02*
X33467000Y-56942000I-150000J0D01*
G01*
X31817000Y-56942000D01*
G75*
G02*
X31667000Y-56792000I0J150000D01*
G01*
G37*
G04 #@! TD.AperFunction*
G04 #@! TA.AperFunction,SMDPad,CuDef*
G36*
G01*
X31667000Y-58062000D02*
X31667000Y-57762000D01*
G75*
G02*
X31817000Y-57612000I150000J0D01*
G01*
X33467000Y-57612000D01*
G75*
G02*
X33617000Y-57762000I0J-150000D01*
G01*
X33617000Y-58062000D01*
G75*
G02*
X33467000Y-58212000I-150000J0D01*
G01*
X31817000Y-58212000D01*
G75*
G02*
X31667000Y-58062000I0J150000D01*
G01*
G37*
G04 #@! TD.AperFunction*
G04 #@! TA.AperFunction,SMDPad,CuDef*
G36*
G01*
X31667000Y-59332000D02*
X31667000Y-59032000D01*
G75*
G02*
X31817000Y-58882000I150000J0D01*
G01*
X33467000Y-58882000D01*
G75*
G02*
X33617000Y-59032000I0J-150000D01*
G01*
X33617000Y-59332000D01*
G75*
G02*
X33467000Y-59482000I-150000J0D01*
G01*
X31817000Y-59482000D01*
G75*
G02*
X31667000Y-59332000I0J150000D01*
G01*
G37*
G04 #@! TD.AperFunction*
G04 #@! TA.AperFunction,SMDPad,CuDef*
G36*
G01*
X31667000Y-60602000D02*
X31667000Y-60302000D01*
G75*
G02*
X31817000Y-60152000I150000J0D01*
G01*
X33467000Y-60152000D01*
G75*
G02*
X33617000Y-60302000I0J-150000D01*
G01*
X33617000Y-60602000D01*
G75*
G02*
X33467000Y-60752000I-150000J0D01*
G01*
X31817000Y-60752000D01*
G75*
G02*
X31667000Y-60602000I0J150000D01*
G01*
G37*
G04 #@! TD.AperFunction*
G04 #@! TA.AperFunction,SMDPad,CuDef*
G36*
G01*
X36617000Y-60602000D02*
X36617000Y-60302000D01*
G75*
G02*
X36767000Y-60152000I150000J0D01*
G01*
X38417000Y-60152000D01*
G75*
G02*
X38567000Y-60302000I0J-150000D01*
G01*
X38567000Y-60602000D01*
G75*
G02*
X38417000Y-60752000I-150000J0D01*
G01*
X36767000Y-60752000D01*
G75*
G02*
X36617000Y-60602000I0J150000D01*
G01*
G37*
G04 #@! TD.AperFunction*
G04 #@! TA.AperFunction,SMDPad,CuDef*
G36*
G01*
X36617000Y-59332000D02*
X36617000Y-59032000D01*
G75*
G02*
X36767000Y-58882000I150000J0D01*
G01*
X38417000Y-58882000D01*
G75*
G02*
X38567000Y-59032000I0J-150000D01*
G01*
X38567000Y-59332000D01*
G75*
G02*
X38417000Y-59482000I-150000J0D01*
G01*
X36767000Y-59482000D01*
G75*
G02*
X36617000Y-59332000I0J150000D01*
G01*
G37*
G04 #@! TD.AperFunction*
G04 #@! TA.AperFunction,SMDPad,CuDef*
G36*
G01*
X36617000Y-58062000D02*
X36617000Y-57762000D01*
G75*
G02*
X36767000Y-57612000I150000J0D01*
G01*
X38417000Y-57612000D01*
G75*
G02*
X38567000Y-57762000I0J-150000D01*
G01*
X38567000Y-58062000D01*
G75*
G02*
X38417000Y-58212000I-150000J0D01*
G01*
X36767000Y-58212000D01*
G75*
G02*
X36617000Y-58062000I0J150000D01*
G01*
G37*
G04 #@! TD.AperFunction*
G04 #@! TA.AperFunction,SMDPad,CuDef*
G36*
G01*
X36617000Y-56792000D02*
X36617000Y-56492000D01*
G75*
G02*
X36767000Y-56342000I150000J0D01*
G01*
X38417000Y-56342000D01*
G75*
G02*
X38567000Y-56492000I0J-150000D01*
G01*
X38567000Y-56792000D01*
G75*
G02*
X38417000Y-56942000I-150000J0D01*
G01*
X36767000Y-56942000D01*
G75*
G02*
X36617000Y-56792000I0J150000D01*
G01*
G37*
G04 #@! TD.AperFunction*
G04 #@! TA.AperFunction,SMDPad,CuDef*
G36*
G01*
X36617000Y-55522000D02*
X36617000Y-55222000D01*
G75*
G02*
X36767000Y-55072000I150000J0D01*
G01*
X38417000Y-55072000D01*
G75*
G02*
X38567000Y-55222000I0J-150000D01*
G01*
X38567000Y-55522000D01*
G75*
G02*
X38417000Y-55672000I-150000J0D01*
G01*
X36767000Y-55672000D01*
G75*
G02*
X36617000Y-55522000I0J150000D01*
G01*
G37*
G04 #@! TD.AperFunction*
G04 #@! TA.AperFunction,SMDPad,CuDef*
G36*
G01*
X36617000Y-54252000D02*
X36617000Y-53952000D01*
G75*
G02*
X36767000Y-53802000I150000J0D01*
G01*
X38417000Y-53802000D01*
G75*
G02*
X38567000Y-53952000I0J-150000D01*
G01*
X38567000Y-54252000D01*
G75*
G02*
X38417000Y-54402000I-150000J0D01*
G01*
X36767000Y-54402000D01*
G75*
G02*
X36617000Y-54252000I0J150000D01*
G01*
G37*
G04 #@! TD.AperFunction*
G04 #@! TA.AperFunction,SMDPad,CuDef*
G36*
G01*
X36617000Y-52982000D02*
X36617000Y-52682000D01*
G75*
G02*
X36767000Y-52532000I150000J0D01*
G01*
X38417000Y-52532000D01*
G75*
G02*
X38567000Y-52682000I0J-150000D01*
G01*
X38567000Y-52982000D01*
G75*
G02*
X38417000Y-53132000I-150000J0D01*
G01*
X36767000Y-53132000D01*
G75*
G02*
X36617000Y-52982000I0J150000D01*
G01*
G37*
G04 #@! TD.AperFunction*
X28916000Y-76454000D03*
D11*
X26416000Y-76454000D03*
D20*
X98425000Y-103356000D03*
X99695000Y-103356000D03*
X100965000Y-103356000D03*
X102235000Y-103356000D03*
X103505000Y-103356000D03*
X104775000Y-103356000D03*
X106045000Y-103356000D03*
X107315000Y-103356000D03*
X108585000Y-103356000D03*
X109855000Y-103356000D03*
X111125000Y-103356000D03*
X112395000Y-103356000D03*
X113665000Y-103356000D03*
X114935000Y-103356000D03*
X114935000Y-94256000D03*
X113665000Y-94256000D03*
X112395000Y-94256000D03*
X111125000Y-94256000D03*
X109855000Y-94256000D03*
X108585000Y-94256000D03*
X107315000Y-94256000D03*
X106045000Y-94256000D03*
X104775000Y-94256000D03*
X103505000Y-94256000D03*
X102235000Y-94256000D03*
X100965000Y-94256000D03*
X99695000Y-94256000D03*
X98425000Y-94256000D03*
D21*
X98298000Y-47498000D03*
X98298000Y-48768000D03*
X98298000Y-50038000D03*
X98298000Y-51308000D03*
X93370400Y-51308000D03*
X93370400Y-50038000D03*
X93370400Y-48768000D03*
X93370400Y-47498000D03*
D10*
X54102000Y-80518000D03*
X54102000Y-75438000D03*
D13*
X37592000Y-34798000D03*
D12*
X37592000Y-32258000D03*
D10*
X52832000Y-59182000D03*
X52832000Y-54102000D03*
D13*
X74930000Y-68580000D03*
D12*
X74930000Y-66040000D03*
X74930000Y-63500000D03*
X74930000Y-60960000D03*
D10*
X58166000Y-64262000D03*
X58166000Y-69342000D03*
X83566000Y-44958000D03*
X83566000Y-39878000D03*
D13*
X78994000Y-44958000D03*
D12*
X78994000Y-42418000D03*
X78994000Y-39878000D03*
X78994000Y-37338000D03*
D10*
X95210000Y-42926000D03*
D11*
X92710000Y-42926000D03*
D10*
X83566000Y-87884000D03*
X83566000Y-92964000D03*
D11*
X74930000Y-119634000D03*
D10*
X72430000Y-119634000D03*
X87122000Y-39878000D03*
X87122000Y-44958000D03*
D11*
X25908000Y-53086000D03*
D22*
X25908000Y-60706000D03*
D10*
X41950000Y-93218000D03*
D11*
X44450000Y-93218000D03*
D13*
X82804000Y-119126000D03*
D12*
X82804000Y-116586000D03*
X82804000Y-114046000D03*
X82804000Y-111506000D03*
X82804000Y-108966000D03*
X82804000Y-106426000D03*
X82804000Y-103886000D03*
X82804000Y-101346000D03*
X82804000Y-98806000D03*
D10*
X23876000Y-93726000D03*
X28956000Y-93726000D03*
D11*
X98806000Y-55372000D03*
D10*
X98806000Y-57872000D03*
X30480000Y-65278000D03*
X30480000Y-70358000D03*
D11*
X79502000Y-50800000D03*
D22*
X87122000Y-83820000D03*
X79502000Y-53340000D03*
X87122000Y-81280000D03*
X79502000Y-55880000D03*
X87122000Y-78740000D03*
X79502000Y-58420000D03*
X87122000Y-76200000D03*
X79502000Y-60960000D03*
X87122000Y-73660000D03*
X79502000Y-63500000D03*
X87122000Y-71120000D03*
X79502000Y-66040000D03*
X87122000Y-68580000D03*
X79502000Y-68580000D03*
X87122000Y-66040000D03*
X79502000Y-71120000D03*
X87122000Y-63500000D03*
X79502000Y-73660000D03*
X87122000Y-60960000D03*
X79502000Y-76200000D03*
X87122000Y-58420000D03*
X79502000Y-78740000D03*
X87122000Y-55880000D03*
X79502000Y-81280000D03*
X87122000Y-53340000D03*
X79502000Y-83820000D03*
X87122000Y-50800000D03*
D11*
X91186000Y-71628000D03*
D10*
X93686000Y-71628000D03*
X43728000Y-70104000D03*
X46228000Y-70104000D03*
X64770000Y-44958000D03*
X64770000Y-47458000D03*
X60666000Y-40894000D03*
D11*
X58166000Y-40894000D03*
D10*
X59436000Y-45760000D03*
D11*
X59436000Y-48260000D03*
D10*
X114300000Y-119594000D03*
X114300000Y-117094000D03*
X99314000Y-41696000D03*
X99314000Y-44196000D03*
X111252000Y-119340000D03*
X111252000Y-116840000D03*
X105624000Y-43434000D03*
D11*
X103124000Y-43434000D03*
D10*
X49276000Y-52324000D03*
X46776000Y-52324000D03*
X46990000Y-56896000D03*
X49490000Y-56896000D03*
X105918000Y-32472000D03*
X105918000Y-29972000D03*
X54316000Y-101600000D03*
D11*
X51816000Y-101600000D03*
X48006000Y-101600000D03*
D10*
X45506000Y-101600000D03*
X37378000Y-73914000D03*
D11*
X39878000Y-73914000D03*
X35560000Y-104902000D03*
D10*
X35560000Y-102402000D03*
X52832000Y-85892000D03*
D11*
X52832000Y-88392000D03*
D10*
X90972000Y-55118000D03*
X93472000Y-55118000D03*
D11*
X34798000Y-81788000D03*
D10*
X32298000Y-81788000D03*
X21590000Y-66508000D03*
X21590000Y-64008000D03*
D22*
X54102000Y-63246000D03*
D11*
X54102000Y-70866000D03*
D23*
X88900000Y-98806000D03*
D24*
X91440000Y-98806000D03*
D13*
X88392000Y-89154000D03*
D12*
X90932000Y-89154000D03*
X93472000Y-89154000D03*
X96012000Y-89154000D03*
X98552000Y-89154000D03*
X101092000Y-89154000D03*
X68834000Y-51562000D03*
X68834000Y-54102000D03*
X68834000Y-56642000D03*
X68834000Y-59182000D03*
X68834000Y-61722000D03*
X68834000Y-64262000D03*
X68834000Y-66802000D03*
X68834000Y-69342000D03*
D13*
X68834000Y-71882000D03*
D12*
X58674000Y-82804000D03*
X58674000Y-85344000D03*
X58674000Y-87884000D03*
X58674000Y-90424000D03*
X58674000Y-92964000D03*
D13*
X58674000Y-95504000D03*
D10*
X63500000Y-52324000D03*
X58420000Y-52324000D03*
X91186000Y-109982000D03*
X91186000Y-104902000D03*
X43942000Y-81026000D03*
X49022000Y-81026000D03*
X69596000Y-78994000D03*
X74676000Y-78994000D03*
X77470000Y-98552000D03*
X72390000Y-98552000D03*
X49276000Y-61468000D03*
X49276000Y-66548000D03*
X87630000Y-109982000D03*
X87630000Y-104902000D03*
X78740000Y-107696000D03*
X78740000Y-102616000D03*
X74422000Y-107696000D03*
X74422000Y-102616000D03*
X78740000Y-117602000D03*
X78740000Y-112522000D03*
X70612000Y-107696000D03*
X70612000Y-102616000D03*
X63246000Y-97790000D03*
X68326000Y-97790000D03*
X62992000Y-83312000D03*
X62992000Y-88392000D03*
X67056000Y-83312000D03*
X67056000Y-88392000D03*
X62992000Y-71374000D03*
X62992000Y-66294000D03*
X62738000Y-94234000D03*
X67818000Y-94234000D03*
X47498000Y-48514000D03*
X52578000Y-48514000D03*
X39878000Y-63500000D03*
X39878000Y-68580000D03*
X43434000Y-64008000D03*
X43434000Y-58928000D03*
X89154000Y-94742000D03*
X94234000Y-94742000D03*
X67056000Y-102616000D03*
X67056000Y-107696000D03*
X64008000Y-117094000D03*
X64008000Y-112014000D03*
X41656000Y-104140000D03*
X41656000Y-99060000D03*
X22860000Y-89408000D03*
X27940000Y-89408000D03*
X67564000Y-112014000D03*
X67564000Y-117094000D03*
X22860000Y-97282000D03*
X27940000Y-97282000D03*
X48514000Y-92456000D03*
X53594000Y-92456000D03*
X22606000Y-69850000D03*
X22606000Y-74930000D03*
X38354000Y-84074000D03*
X38354000Y-78994000D03*
X94996000Y-103632000D03*
X94996000Y-98552000D03*
X22098000Y-49530000D03*
X27178000Y-49530000D03*
X33782000Y-76200000D03*
X33782000Y-71120000D03*
D21*
X68478400Y-43942000D03*
X68478400Y-45212000D03*
X68478400Y-46482000D03*
X68478400Y-47752000D03*
X73406000Y-47752000D03*
X73406000Y-46482000D03*
X73406000Y-45212000D03*
X73406000Y-43942000D03*
X110134400Y-29210000D03*
X110134400Y-30480000D03*
X110134400Y-31750000D03*
X110134400Y-33020000D03*
X115062000Y-33020000D03*
X115062000Y-31750000D03*
X115062000Y-30480000D03*
X115062000Y-29210000D03*
D25*
X48392000Y-71374000D03*
X50292000Y-71374000D03*
D21*
X102184200Y-34925000D03*
X102184200Y-36195000D03*
X102184200Y-37465000D03*
X102184200Y-38735000D03*
X107111800Y-38735000D03*
X107111800Y-37465000D03*
X107111800Y-36195000D03*
X107111800Y-34925000D03*
D13*
X101092000Y-31750000D03*
D12*
X98552000Y-31750000D03*
D10*
X33314000Y-65786000D03*
X35814000Y-65786000D03*
X22860000Y-102576000D03*
X22860000Y-100076000D03*
D13*
X26670000Y-65532000D03*
D12*
X26670000Y-68072000D03*
X26670000Y-70612000D03*
X90424000Y-32004000D03*
D13*
X92964000Y-32004000D03*
X44450000Y-76454000D03*
D12*
X46990000Y-76454000D03*
X49530000Y-76454000D03*
X71374000Y-83058000D03*
X71374000Y-85598000D03*
X71374000Y-88138000D03*
D13*
X71374000Y-90678000D03*
D10*
X73192000Y-50800000D03*
X75692000Y-50800000D03*
D22*
X58166000Y-77724000D03*
D11*
X65786000Y-77724000D03*
D10*
X61000000Y-60960000D03*
X63500000Y-60960000D03*
D13*
X63246000Y-56388000D03*
D12*
X60706000Y-56388000D03*
X58166000Y-56388000D03*
D10*
X88138000Y-36068000D03*
X83058000Y-36068000D03*
X78486000Y-89408000D03*
D11*
X75986000Y-89408000D03*
D13*
X93726000Y-37084000D03*
D12*
X96266000Y-37084000D03*
X98806000Y-37084000D03*
D10*
X47498000Y-43220000D03*
X47498000Y-45720000D03*
X64516000Y-41870000D03*
X64516000Y-39370000D03*
D13*
X76454000Y-32766000D03*
D12*
X76454000Y-30226000D03*
D10*
X48514000Y-35306000D03*
X43434000Y-35306000D03*
X43434000Y-31496000D03*
X48514000Y-31496000D03*
D13*
X26670000Y-45466000D03*
D12*
X24130000Y-45466000D03*
X21590000Y-45466000D03*
G04 #@! TA.AperFunction,SMDPad,CuDef*
G36*
G01*
X67585000Y-37488000D02*
X67585000Y-37188000D01*
G75*
G02*
X67735000Y-37038000I150000J0D01*
G01*
X69085000Y-37038000D01*
G75*
G02*
X69235000Y-37188000I0J-150000D01*
G01*
X69235000Y-37488000D01*
G75*
G02*
X69085000Y-37638000I-150000J0D01*
G01*
X67735000Y-37638000D01*
G75*
G02*
X67585000Y-37488000I0J150000D01*
G01*
G37*
G04 #@! TD.AperFunction*
G04 #@! TA.AperFunction,SMDPad,CuDef*
G36*
G01*
X67585000Y-38758000D02*
X67585000Y-38458000D01*
G75*
G02*
X67735000Y-38308000I150000J0D01*
G01*
X69085000Y-38308000D01*
G75*
G02*
X69235000Y-38458000I0J-150000D01*
G01*
X69235000Y-38758000D01*
G75*
G02*
X69085000Y-38908000I-150000J0D01*
G01*
X67735000Y-38908000D01*
G75*
G02*
X67585000Y-38758000I0J150000D01*
G01*
G37*
G04 #@! TD.AperFunction*
G04 #@! TA.AperFunction,SMDPad,CuDef*
G36*
G01*
X67585000Y-40028000D02*
X67585000Y-39728000D01*
G75*
G02*
X67735000Y-39578000I150000J0D01*
G01*
X69085000Y-39578000D01*
G75*
G02*
X69235000Y-39728000I0J-150000D01*
G01*
X69235000Y-40028000D01*
G75*
G02*
X69085000Y-40178000I-150000J0D01*
G01*
X67735000Y-40178000D01*
G75*
G02*
X67585000Y-40028000I0J150000D01*
G01*
G37*
G04 #@! TD.AperFunction*
G04 #@! TA.AperFunction,SMDPad,CuDef*
G36*
G01*
X67585000Y-41298000D02*
X67585000Y-40998000D01*
G75*
G02*
X67735000Y-40848000I150000J0D01*
G01*
X69085000Y-40848000D01*
G75*
G02*
X69235000Y-40998000I0J-150000D01*
G01*
X69235000Y-41298000D01*
G75*
G02*
X69085000Y-41448000I-150000J0D01*
G01*
X67735000Y-41448000D01*
G75*
G02*
X67585000Y-41298000I0J150000D01*
G01*
G37*
G04 #@! TD.AperFunction*
G04 #@! TA.AperFunction,SMDPad,CuDef*
G36*
G01*
X72835000Y-41298000D02*
X72835000Y-40998000D01*
G75*
G02*
X72985000Y-40848000I150000J0D01*
G01*
X74335000Y-40848000D01*
G75*
G02*
X74485000Y-40998000I0J-150000D01*
G01*
X74485000Y-41298000D01*
G75*
G02*
X74335000Y-41448000I-150000J0D01*
G01*
X72985000Y-41448000D01*
G75*
G02*
X72835000Y-41298000I0J150000D01*
G01*
G37*
G04 #@! TD.AperFunction*
G04 #@! TA.AperFunction,SMDPad,CuDef*
G36*
G01*
X72835000Y-40028000D02*
X72835000Y-39728000D01*
G75*
G02*
X72985000Y-39578000I150000J0D01*
G01*
X74335000Y-39578000D01*
G75*
G02*
X74485000Y-39728000I0J-150000D01*
G01*
X74485000Y-40028000D01*
G75*
G02*
X74335000Y-40178000I-150000J0D01*
G01*
X72985000Y-40178000D01*
G75*
G02*
X72835000Y-40028000I0J150000D01*
G01*
G37*
G04 #@! TD.AperFunction*
G04 #@! TA.AperFunction,SMDPad,CuDef*
G36*
G01*
X72835000Y-38758000D02*
X72835000Y-38458000D01*
G75*
G02*
X72985000Y-38308000I150000J0D01*
G01*
X74335000Y-38308000D01*
G75*
G02*
X74485000Y-38458000I0J-150000D01*
G01*
X74485000Y-38758000D01*
G75*
G02*
X74335000Y-38908000I-150000J0D01*
G01*
X72985000Y-38908000D01*
G75*
G02*
X72835000Y-38758000I0J150000D01*
G01*
G37*
G04 #@! TD.AperFunction*
G04 #@! TA.AperFunction,SMDPad,CuDef*
G36*
G01*
X72835000Y-37488000D02*
X72835000Y-37188000D01*
G75*
G02*
X72985000Y-37038000I150000J0D01*
G01*
X74335000Y-37038000D01*
G75*
G02*
X74485000Y-37188000I0J-150000D01*
G01*
X74485000Y-37488000D01*
G75*
G02*
X74335000Y-37638000I-150000J0D01*
G01*
X72985000Y-37638000D01*
G75*
G02*
X72835000Y-37488000I0J150000D01*
G01*
G37*
G04 #@! TD.AperFunction*
D10*
X65278000Y-32806000D03*
X65278000Y-35306000D03*
X71842000Y-33274000D03*
D11*
X69342000Y-33274000D03*
D10*
X80518000Y-32766000D03*
X80518000Y-30266000D03*
D13*
X21590000Y-54864000D03*
D12*
X21590000Y-57404000D03*
X21590000Y-59944000D03*
D10*
X32726000Y-45212000D03*
X30226000Y-45212000D03*
X21590000Y-33488000D03*
X21590000Y-30988000D03*
X52618000Y-34544000D03*
D11*
X55118000Y-34544000D03*
X60452000Y-35052000D03*
D10*
X60452000Y-32552000D03*
D12*
X41402000Y-40132000D03*
X43942000Y-40132000D03*
D13*
X46482000Y-40132000D03*
D10*
X41656000Y-45212000D03*
X36576000Y-45212000D03*
X36068000Y-41148000D03*
X30988000Y-41148000D03*
D13*
X26670000Y-41656000D03*
D12*
X24130000Y-41656000D03*
X21590000Y-41656000D03*
G04 #@! TA.AperFunction,SMDPad,CuDef*
G36*
G01*
X24321000Y-30884000D02*
X24321000Y-30584000D01*
G75*
G02*
X24471000Y-30434000I150000J0D01*
G01*
X25821000Y-30434000D01*
G75*
G02*
X25971000Y-30584000I0J-150000D01*
G01*
X25971000Y-30884000D01*
G75*
G02*
X25821000Y-31034000I-150000J0D01*
G01*
X24471000Y-31034000D01*
G75*
G02*
X24321000Y-30884000I0J150000D01*
G01*
G37*
G04 #@! TD.AperFunction*
G04 #@! TA.AperFunction,SMDPad,CuDef*
G36*
G01*
X24321000Y-32154000D02*
X24321000Y-31854000D01*
G75*
G02*
X24471000Y-31704000I150000J0D01*
G01*
X25821000Y-31704000D01*
G75*
G02*
X25971000Y-31854000I0J-150000D01*
G01*
X25971000Y-32154000D01*
G75*
G02*
X25821000Y-32304000I-150000J0D01*
G01*
X24471000Y-32304000D01*
G75*
G02*
X24321000Y-32154000I0J150000D01*
G01*
G37*
G04 #@! TD.AperFunction*
G04 #@! TA.AperFunction,SMDPad,CuDef*
G36*
G01*
X24321000Y-33424000D02*
X24321000Y-33124000D01*
G75*
G02*
X24471000Y-32974000I150000J0D01*
G01*
X25821000Y-32974000D01*
G75*
G02*
X25971000Y-33124000I0J-150000D01*
G01*
X25971000Y-33424000D01*
G75*
G02*
X25821000Y-33574000I-150000J0D01*
G01*
X24471000Y-33574000D01*
G75*
G02*
X24321000Y-33424000I0J150000D01*
G01*
G37*
G04 #@! TD.AperFunction*
G04 #@! TA.AperFunction,SMDPad,CuDef*
G36*
G01*
X24321000Y-34694000D02*
X24321000Y-34394000D01*
G75*
G02*
X24471000Y-34244000I150000J0D01*
G01*
X25821000Y-34244000D01*
G75*
G02*
X25971000Y-34394000I0J-150000D01*
G01*
X25971000Y-34694000D01*
G75*
G02*
X25821000Y-34844000I-150000J0D01*
G01*
X24471000Y-34844000D01*
G75*
G02*
X24321000Y-34694000I0J150000D01*
G01*
G37*
G04 #@! TD.AperFunction*
G04 #@! TA.AperFunction,SMDPad,CuDef*
G36*
G01*
X29571000Y-34694000D02*
X29571000Y-34394000D01*
G75*
G02*
X29721000Y-34244000I150000J0D01*
G01*
X31071000Y-34244000D01*
G75*
G02*
X31221000Y-34394000I0J-150000D01*
G01*
X31221000Y-34694000D01*
G75*
G02*
X31071000Y-34844000I-150000J0D01*
G01*
X29721000Y-34844000D01*
G75*
G02*
X29571000Y-34694000I0J150000D01*
G01*
G37*
G04 #@! TD.AperFunction*
G04 #@! TA.AperFunction,SMDPad,CuDef*
G36*
G01*
X29571000Y-33424000D02*
X29571000Y-33124000D01*
G75*
G02*
X29721000Y-32974000I150000J0D01*
G01*
X31071000Y-32974000D01*
G75*
G02*
X31221000Y-33124000I0J-150000D01*
G01*
X31221000Y-33424000D01*
G75*
G02*
X31071000Y-33574000I-150000J0D01*
G01*
X29721000Y-33574000D01*
G75*
G02*
X29571000Y-33424000I0J150000D01*
G01*
G37*
G04 #@! TD.AperFunction*
G04 #@! TA.AperFunction,SMDPad,CuDef*
G36*
G01*
X29571000Y-32154000D02*
X29571000Y-31854000D01*
G75*
G02*
X29721000Y-31704000I150000J0D01*
G01*
X31071000Y-31704000D01*
G75*
G02*
X31221000Y-31854000I0J-150000D01*
G01*
X31221000Y-32154000D01*
G75*
G02*
X31071000Y-32304000I-150000J0D01*
G01*
X29721000Y-32304000D01*
G75*
G02*
X29571000Y-32154000I0J150000D01*
G01*
G37*
G04 #@! TD.AperFunction*
G04 #@! TA.AperFunction,SMDPad,CuDef*
G36*
G01*
X29571000Y-30884000D02*
X29571000Y-30584000D01*
G75*
G02*
X29721000Y-30434000I150000J0D01*
G01*
X31071000Y-30434000D01*
G75*
G02*
X31221000Y-30584000I0J-150000D01*
G01*
X31221000Y-30884000D01*
G75*
G02*
X31071000Y-31034000I-150000J0D01*
G01*
X29721000Y-31034000D01*
G75*
G02*
X29571000Y-30884000I0J150000D01*
G01*
G37*
G04 #@! TD.AperFunction*
D10*
X42418000Y-88606000D03*
X42418000Y-86106000D03*
X31496000Y-49530000D03*
X36576000Y-49530000D03*
X41910000Y-54356000D03*
X41910000Y-49276000D03*
D22*
X29210000Y-53086000D03*
D11*
X29210000Y-60706000D03*
D10*
X51602000Y-43942000D03*
D11*
X54102000Y-43942000D03*
D10*
X94702000Y-82804000D03*
D11*
X92202000Y-82804000D03*
G04 #@! TA.AperFunction,SMDPad,CuDef*
G36*
G01*
X31263000Y-88034000D02*
X31263000Y-87734000D01*
G75*
G02*
X31413000Y-87584000I150000J0D01*
G01*
X32763000Y-87584000D01*
G75*
G02*
X32913000Y-87734000I0J-150000D01*
G01*
X32913000Y-88034000D01*
G75*
G02*
X32763000Y-88184000I-150000J0D01*
G01*
X31413000Y-88184000D01*
G75*
G02*
X31263000Y-88034000I0J150000D01*
G01*
G37*
G04 #@! TD.AperFunction*
G04 #@! TA.AperFunction,SMDPad,CuDef*
G36*
G01*
X31263000Y-89304000D02*
X31263000Y-89004000D01*
G75*
G02*
X31413000Y-88854000I150000J0D01*
G01*
X32763000Y-88854000D01*
G75*
G02*
X32913000Y-89004000I0J-150000D01*
G01*
X32913000Y-89304000D01*
G75*
G02*
X32763000Y-89454000I-150000J0D01*
G01*
X31413000Y-89454000D01*
G75*
G02*
X31263000Y-89304000I0J150000D01*
G01*
G37*
G04 #@! TD.AperFunction*
G04 #@! TA.AperFunction,SMDPad,CuDef*
G36*
G01*
X31263000Y-90574000D02*
X31263000Y-90274000D01*
G75*
G02*
X31413000Y-90124000I150000J0D01*
G01*
X32763000Y-90124000D01*
G75*
G02*
X32913000Y-90274000I0J-150000D01*
G01*
X32913000Y-90574000D01*
G75*
G02*
X32763000Y-90724000I-150000J0D01*
G01*
X31413000Y-90724000D01*
G75*
G02*
X31263000Y-90574000I0J150000D01*
G01*
G37*
G04 #@! TD.AperFunction*
G04 #@! TA.AperFunction,SMDPad,CuDef*
G36*
G01*
X31263000Y-91844000D02*
X31263000Y-91544000D01*
G75*
G02*
X31413000Y-91394000I150000J0D01*
G01*
X32763000Y-91394000D01*
G75*
G02*
X32913000Y-91544000I0J-150000D01*
G01*
X32913000Y-91844000D01*
G75*
G02*
X32763000Y-91994000I-150000J0D01*
G01*
X31413000Y-91994000D01*
G75*
G02*
X31263000Y-91844000I0J150000D01*
G01*
G37*
G04 #@! TD.AperFunction*
G04 #@! TA.AperFunction,SMDPad,CuDef*
G36*
G01*
X36513000Y-91844000D02*
X36513000Y-91544000D01*
G75*
G02*
X36663000Y-91394000I150000J0D01*
G01*
X38013000Y-91394000D01*
G75*
G02*
X38163000Y-91544000I0J-150000D01*
G01*
X38163000Y-91844000D01*
G75*
G02*
X38013000Y-91994000I-150000J0D01*
G01*
X36663000Y-91994000D01*
G75*
G02*
X36513000Y-91844000I0J150000D01*
G01*
G37*
G04 #@! TD.AperFunction*
G04 #@! TA.AperFunction,SMDPad,CuDef*
G36*
G01*
X36513000Y-90574000D02*
X36513000Y-90274000D01*
G75*
G02*
X36663000Y-90124000I150000J0D01*
G01*
X38013000Y-90124000D01*
G75*
G02*
X38163000Y-90274000I0J-150000D01*
G01*
X38163000Y-90574000D01*
G75*
G02*
X38013000Y-90724000I-150000J0D01*
G01*
X36663000Y-90724000D01*
G75*
G02*
X36513000Y-90574000I0J150000D01*
G01*
G37*
G04 #@! TD.AperFunction*
G04 #@! TA.AperFunction,SMDPad,CuDef*
G36*
G01*
X36513000Y-89304000D02*
X36513000Y-89004000D01*
G75*
G02*
X36663000Y-88854000I150000J0D01*
G01*
X38013000Y-88854000D01*
G75*
G02*
X38163000Y-89004000I0J-150000D01*
G01*
X38163000Y-89304000D01*
G75*
G02*
X38013000Y-89454000I-150000J0D01*
G01*
X36663000Y-89454000D01*
G75*
G02*
X36513000Y-89304000I0J150000D01*
G01*
G37*
G04 #@! TD.AperFunction*
G04 #@! TA.AperFunction,SMDPad,CuDef*
G36*
G01*
X36513000Y-88034000D02*
X36513000Y-87734000D01*
G75*
G02*
X36663000Y-87584000I150000J0D01*
G01*
X38013000Y-87584000D01*
G75*
G02*
X38163000Y-87734000I0J-150000D01*
G01*
X38163000Y-88034000D01*
G75*
G02*
X38013000Y-88184000I-150000J0D01*
G01*
X36663000Y-88184000D01*
G75*
G02*
X36513000Y-88034000I0J150000D01*
G01*
G37*
G04 #@! TD.AperFunction*
D13*
X58674000Y-102616000D03*
D12*
X61214000Y-102616000D03*
D13*
X99568000Y-120650000D03*
D12*
X99568000Y-118110000D03*
X99568000Y-115570000D03*
X99568000Y-113030000D03*
X99568000Y-110490000D03*
X99568000Y-107950000D03*
D13*
X94234000Y-114300000D03*
D12*
X94234000Y-116840000D03*
D10*
X86614000Y-114554000D03*
X86614000Y-119634000D03*
X105918000Y-83860000D03*
X105918000Y-86360000D03*
X111038000Y-89408000D03*
X113538000Y-89408000D03*
D12*
X27940000Y-85090000D03*
X25400000Y-85090000D03*
D13*
X22860000Y-85090000D03*
X22860000Y-81280000D03*
D12*
X25400000Y-81280000D03*
X27940000Y-81280000D03*
G04 #@! TA.AperFunction,SMDPad,CuDef*
G36*
G01*
X110005000Y-87016000D02*
X109705000Y-87016000D01*
G75*
G02*
X109555000Y-86866000I0J150000D01*
G01*
X109555000Y-85516000D01*
G75*
G02*
X109705000Y-85366000I150000J0D01*
G01*
X110005000Y-85366000D01*
G75*
G02*
X110155000Y-85516000I0J-150000D01*
G01*
X110155000Y-86866000D01*
G75*
G02*
X110005000Y-87016000I-150000J0D01*
G01*
G37*
G04 #@! TD.AperFunction*
G04 #@! TA.AperFunction,SMDPad,CuDef*
G36*
G01*
X111275000Y-87016000D02*
X110975000Y-87016000D01*
G75*
G02*
X110825000Y-86866000I0J150000D01*
G01*
X110825000Y-85516000D01*
G75*
G02*
X110975000Y-85366000I150000J0D01*
G01*
X111275000Y-85366000D01*
G75*
G02*
X111425000Y-85516000I0J-150000D01*
G01*
X111425000Y-86866000D01*
G75*
G02*
X111275000Y-87016000I-150000J0D01*
G01*
G37*
G04 #@! TD.AperFunction*
G04 #@! TA.AperFunction,SMDPad,CuDef*
G36*
G01*
X112545000Y-87016000D02*
X112245000Y-87016000D01*
G75*
G02*
X112095000Y-86866000I0J150000D01*
G01*
X112095000Y-85516000D01*
G75*
G02*
X112245000Y-85366000I150000J0D01*
G01*
X112545000Y-85366000D01*
G75*
G02*
X112695000Y-85516000I0J-150000D01*
G01*
X112695000Y-86866000D01*
G75*
G02*
X112545000Y-87016000I-150000J0D01*
G01*
G37*
G04 #@! TD.AperFunction*
G04 #@! TA.AperFunction,SMDPad,CuDef*
G36*
G01*
X113815000Y-87016000D02*
X113515000Y-87016000D01*
G75*
G02*
X113365000Y-86866000I0J150000D01*
G01*
X113365000Y-85516000D01*
G75*
G02*
X113515000Y-85366000I150000J0D01*
G01*
X113815000Y-85366000D01*
G75*
G02*
X113965000Y-85516000I0J-150000D01*
G01*
X113965000Y-86866000D01*
G75*
G02*
X113815000Y-87016000I-150000J0D01*
G01*
G37*
G04 #@! TD.AperFunction*
G04 #@! TA.AperFunction,SMDPad,CuDef*
G36*
G01*
X113815000Y-81766000D02*
X113515000Y-81766000D01*
G75*
G02*
X113365000Y-81616000I0J150000D01*
G01*
X113365000Y-80266000D01*
G75*
G02*
X113515000Y-80116000I150000J0D01*
G01*
X113815000Y-80116000D01*
G75*
G02*
X113965000Y-80266000I0J-150000D01*
G01*
X113965000Y-81616000D01*
G75*
G02*
X113815000Y-81766000I-150000J0D01*
G01*
G37*
G04 #@! TD.AperFunction*
G04 #@! TA.AperFunction,SMDPad,CuDef*
G36*
G01*
X112545000Y-81766000D02*
X112245000Y-81766000D01*
G75*
G02*
X112095000Y-81616000I0J150000D01*
G01*
X112095000Y-80266000D01*
G75*
G02*
X112245000Y-80116000I150000J0D01*
G01*
X112545000Y-80116000D01*
G75*
G02*
X112695000Y-80266000I0J-150000D01*
G01*
X112695000Y-81616000D01*
G75*
G02*
X112545000Y-81766000I-150000J0D01*
G01*
G37*
G04 #@! TD.AperFunction*
G04 #@! TA.AperFunction,SMDPad,CuDef*
G36*
G01*
X111275000Y-81766000D02*
X110975000Y-81766000D01*
G75*
G02*
X110825000Y-81616000I0J150000D01*
G01*
X110825000Y-80266000D01*
G75*
G02*
X110975000Y-80116000I150000J0D01*
G01*
X111275000Y-80116000D01*
G75*
G02*
X111425000Y-80266000I0J-150000D01*
G01*
X111425000Y-81616000D01*
G75*
G02*
X111275000Y-81766000I-150000J0D01*
G01*
G37*
G04 #@! TD.AperFunction*
G04 #@! TA.AperFunction,SMDPad,CuDef*
G36*
G01*
X110005000Y-81766000D02*
X109705000Y-81766000D01*
G75*
G02*
X109555000Y-81616000I0J150000D01*
G01*
X109555000Y-80266000D01*
G75*
G02*
X109705000Y-80116000I150000J0D01*
G01*
X110005000Y-80116000D01*
G75*
G02*
X110155000Y-80266000I0J-150000D01*
G01*
X110155000Y-81616000D01*
G75*
G02*
X110005000Y-81766000I-150000J0D01*
G01*
G37*
G04 #@! TD.AperFunction*
D10*
X107228000Y-67818000D03*
X109728000Y-67818000D03*
X102616000Y-72390000D03*
X100116000Y-72390000D03*
X109982000Y-64770000D03*
X107482000Y-64770000D03*
X104688000Y-80264000D03*
X107188000Y-80264000D03*
X107188000Y-53086000D03*
X107188000Y-55586000D03*
X95250000Y-67056000D03*
X95250000Y-64556000D03*
X103886000Y-68326000D03*
X101386000Y-68326000D03*
D13*
X104394000Y-64516000D03*
D12*
X101854000Y-64516000D03*
X99314000Y-64516000D03*
X103886000Y-59690000D03*
X103886000Y-57150000D03*
D13*
X103886000Y-54610000D03*
X115062000Y-63500000D03*
X114554000Y-55372000D03*
D12*
X114554000Y-57912000D03*
D10*
X110490000Y-55372000D03*
X110490000Y-60452000D03*
X107188000Y-57912000D03*
X107188000Y-60412000D03*
X97790000Y-75946000D03*
X102870000Y-75946000D03*
D26*
X104988000Y-47752000D03*
X104988000Y-48702000D03*
X104988000Y-49652000D03*
X107188000Y-49652000D03*
X107188000Y-47752000D03*
X107188000Y-48702000D03*
D27*
X114554000Y-71508000D03*
X113919000Y-71508000D03*
X113284000Y-71508000D03*
X112649000Y-71508000D03*
X112014000Y-71508000D03*
X111379000Y-71508000D03*
X110744000Y-71508000D03*
X110109000Y-71508000D03*
X109474000Y-71508000D03*
X108839000Y-71508000D03*
X108204000Y-71508000D03*
X107569000Y-71508000D03*
X107569000Y-76708000D03*
X108204000Y-76708000D03*
X108839000Y-76708000D03*
X109474000Y-76708000D03*
X110109000Y-76708000D03*
X110744000Y-76708000D03*
X111379000Y-76708000D03*
X112014000Y-76708000D03*
X112649000Y-76708000D03*
X113284000Y-76708000D03*
X113919000Y-76708000D03*
X114554000Y-76708000D03*
D25*
X115824000Y-68580000D03*
X113924000Y-68580000D03*
D28*
X109220000Y-107696000D03*
X46228000Y-61976000D03*
X98044000Y-68072000D03*
X83312000Y-71374000D03*
X106426000Y-90170000D03*
X100838000Y-98298000D03*
X102616000Y-97790000D03*
X114300000Y-78740000D03*
D29*
X73583800Y-46609000D02*
X73583800Y-45339000D01*
X69088000Y-51308000D02*
X68834000Y-51562000D01*
X98298000Y-50038000D02*
X98298000Y-48768000D01*
X110134400Y-31750000D02*
X115062000Y-31750000D01*
X115062000Y-31750000D02*
X115062000Y-30480000D01*
X107111800Y-36195000D02*
X108585000Y-36195000D01*
X108585000Y-36195000D02*
X110236000Y-34544000D01*
X110236000Y-34544000D02*
X111252000Y-34544000D01*
X114046000Y-31750000D02*
X115062000Y-31750000D01*
X111252000Y-34544000D02*
X114046000Y-31750000D01*
X33314000Y-61124000D02*
X32642000Y-60452000D01*
X33314000Y-65786000D02*
X33314000Y-61124000D01*
X33314000Y-65786000D02*
X31790000Y-67310000D01*
X29464000Y-67310000D02*
X28702000Y-66548000D01*
X31790000Y-67310000D02*
X29464000Y-67310000D01*
X26670000Y-41402000D02*
X26924000Y-41402000D01*
X73660000Y-38608000D02*
X72644000Y-38608000D01*
X71842000Y-37806000D02*
X71842000Y-33274000D01*
X72644000Y-38608000D02*
X71842000Y-37806000D01*
X52578000Y-34584000D02*
X52618000Y-34544000D01*
X26670000Y-41402000D02*
X26670000Y-41148000D01*
X97536000Y-29464000D02*
X91440000Y-29464000D01*
X24384000Y-63754000D02*
X23622000Y-64516000D01*
X28194000Y-63754000D02*
X24384000Y-63754000D01*
X28702000Y-64262000D02*
X28194000Y-63754000D01*
X28702000Y-66548000D02*
X28702000Y-64262000D01*
X96774000Y-50038000D02*
X98298000Y-50038000D01*
X96266000Y-50038000D02*
X96774000Y-50038000D01*
X71374000Y-46482000D02*
X71882000Y-46482000D01*
X71882000Y-46482000D02*
X73406000Y-46482000D01*
X96266000Y-49530000D02*
X95758000Y-50038000D01*
X96266000Y-46990000D02*
X96266000Y-49530000D01*
X95210000Y-45934000D02*
X96266000Y-46990000D01*
X95210000Y-42926000D02*
X95210000Y-45934000D01*
X95758000Y-50038000D02*
X96266000Y-50038000D01*
X93370400Y-50038000D02*
X95758000Y-50038000D01*
X61642000Y-41870000D02*
X60666000Y-40894000D01*
X98552000Y-31750000D02*
X98552000Y-30480000D01*
X90424000Y-32004000D02*
X90424000Y-30480000D01*
X64516000Y-41870000D02*
X61642000Y-41870000D01*
X27940000Y-70612000D02*
X28702000Y-69850000D01*
X28702000Y-66548000D02*
X28702000Y-69850000D01*
X23622000Y-64516000D02*
X23622000Y-65786000D01*
X52832000Y-85892000D02*
X50252000Y-83312000D01*
X46482000Y-83312000D02*
X45974000Y-82804000D01*
X45974000Y-82804000D02*
X45974000Y-80264000D01*
X27178000Y-107696000D02*
X26416000Y-106934000D01*
X26416000Y-106934000D02*
X23622000Y-106934000D01*
X102184200Y-37465000D02*
X107111800Y-37465000D01*
X107111800Y-37465000D02*
X107111800Y-36195000D01*
X58166000Y-70358000D02*
X58166000Y-69342000D01*
X102235000Y-103356000D02*
X100965000Y-103356000D01*
X100965000Y-101727000D02*
X101346000Y-101346000D01*
X100965000Y-103356000D02*
X100965000Y-101727000D01*
X112395000Y-101727000D02*
X112014000Y-101346000D01*
X101346000Y-101346000D02*
X112014000Y-101346000D01*
X112395000Y-101727000D02*
X112395000Y-103356000D01*
X83566000Y-119380000D02*
X84328000Y-119380000D01*
X83566000Y-119380000D02*
X84074000Y-119380000D01*
X83860000Y-28662000D02*
X84836000Y-27686000D01*
X84836000Y-27686000D02*
X88900000Y-27686000D01*
X90424000Y-29210000D02*
X90424000Y-32004000D01*
X88900000Y-27686000D02*
X90424000Y-29210000D01*
X28194000Y-33020000D02*
X29210000Y-32004000D01*
X28702000Y-38608000D02*
X28194000Y-38100000D01*
X29210000Y-32004000D02*
X30396000Y-32004000D01*
X28702000Y-41148000D02*
X28702000Y-38608000D01*
X28194000Y-41656000D02*
X28702000Y-41148000D01*
X28194000Y-38100000D02*
X28194000Y-33020000D01*
X26670000Y-41656000D02*
X28194000Y-41656000D01*
X33528000Y-32004000D02*
X34036000Y-31496000D01*
X30396000Y-32004000D02*
X33528000Y-32004000D01*
X27178000Y-107696000D02*
X27178000Y-116332000D01*
X32004000Y-91694000D02*
X32088000Y-91694000D01*
X99568000Y-107950000D02*
X99568000Y-106172000D01*
X100965000Y-104775000D02*
X100965000Y-103356000D01*
X99568000Y-106172000D02*
X100965000Y-104775000D01*
X87122000Y-73660000D02*
X88392000Y-73660000D01*
X107111800Y-37465000D02*
X105871200Y-37465000D01*
X109855000Y-86191000D02*
X113665000Y-86191000D01*
X60666000Y-39330000D02*
X60666000Y-40894000D01*
X60198000Y-38862000D02*
X60666000Y-39330000D01*
X57150000Y-38862000D02*
X60198000Y-38862000D01*
X56642000Y-39370000D02*
X57150000Y-38862000D01*
X75438000Y-42926000D02*
X77216000Y-44704000D01*
X78740000Y-44704000D02*
X78994000Y-44958000D01*
X77216000Y-44704000D02*
X78740000Y-44704000D01*
X99314000Y-107696000D02*
X99568000Y-107950000D01*
X89662000Y-74930000D02*
X90678000Y-75946000D01*
X90678000Y-75946000D02*
X90678000Y-79502000D01*
X90678000Y-79502000D02*
X90170000Y-80010000D01*
X90170000Y-80010000D02*
X90170000Y-85090000D01*
X90932000Y-85852000D02*
X94234000Y-85852000D01*
X90932000Y-85852000D02*
X90170000Y-85090000D01*
X94702000Y-85384000D02*
X94702000Y-82804000D01*
X94234000Y-85852000D02*
X94702000Y-85384000D01*
X107228000Y-65024000D02*
X107482000Y-64770000D01*
X107228000Y-67818000D02*
X107228000Y-65024000D01*
X108204000Y-71508000D02*
X108204000Y-70358000D01*
X107228000Y-69382000D02*
X107228000Y-67818000D01*
X107482000Y-61722000D02*
X107188000Y-61428000D01*
X108839000Y-71508000D02*
X108839000Y-70993000D01*
X108204000Y-70358000D02*
X108077000Y-70231000D01*
X109474000Y-71508000D02*
X109474000Y-70358000D01*
X109474000Y-70358000D02*
X108966000Y-69850000D01*
X107696000Y-69850000D02*
X107228000Y-69382000D01*
X108077000Y-70231000D02*
X107696000Y-69850000D01*
X108839000Y-71508000D02*
X108839000Y-70485000D01*
X108204000Y-69850000D02*
X107950000Y-69850000D01*
X108839000Y-70485000D02*
X108204000Y-69850000D01*
X107950000Y-69850000D02*
X107696000Y-69850000D01*
X108966000Y-69850000D02*
X107950000Y-69850000D01*
X89408000Y-74676000D02*
X92964000Y-74676000D01*
X88392000Y-73660000D02*
X89408000Y-74676000D01*
X89408000Y-74676000D02*
X89662000Y-74930000D01*
X92964000Y-74676000D02*
X93686000Y-73954000D01*
X84582000Y-119380000D02*
X83566000Y-119380000D01*
X84836000Y-102108000D02*
X84328000Y-101600000D01*
X84836000Y-119126000D02*
X84836000Y-102108000D01*
X83566000Y-101600000D02*
X84328000Y-101600000D01*
X84836000Y-119126000D02*
X84582000Y-119380000D01*
X78486000Y-89408000D02*
X78486000Y-91694000D01*
X79783990Y-92991990D02*
X79783990Y-96238010D01*
X78486000Y-91694000D02*
X79783990Y-92991990D01*
X79783990Y-96238010D02*
X80264000Y-96718020D01*
X80264000Y-96718020D02*
X80264000Y-99822000D01*
X81788000Y-101346000D02*
X82804000Y-101346000D01*
X80264000Y-99822000D02*
X81788000Y-101346000D01*
X107188000Y-61428000D02*
X107188000Y-60412000D01*
X107569000Y-76708000D02*
X106680000Y-76708000D01*
X106680000Y-76708000D02*
X105664000Y-75692000D01*
X108204000Y-76708000D02*
X108204000Y-76200000D01*
X108204000Y-76200000D02*
X107696000Y-75692000D01*
X106172000Y-75692000D02*
X105664000Y-75184000D01*
X105664000Y-75692000D02*
X105664000Y-75184000D01*
X109474000Y-75903998D02*
X109262002Y-75692000D01*
X109474000Y-76708000D02*
X109474000Y-75903998D01*
X109262002Y-75692000D02*
X107442000Y-75692000D01*
X107442000Y-75692000D02*
X106172000Y-75692000D01*
X107696000Y-75692000D02*
X107442000Y-75692000D01*
X111038000Y-86278000D02*
X111125000Y-86191000D01*
X111038000Y-89408000D02*
X111038000Y-86278000D01*
X101092000Y-89154000D02*
X97790000Y-85852000D01*
X97790000Y-85852000D02*
X97790000Y-83566000D01*
X97790000Y-83566000D02*
X97028000Y-82804000D01*
X97028000Y-82804000D02*
X94702000Y-82804000D01*
X104648000Y-72898000D02*
X105664000Y-73914000D01*
X104648000Y-71628000D02*
X104648000Y-72898000D01*
X105664000Y-73914000D02*
X105664000Y-75184000D01*
X103886000Y-70866000D02*
X104648000Y-71628000D01*
X100508630Y-70866000D02*
X103886000Y-70866000D01*
X100116000Y-71258630D02*
X100508630Y-70866000D01*
X100116000Y-72390000D02*
X100116000Y-71258630D01*
X96774000Y-62230000D02*
X97282000Y-61722000D01*
X97282000Y-61722000D02*
X98806000Y-60198000D01*
X97028000Y-61976000D02*
X97282000Y-61722000D01*
X104988000Y-48702000D02*
X107188000Y-48702000D01*
X96774000Y-66548000D02*
X96774000Y-62230000D01*
X96266000Y-67056000D02*
X96774000Y-66548000D01*
X95250000Y-67056000D02*
X96266000Y-67056000D01*
X61214000Y-103632000D02*
X61214000Y-102616000D01*
X61722000Y-104140000D02*
X61214000Y-103632000D01*
X99314000Y-108204000D02*
X99568000Y-107950000D01*
X95250000Y-108204000D02*
X99314000Y-108204000D01*
X90424000Y-30480000D02*
X91440000Y-29464000D01*
X107482000Y-64770000D02*
X107482000Y-61722000D01*
X22900000Y-66508000D02*
X23622000Y-65786000D01*
X22606000Y-102830000D02*
X22860000Y-102576000D01*
X22606000Y-105918000D02*
X22606000Y-102830000D01*
X23622000Y-106934000D02*
X22606000Y-105918000D01*
X107188000Y-48702000D02*
X108016000Y-48702000D01*
X108016000Y-48702000D02*
X108712000Y-48006000D01*
X108712000Y-48006000D02*
X108712000Y-44196000D01*
X107950000Y-43434000D02*
X105624000Y-43434000D01*
X108712000Y-44196000D02*
X107950000Y-43434000D01*
X71374000Y-83058000D02*
X71374000Y-81534000D01*
X71374000Y-81534000D02*
X72644000Y-80264000D01*
X72644000Y-80264000D02*
X72644000Y-76962000D01*
X72644000Y-76962000D02*
X74422000Y-75184000D01*
X74422000Y-75184000D02*
X74422000Y-72136000D01*
X74422000Y-72136000D02*
X75438000Y-71120000D01*
X75438000Y-71120000D02*
X76708000Y-71120000D01*
X76708000Y-71120000D02*
X77724000Y-70104000D01*
X77724000Y-70104000D02*
X77724000Y-69342000D01*
X78486000Y-68580000D02*
X79502000Y-68580000D01*
X77724000Y-69342000D02*
X78486000Y-68580000D01*
X100076000Y-72430000D02*
X100116000Y-72390000D01*
X28956000Y-93726000D02*
X31242000Y-93726000D01*
X32088000Y-92880000D02*
X32088000Y-91694000D01*
X31242000Y-93726000D02*
X32088000Y-92880000D01*
X99187000Y-37465000D02*
X98806000Y-37084000D01*
X102184200Y-37465000D02*
X99187000Y-37465000D01*
X70866000Y-46482000D02*
X71374000Y-46482000D01*
X68478400Y-46482000D02*
X70866000Y-46482000D01*
X71374000Y-42926000D02*
X75438000Y-42926000D01*
X70866000Y-43434000D02*
X71374000Y-42926000D01*
X70866000Y-44450000D02*
X70866000Y-43434000D01*
X71628000Y-45212000D02*
X70866000Y-44450000D01*
X73406000Y-45212000D02*
X71628000Y-45212000D01*
X46736000Y-83312000D02*
X46482000Y-83312000D01*
X50252000Y-83312000D02*
X46736000Y-83312000D01*
X83860000Y-30226000D02*
X83860000Y-28662000D01*
X98552000Y-30480000D02*
X97536000Y-29464000D01*
X98806000Y-60198000D02*
X98806000Y-57872000D01*
X54864000Y-78486000D02*
X56642000Y-76708000D01*
X56642000Y-76708000D02*
X56642000Y-71882000D01*
X56642000Y-71882000D02*
X58166000Y-70358000D01*
X100076000Y-77470000D02*
X100076000Y-72430000D01*
X93686000Y-73954000D02*
X93686000Y-71628000D01*
X27940000Y-70612000D02*
X26670000Y-70612000D01*
X21590000Y-66508000D02*
X22900000Y-66508000D01*
X52618000Y-34544000D02*
X52618000Y-32218000D01*
X52618000Y-32218000D02*
X53848000Y-30988000D01*
X58888000Y-30988000D02*
X60452000Y-32552000D01*
X53848000Y-30988000D02*
X58888000Y-30988000D01*
X53340000Y-39370000D02*
X56642000Y-39370000D01*
X103378000Y-89154000D02*
X105918000Y-86614000D01*
X105918000Y-86614000D02*
X105918000Y-86360000D01*
X94702000Y-82804000D02*
X96266000Y-82804000D01*
X96266000Y-82804000D02*
X96774000Y-82296000D01*
X96774000Y-82296000D02*
X96774000Y-79248000D01*
X98171000Y-77851000D02*
X99695000Y-77851000D01*
X96774000Y-79248000D02*
X98171000Y-77851000D01*
X99695000Y-77851000D02*
X100076000Y-77470000D01*
X70866000Y-46482000D02*
X70866000Y-47752000D01*
X70866000Y-48260000D02*
X70866000Y-47752000D01*
X72898000Y-49276000D02*
X71882000Y-49276000D01*
X73192000Y-49570000D02*
X72898000Y-49276000D01*
X71882000Y-49276000D02*
X70866000Y-48260000D01*
X73192000Y-50800000D02*
X73192000Y-49570000D01*
X70866000Y-48006000D02*
X70866000Y-47752000D01*
X70231000Y-48641000D02*
X70866000Y-48006000D01*
X66421000Y-48641000D02*
X70231000Y-48641000D01*
X66167000Y-48895000D02*
X66421000Y-48641000D01*
X65151000Y-48895000D02*
X66167000Y-48895000D01*
X62992000Y-49530000D02*
X64516000Y-49530000D01*
X64516000Y-49530000D02*
X65151000Y-48895000D01*
X62738000Y-46736000D02*
X62738000Y-49276000D01*
X62738000Y-49276000D02*
X62992000Y-49530000D01*
X61762000Y-45760000D02*
X62738000Y-46736000D01*
X59436000Y-45760000D02*
X61762000Y-45760000D01*
X44958000Y-78486000D02*
X54864000Y-78486000D01*
X44450000Y-77978000D02*
X44958000Y-78486000D01*
X44450000Y-78740000D02*
X44450000Y-77724000D01*
X44450000Y-77724000D02*
X44450000Y-77978000D01*
X44450000Y-76454000D02*
X44450000Y-77724000D01*
X45974000Y-80264000D02*
X44450000Y-78740000D01*
X43728000Y-72898000D02*
X43728000Y-70104000D01*
X44450000Y-73620000D02*
X43728000Y-72898000D01*
X44450000Y-76454000D02*
X44450000Y-73620000D01*
X31750000Y-72390000D02*
X33782000Y-74422000D01*
X33782000Y-74422000D02*
X33782000Y-76200000D01*
X27178000Y-72390000D02*
X31750000Y-72390000D01*
X26670000Y-71882000D02*
X27178000Y-72390000D01*
X26670000Y-70612000D02*
X26670000Y-71882000D01*
X46990000Y-56896000D02*
X46990000Y-55372000D01*
X46990000Y-55372000D02*
X48260000Y-54102000D01*
X48260000Y-54102000D02*
X48768000Y-54102000D01*
X49276000Y-53594000D02*
X49276000Y-52324000D01*
X48768000Y-54102000D02*
X49276000Y-53594000D01*
X101092000Y-89154000D02*
X103378000Y-89154000D01*
X102418000Y-110800000D02*
X99568000Y-107950000D01*
X103378000Y-110800000D02*
X102418000Y-110800000D01*
X79502000Y-32766000D02*
X80518000Y-32766000D01*
X78994000Y-32258000D02*
X79502000Y-32766000D01*
X78994000Y-28956000D02*
X78994000Y-32258000D01*
X78232000Y-28194000D02*
X78994000Y-28956000D01*
X74676000Y-28194000D02*
X78232000Y-28194000D01*
X74168000Y-28702000D02*
X74676000Y-28194000D01*
X74168000Y-29718000D02*
X74168000Y-28702000D01*
X71842000Y-32044000D02*
X74168000Y-29718000D01*
X71842000Y-33274000D02*
X71842000Y-32044000D01*
X54864000Y-116332000D02*
X54864000Y-115570000D01*
X54864000Y-115570000D02*
X56642000Y-113792000D01*
X60960000Y-113792000D02*
X61722000Y-113030000D01*
X56642000Y-113792000D02*
X60960000Y-113792000D01*
X61722000Y-113030000D02*
X61722000Y-104140000D01*
X46990000Y-73660000D02*
X46228000Y-72898000D01*
X46482000Y-73152000D02*
X46228000Y-72898000D01*
X50292000Y-73152000D02*
X50038000Y-73406000D01*
X50292000Y-71374000D02*
X50292000Y-73152000D01*
X46990000Y-73914000D02*
X46990000Y-73660000D01*
X46990000Y-76454000D02*
X46990000Y-73914000D01*
X46990000Y-73660000D02*
X47244000Y-73406000D01*
X47244000Y-73406000D02*
X47752000Y-73406000D01*
X47752000Y-73406000D02*
X47498000Y-73406000D01*
X50038000Y-73406000D02*
X47752000Y-73406000D01*
X73406000Y-43942000D02*
X74930000Y-43942000D01*
X74930000Y-43942000D02*
X75692000Y-44704000D01*
X75692000Y-44704000D02*
X75692000Y-47244000D01*
X75692000Y-47244000D02*
X75184000Y-47752000D01*
X103378000Y-33274000D02*
X102362000Y-33274000D01*
X105029000Y-34925000D02*
X103378000Y-33274000D01*
X102362000Y-33274000D02*
X102616000Y-33274000D01*
X107111800Y-34925000D02*
X105029000Y-34925000D01*
X101092000Y-32258000D02*
X102108000Y-33274000D01*
X101092000Y-31750000D02*
X101092000Y-32258000D01*
X102108000Y-33274000D02*
X102362000Y-33274000D01*
X115062000Y-29210000D02*
X113792000Y-27940000D01*
X113792000Y-27940000D02*
X102870000Y-27940000D01*
X101092000Y-29718000D02*
X101092000Y-31750000D01*
X102870000Y-27940000D02*
X101092000Y-29718000D01*
X98298000Y-47498000D02*
X98298000Y-47244000D01*
X101092000Y-33274000D02*
X102108000Y-33274000D01*
X90932000Y-34290000D02*
X92710000Y-34290000D01*
X90424000Y-34798000D02*
X90932000Y-34290000D01*
X92456000Y-34290000D02*
X92710000Y-34290000D01*
X89916000Y-40640000D02*
X89916000Y-38608000D01*
X89916000Y-38608000D02*
X90424000Y-38100000D01*
X90424000Y-38100000D02*
X90424000Y-34798000D01*
X96139000Y-39751000D02*
X96774000Y-40386000D01*
X90805000Y-39751000D02*
X96139000Y-39751000D01*
X89916000Y-40640000D02*
X90805000Y-39751000D01*
X97155000Y-46101000D02*
X97028000Y-45974000D01*
X98298000Y-47244000D02*
X97155000Y-46101000D01*
X96774000Y-40386000D02*
X97028000Y-40640000D01*
X97028000Y-40640000D02*
X97028000Y-45974000D01*
X92710000Y-34290000D02*
X92964000Y-34290000D01*
X93472000Y-33782000D02*
X100584000Y-33782000D01*
X92964000Y-34290000D02*
X93472000Y-33782000D01*
X100584000Y-33782000D02*
X101092000Y-33274000D01*
X89916000Y-41910000D02*
X88646000Y-43180000D01*
X89916000Y-40640000D02*
X89916000Y-41910000D01*
X76200000Y-46736000D02*
X75692000Y-47244000D01*
X80772000Y-46736000D02*
X76200000Y-46736000D01*
X81280000Y-47244000D02*
X80772000Y-46736000D01*
X88646000Y-43180000D02*
X86106000Y-43180000D01*
X86106000Y-43180000D02*
X85344000Y-43942000D01*
X85344000Y-43942000D02*
X85344000Y-46736000D01*
X85344000Y-46736000D02*
X84836000Y-47244000D01*
X84836000Y-47244000D02*
X81280000Y-47244000D01*
X73406000Y-47752000D02*
X73914000Y-47752000D01*
X75692000Y-48768000D02*
X74676000Y-47752000D01*
X75692000Y-50800000D02*
X75692000Y-48768000D01*
X74676000Y-47752000D02*
X73406000Y-47752000D01*
X75184000Y-47752000D02*
X74676000Y-47752000D01*
X75692000Y-52324000D02*
X75692000Y-50800000D01*
X75184000Y-52832000D02*
X75692000Y-52324000D01*
X71628000Y-52324000D02*
X72136000Y-52832000D01*
X71628000Y-49784000D02*
X71628000Y-52324000D01*
X71219010Y-49375010D02*
X71628000Y-49784000D01*
X72136000Y-52832000D02*
X75184000Y-52832000D01*
X58928000Y-50546000D02*
X64770000Y-50546000D01*
X58420000Y-51054000D02*
X58928000Y-50546000D01*
X58420000Y-52324000D02*
X58420000Y-51054000D01*
X66393010Y-49375010D02*
X66393010Y-49430990D01*
X66393010Y-49375010D02*
X71219010Y-49375010D01*
X65913000Y-49911000D02*
X65405000Y-49911000D01*
X66393010Y-49430990D02*
X65913000Y-49911000D01*
X64770000Y-50546000D02*
X65405000Y-49911000D01*
X90678000Y-71120000D02*
X91186000Y-71628000D01*
X87122000Y-71120000D02*
X90678000Y-71120000D01*
X48392000Y-70998000D02*
X48392000Y-71374000D01*
X47498000Y-70104000D02*
X48392000Y-70998000D01*
X46228000Y-70104000D02*
X47498000Y-70104000D01*
X48514000Y-61468000D02*
X49276000Y-61468000D01*
X47498000Y-62484000D02*
X48514000Y-61468000D01*
X47498000Y-66294000D02*
X47498000Y-62484000D01*
X46228000Y-67564000D02*
X47498000Y-66294000D01*
X46228000Y-70104000D02*
X46228000Y-67564000D01*
X92710000Y-44704000D02*
X92710000Y-42926000D01*
X89408000Y-48006000D02*
X92710000Y-44704000D01*
X89408000Y-60452000D02*
X89408000Y-60198000D01*
X89408000Y-59944000D02*
X89408000Y-48006000D01*
X89408000Y-60198000D02*
X89408000Y-59944000D01*
X89943184Y-63754000D02*
X89380010Y-63190826D01*
X91186000Y-63754000D02*
X89943184Y-63754000D01*
X89380010Y-62511990D02*
X89408000Y-62484000D01*
X89408000Y-62484000D02*
X89408000Y-59944000D01*
X89380010Y-63190826D02*
X89380010Y-62511990D01*
X89408000Y-62992000D02*
X89408000Y-62484000D01*
X81026000Y-42418000D02*
X78994000Y-42418000D01*
X83566000Y-44958000D02*
X81026000Y-42418000D01*
X68478400Y-43942000D02*
X68478400Y-45212000D01*
X62992000Y-73406000D02*
X62992000Y-71374000D01*
X65786000Y-76200000D02*
X62992000Y-73406000D01*
X65786000Y-77724000D02*
X65786000Y-76200000D01*
X62992000Y-73406000D02*
X62992000Y-75438000D01*
X62992000Y-75438000D02*
X61468000Y-76962000D01*
X61468000Y-76962000D02*
X61468000Y-78486000D01*
X61468000Y-78486000D02*
X60235999Y-79718001D01*
X60235999Y-79718001D02*
X54901999Y-79718001D01*
X54901999Y-79718001D02*
X54102000Y-80518000D01*
X58674000Y-48260000D02*
X59436000Y-48260000D01*
X76962000Y-41148000D02*
X76962000Y-35560000D01*
X76962000Y-35560000D02*
X77470000Y-35052000D01*
X75692000Y-42418000D02*
X76962000Y-41148000D01*
X69850000Y-42418000D02*
X75692000Y-42418000D01*
X68478400Y-43789600D02*
X69850000Y-42418000D01*
X68478400Y-43942000D02*
X68478400Y-43789600D01*
X78232000Y-81280000D02*
X79502000Y-81280000D01*
X77089000Y-82423000D02*
X78232000Y-81280000D01*
X77089000Y-83439000D02*
X77089000Y-82423000D01*
X75986000Y-84542000D02*
X77089000Y-83439000D01*
X75986000Y-89408000D02*
X75986000Y-84542000D01*
X82042000Y-35052000D02*
X83058000Y-36068000D01*
X77470000Y-35052000D02*
X82042000Y-35052000D01*
X84836000Y-36068000D02*
X83058000Y-36068000D01*
X87122000Y-38354000D02*
X84836000Y-36068000D01*
X87122000Y-39878000D02*
X87122000Y-38354000D01*
X58420000Y-48260000D02*
X59436000Y-48260000D01*
X54102000Y-43942000D02*
X54610000Y-43942000D01*
X54610000Y-43942000D02*
X56134000Y-45466000D01*
X56134000Y-45466000D02*
X56134000Y-47498000D01*
X56896000Y-48260000D02*
X59436000Y-48260000D01*
X56134000Y-47498000D02*
X56896000Y-48260000D01*
X54102000Y-45466000D02*
X54102000Y-43942000D01*
X68834000Y-59182000D02*
X67564000Y-59182000D01*
X67564000Y-59182000D02*
X66548000Y-58166000D01*
X56896000Y-58166000D02*
X56134000Y-57404000D01*
X66548000Y-58166000D02*
X56896000Y-58166000D01*
X56134000Y-55626000D02*
X54737000Y-54229000D01*
X53086000Y-46482000D02*
X54102000Y-45466000D01*
X51308000Y-46482000D02*
X53086000Y-46482000D01*
X50546000Y-49784000D02*
X50546000Y-47244000D01*
X56134000Y-57404000D02*
X56134000Y-55626000D01*
X50546000Y-47244000D02*
X51308000Y-46482000D01*
X50800000Y-50800000D02*
X50800000Y-50038000D01*
X51562000Y-51562000D02*
X50800000Y-50800000D01*
X50800000Y-50038000D02*
X50546000Y-49784000D01*
X54737000Y-52197000D02*
X54102000Y-51562000D01*
X54102000Y-51562000D02*
X51562000Y-51562000D01*
X54737000Y-54229000D02*
X54737000Y-52197000D01*
X64770000Y-44958000D02*
X66294000Y-44958000D01*
X66548000Y-45212000D02*
X68478400Y-45212000D01*
X66294000Y-44958000D02*
X66548000Y-45212000D01*
X53594000Y-81026000D02*
X54102000Y-80518000D01*
X49022000Y-81026000D02*
X53594000Y-81026000D01*
X64770000Y-47458000D02*
X66508000Y-47458000D01*
X66802000Y-47752000D02*
X68478400Y-47752000D01*
X66508000Y-47458000D02*
X66802000Y-47752000D01*
X93370400Y-48768000D02*
X93370400Y-47498000D01*
X91948000Y-48768000D02*
X93370400Y-48768000D01*
X91694000Y-49022000D02*
X91948000Y-48768000D01*
X91440000Y-49276000D02*
X91694000Y-49022000D01*
X90972000Y-49744000D02*
X91440000Y-49276000D01*
X90972000Y-55118000D02*
X90972000Y-53046000D01*
X90972000Y-53046000D02*
X90972000Y-49744000D01*
X90972000Y-53848000D02*
X90972000Y-53046000D01*
X91440000Y-55586000D02*
X90972000Y-55118000D01*
X99314000Y-55372000D02*
X99314000Y-55118000D01*
X91186000Y-55332000D02*
X90972000Y-55118000D01*
X91186000Y-58674000D02*
X91186000Y-55332000D01*
X91186000Y-111760000D02*
X91186000Y-109982000D01*
X93726000Y-114300000D02*
X91186000Y-111760000D01*
X94234000Y-114300000D02*
X93726000Y-114300000D01*
X94996000Y-98552000D02*
X96774000Y-96774000D01*
X96774000Y-95907000D02*
X98425000Y-94256000D01*
X96774000Y-96774000D02*
X96774000Y-95907000D01*
X97167001Y-106540999D02*
X98044000Y-105664000D01*
X93218000Y-106934000D02*
X93611001Y-106540999D01*
X93611001Y-106540999D02*
X97167001Y-106540999D01*
X93218000Y-111760000D02*
X93218000Y-106934000D01*
X93726000Y-112268000D02*
X93218000Y-111760000D01*
X99695000Y-104756000D02*
X99695000Y-103356000D01*
X96266000Y-112268000D02*
X93726000Y-112268000D01*
X98044000Y-105664000D02*
X98787000Y-105664000D01*
X97028000Y-113030000D02*
X96266000Y-112268000D01*
X98787000Y-105664000D02*
X99695000Y-104756000D01*
X114300000Y-117094000D02*
X113538000Y-117094000D01*
X108116328Y-122682000D02*
X107552348Y-123245980D01*
X113538000Y-117094000D02*
X112776000Y-117856000D01*
X112776000Y-117856000D02*
X112776000Y-120396000D01*
X112014000Y-121158000D02*
X110998000Y-121158000D01*
X110998000Y-121158000D02*
X109474000Y-122682000D01*
X97028000Y-122174000D02*
X97028000Y-113030000D01*
X109474000Y-122682000D02*
X108116328Y-122682000D01*
X107552348Y-123245980D02*
X100639980Y-123245980D01*
X100076000Y-122682000D02*
X97536000Y-122682000D01*
X100639980Y-123245980D02*
X100076000Y-122682000D01*
X112776000Y-120396000D02*
X112014000Y-121158000D01*
X97536000Y-122682000D02*
X97028000Y-122174000D01*
X99314000Y-39624000D02*
X100203000Y-38735000D01*
X100203000Y-38735000D02*
X102184200Y-38735000D01*
X99314000Y-41696000D02*
X99314000Y-39624000D01*
X60960000Y-56134000D02*
X60706000Y-56388000D01*
X102184200Y-36195000D02*
X102184200Y-34925000D01*
X99314000Y-53340000D02*
X102108000Y-50546000D01*
X109686000Y-80772000D02*
X109855000Y-80941000D01*
X109220000Y-80772000D02*
X109686000Y-80772000D01*
X96012000Y-53340000D02*
X96774000Y-53340000D01*
X95504000Y-53848000D02*
X96012000Y-53340000D01*
X96774000Y-53340000D02*
X99314000Y-53340000D01*
X96520000Y-53340000D02*
X96774000Y-53340000D01*
X88392000Y-89662000D02*
X88392000Y-90678000D01*
X107696000Y-88138000D02*
X108204000Y-87630000D01*
X108204000Y-81788000D02*
X108839000Y-81153000D01*
X108839000Y-81153000D02*
X109220000Y-80772000D01*
X108712000Y-81280000D02*
X108839000Y-81153000D01*
X110136990Y-91848990D02*
X114653010Y-91848990D01*
X109220000Y-90932000D02*
X110136990Y-91848990D01*
X109220000Y-89154000D02*
X109220000Y-90932000D01*
X108204000Y-88138000D02*
X109220000Y-89154000D01*
X108204000Y-87630000D02*
X108204000Y-88138000D01*
X114653010Y-91848990D02*
X115316000Y-91186000D01*
X115316000Y-82042000D02*
X115316000Y-91186000D01*
X89662000Y-92964000D02*
X89717980Y-92964000D01*
X95504000Y-57404000D02*
X95504000Y-53848000D01*
X95504000Y-57912000D02*
X95504000Y-57404000D01*
X95504000Y-59690000D02*
X95504000Y-57404000D01*
X93853000Y-60071000D02*
X95123000Y-60071000D01*
X93472000Y-60452000D02*
X93853000Y-60071000D01*
X95123000Y-60071000D02*
X95504000Y-59690000D01*
X112014000Y-76708000D02*
X112014000Y-77978000D01*
X112014000Y-77978000D02*
X112268000Y-78232000D01*
X112268000Y-78232000D02*
X112522000Y-78232000D01*
X112522000Y-77216000D02*
X112522000Y-78232000D01*
X112649000Y-77089000D02*
X112522000Y-77216000D01*
X112649000Y-76708000D02*
X112649000Y-77089000D01*
X115288010Y-81760010D02*
X115288010Y-80236010D01*
X115316000Y-81788000D02*
X115288010Y-81760010D01*
X115316000Y-82042000D02*
X115316000Y-81788000D01*
X115288010Y-80236010D02*
X114808000Y-79756000D01*
X114808000Y-79756000D02*
X113792000Y-79756000D01*
X112522000Y-78486000D02*
X112522000Y-78232000D01*
X112268000Y-78232000D02*
X112776000Y-78740000D01*
X112776000Y-78740000D02*
X112522000Y-78486000D01*
X113792000Y-79756000D02*
X112776000Y-78740000D01*
X93472000Y-60706000D02*
X93472000Y-60452000D01*
X93472000Y-60960000D02*
X93472000Y-60706000D01*
X96266000Y-74422000D02*
X97790000Y-75946000D01*
X96266000Y-69342000D02*
X96266000Y-74422000D01*
X95504000Y-68580000D02*
X96266000Y-69342000D01*
X93980000Y-68580000D02*
X95504000Y-68580000D01*
X93472000Y-68072000D02*
X93980000Y-68580000D01*
X93472000Y-62778000D02*
X93472000Y-61976000D01*
X95250000Y-64556000D02*
X93472000Y-62778000D01*
X93472000Y-61976000D02*
X93472000Y-68072000D01*
X93472000Y-60706000D02*
X93472000Y-61976000D01*
X102108000Y-50546000D02*
X102108000Y-49784000D01*
X102108000Y-49784000D02*
X102108000Y-49530000D01*
X90959990Y-91721990D02*
X103151990Y-91721990D01*
X103151990Y-91721990D02*
X103350010Y-91721990D01*
X103350010Y-91721990D02*
X104394000Y-90678000D01*
X104394000Y-90678000D02*
X104394000Y-89408000D01*
X105664000Y-88138000D02*
X107188000Y-88138000D01*
X104394000Y-89408000D02*
X105664000Y-88138000D01*
X107188000Y-88138000D02*
X106680000Y-88138000D01*
X107696000Y-88138000D02*
X107188000Y-88138000D01*
X103124000Y-46228000D02*
X103124000Y-43434000D01*
X102108000Y-47244000D02*
X103124000Y-46228000D01*
X102108000Y-49784000D02*
X102108000Y-47244000D01*
X91821000Y-34925000D02*
X102184200Y-34925000D01*
X91186000Y-35560000D02*
X91821000Y-34925000D01*
X97028000Y-39116000D02*
X91948000Y-39116000D01*
X91948000Y-39116000D02*
X91186000Y-38354000D01*
X97508010Y-39596010D02*
X97028000Y-39116000D01*
X97508010Y-43406010D02*
X97508010Y-39596010D01*
X91186000Y-38354000D02*
X91186000Y-35560000D01*
X98298000Y-44196000D02*
X97508010Y-43406010D01*
X99314000Y-44196000D02*
X98298000Y-44196000D01*
X89154000Y-94742000D02*
X89154000Y-93726000D01*
X88392000Y-92964000D02*
X88392000Y-92456000D01*
X89154000Y-93726000D02*
X88392000Y-92964000D01*
X88392000Y-92456000D02*
X88392000Y-90678000D01*
X88392000Y-92710000D02*
X88392000Y-92456000D01*
X89154000Y-93527980D02*
X89816990Y-92864990D01*
X89154000Y-93726000D02*
X89154000Y-93527980D01*
X89816990Y-92864990D02*
X90959990Y-91721990D01*
X89717980Y-92964000D02*
X89816990Y-92864990D01*
X107696000Y-82042000D02*
X108204000Y-82550000D01*
X108204000Y-82550000D02*
X108204000Y-81788000D01*
X108204000Y-87630000D02*
X108204000Y-82550000D01*
X107696000Y-82042000D02*
X105410000Y-82042000D01*
X104688000Y-81320000D02*
X104688000Y-80264000D01*
X105410000Y-82042000D02*
X104688000Y-81320000D01*
X108585000Y-105029000D02*
X108585000Y-103356000D01*
X109220000Y-105664000D02*
X108966000Y-105410000D01*
X108966000Y-105410000D02*
X108585000Y-105029000D01*
X109220000Y-107696000D02*
X109220000Y-105664000D01*
X107111800Y-38735000D02*
X108077000Y-38735000D01*
X99538600Y-51308000D02*
X100838000Y-50008600D01*
X98298000Y-51308000D02*
X99538600Y-51308000D01*
X91440000Y-79756000D02*
X92202000Y-80518000D01*
X93218000Y-75692000D02*
X91948000Y-75692000D01*
X95504000Y-73406000D02*
X93218000Y-75692000D01*
X98298000Y-51308000D02*
X98298000Y-52070000D01*
X98298000Y-52070000D02*
X97536000Y-52832000D01*
X91440000Y-76200000D02*
X91440000Y-79756000D01*
X92456000Y-66294000D02*
X90170000Y-66294000D01*
X91948000Y-75692000D02*
X91440000Y-76200000D01*
X97536000Y-52832000D02*
X95758000Y-52832000D01*
X89662000Y-66802000D02*
X89662000Y-68072000D01*
X95758000Y-52832000D02*
X94996000Y-53594000D01*
X92202000Y-80518000D02*
X92202000Y-82804000D01*
X94996000Y-53594000D02*
X94996000Y-56896000D01*
X94996000Y-56896000D02*
X92964000Y-58928000D01*
X92964000Y-58928000D02*
X92964000Y-65786000D01*
X95504000Y-69850000D02*
X95504000Y-73406000D01*
X89662000Y-68072000D02*
X90170000Y-68580000D01*
X92964000Y-65786000D02*
X92456000Y-66294000D01*
X90170000Y-66294000D02*
X89662000Y-66802000D01*
X92456000Y-69088000D02*
X91948000Y-68580000D01*
X94742000Y-69088000D02*
X92456000Y-69088000D01*
X90170000Y-68580000D02*
X91948000Y-68580000D01*
X94742000Y-69088000D02*
X95504000Y-69850000D01*
X114808000Y-34290000D02*
X115062000Y-34036000D01*
X112522000Y-34290000D02*
X114808000Y-34290000D01*
X111506000Y-35306000D02*
X112522000Y-34290000D01*
X110236000Y-35306000D02*
X111506000Y-35306000D01*
X109474000Y-36068000D02*
X110236000Y-35306000D01*
X109474000Y-37592000D02*
X109474000Y-36068000D01*
X115062000Y-34036000D02*
X115062000Y-33020000D01*
X108331000Y-38735000D02*
X109474000Y-37592000D01*
X107111800Y-38735000D02*
X108331000Y-38735000D01*
X100838000Y-50008600D02*
X100838000Y-46482000D01*
X100838000Y-46482000D02*
X101092000Y-46228000D01*
X101092000Y-46228000D02*
X101092000Y-40894000D01*
X101092000Y-40894000D02*
X101854000Y-40132000D01*
X101854000Y-40132000D02*
X106680000Y-40132000D01*
X107111800Y-39700200D02*
X107111800Y-38735000D01*
X106680000Y-40132000D02*
X107111800Y-39700200D01*
X46990000Y-48514000D02*
X47498000Y-48514000D01*
X42219980Y-56896000D02*
X42164000Y-56896000D01*
X42164000Y-56896000D02*
X41656000Y-57404000D01*
X44223990Y-54891990D02*
X42219980Y-56896000D01*
X44223990Y-54836010D02*
X44223990Y-54891990D01*
X44958000Y-54102000D02*
X44223990Y-54836010D01*
X44958000Y-52070000D02*
X44958000Y-54102000D01*
X45339000Y-51689000D02*
X44958000Y-52070000D01*
X45339000Y-50673000D02*
X45339000Y-51689000D01*
X47498000Y-48514000D02*
X45339000Y-50673000D01*
X41148000Y-63500000D02*
X41656000Y-62992000D01*
X39878000Y-63500000D02*
X41148000Y-63500000D01*
X41656000Y-57404000D02*
X41656000Y-62992000D01*
X45085000Y-57277000D02*
X45085000Y-55245000D01*
X43434000Y-58928000D02*
X45085000Y-57277000D01*
X46776000Y-53554000D02*
X45974000Y-54356000D01*
X46776000Y-52324000D02*
X46776000Y-53554000D01*
X45974000Y-54356000D02*
X46228000Y-54102000D01*
X45085000Y-55245000D02*
X45974000Y-54356000D01*
X46776000Y-52324000D02*
X46776000Y-53634000D01*
X26670000Y-102362000D02*
X28956000Y-102362000D01*
X24384000Y-100076000D02*
X26670000Y-102362000D01*
X22860000Y-100076000D02*
X24384000Y-100076000D01*
X39878000Y-73914000D02*
X39878000Y-72136000D01*
X41656000Y-70358000D02*
X41656000Y-65024000D01*
X39878000Y-72136000D02*
X41656000Y-70358000D01*
X42672000Y-64008000D02*
X43434000Y-64008000D01*
X41656000Y-65024000D02*
X42672000Y-64008000D01*
X49490000Y-57698000D02*
X49490000Y-56896000D01*
X45720000Y-58674000D02*
X48514000Y-58674000D01*
X45212000Y-59182000D02*
X45720000Y-58674000D01*
X45212000Y-60706000D02*
X45212000Y-59182000D01*
X48514000Y-58674000D02*
X49490000Y-57698000D01*
X43434000Y-62484000D02*
X45212000Y-60706000D01*
X43434000Y-64008000D02*
X43434000Y-62484000D01*
X106466000Y-33020000D02*
X105918000Y-32472000D01*
X110134400Y-33020000D02*
X106466000Y-33020000D01*
X110134400Y-30480000D02*
X110134400Y-29210000D01*
X37592000Y-57912000D02*
X38862000Y-57912000D01*
X38862000Y-57912000D02*
X39370000Y-57404000D01*
X39370000Y-57404000D02*
X39370000Y-53340000D01*
X38862000Y-52832000D02*
X37592000Y-52832000D01*
X39370000Y-53340000D02*
X38862000Y-52832000D01*
X32642000Y-56642000D02*
X33782000Y-56642000D01*
X33782000Y-56642000D02*
X35052000Y-55372000D01*
X35052000Y-55372000D02*
X35052000Y-53594000D01*
X35052000Y-53594000D02*
X35814000Y-52832000D01*
X35814000Y-52832000D02*
X36068000Y-52832000D01*
X36068000Y-52832000D02*
X37592000Y-52832000D01*
X36068000Y-52832000D02*
X34544000Y-51308000D01*
X55118000Y-34544000D02*
X55626000Y-34544000D01*
X69342000Y-33020000D02*
X69342000Y-33274000D01*
X69342000Y-33782000D02*
X69342000Y-33274000D01*
X71120000Y-35560000D02*
X69342000Y-33782000D01*
X71120000Y-39370000D02*
X71120000Y-35560000D01*
X71628000Y-39878000D02*
X71120000Y-39370000D01*
X73660000Y-39878000D02*
X71628000Y-39878000D01*
X87376000Y-33782000D02*
X86360000Y-32766000D01*
X92202000Y-33782000D02*
X87376000Y-33782000D01*
X92964000Y-33020000D02*
X92202000Y-33782000D01*
X92964000Y-32004000D02*
X92964000Y-33020000D01*
X69342000Y-33274000D02*
X69342000Y-30988000D01*
X27178000Y-50546000D02*
X27940000Y-51308000D01*
X27178000Y-49530000D02*
X27178000Y-50546000D01*
X80518000Y-30266000D02*
X81320000Y-30266000D01*
X81320000Y-30266000D02*
X82042000Y-30988000D01*
X82042000Y-30988000D02*
X82042000Y-33020000D01*
X82042000Y-33020000D02*
X82550000Y-33528000D01*
X85090000Y-33528000D02*
X86360000Y-32258000D01*
X82550000Y-33528000D02*
X85090000Y-33528000D01*
X86360000Y-32258000D02*
X86360000Y-30226000D01*
X86360000Y-32766000D02*
X86360000Y-32258000D01*
X70358000Y-29972000D02*
X72898000Y-29972000D01*
X69342000Y-30988000D02*
X70358000Y-29972000D01*
X48514000Y-92456000D02*
X48514000Y-92202000D01*
X50546000Y-94234000D02*
X49022000Y-94234000D01*
X51308000Y-94996000D02*
X50546000Y-94234000D01*
X51308000Y-98044000D02*
X51308000Y-94996000D01*
X48514000Y-93726000D02*
X48514000Y-92456000D01*
X49022000Y-94234000D02*
X48514000Y-93726000D01*
X30396000Y-33274000D02*
X32004000Y-33274000D01*
X32004000Y-33274000D02*
X32766000Y-34036000D01*
X32806000Y-33996000D02*
X34036000Y-33996000D01*
X32766000Y-34036000D02*
X32806000Y-33996000D01*
X69088000Y-33020000D02*
X69342000Y-33274000D01*
X73660000Y-29210000D02*
X73660000Y-28194000D01*
X72898000Y-29972000D02*
X73660000Y-29210000D01*
X73660000Y-28194000D02*
X74422000Y-27432000D01*
X74422000Y-27432000D02*
X79756000Y-27432000D01*
X80518000Y-28194000D02*
X80518000Y-30266000D01*
X79756000Y-27432000D02*
X80518000Y-28194000D01*
X49911000Y-99441000D02*
X51308000Y-98044000D01*
X49911000Y-104521000D02*
X49911000Y-99441000D01*
X50546000Y-105156000D02*
X49911000Y-104521000D01*
X57912000Y-105156000D02*
X50546000Y-105156000D01*
X58674000Y-104394000D02*
X57912000Y-105156000D01*
X58674000Y-102616000D02*
X58674000Y-104394000D01*
X37338000Y-87884000D02*
X38354000Y-87884000D01*
X38354000Y-87884000D02*
X39878000Y-89408000D01*
X41616000Y-89408000D02*
X42418000Y-88606000D01*
X39878000Y-89408000D02*
X41616000Y-89408000D01*
X34544000Y-51308000D02*
X32258000Y-51308000D01*
X32258000Y-51308000D02*
X27940000Y-51308000D01*
X65278000Y-35306000D02*
X68580000Y-35306000D01*
X69342000Y-34544000D02*
X69342000Y-33274000D01*
X68580000Y-35306000D02*
X69342000Y-34544000D01*
X105918000Y-29972000D02*
X107950000Y-29972000D01*
X107950000Y-29972000D02*
X108458000Y-30480000D01*
X108458000Y-30480000D02*
X110134400Y-30480000D01*
X41402000Y-41656000D02*
X41402000Y-40132000D01*
X41910000Y-42164000D02*
X41402000Y-41656000D01*
X44704000Y-45720000D02*
X44704000Y-42926000D01*
X43434000Y-46990000D02*
X44704000Y-45720000D01*
X43942000Y-42164000D02*
X41910000Y-42164000D01*
X40132000Y-46990000D02*
X43434000Y-46990000D01*
X44704000Y-42926000D02*
X43942000Y-42164000D01*
X39878000Y-47244000D02*
X40132000Y-46990000D01*
X35052000Y-47244000D02*
X39878000Y-47244000D01*
X34290000Y-48006000D02*
X35052000Y-47244000D01*
X34290000Y-49784000D02*
X34290000Y-48006000D01*
X32766000Y-51308000D02*
X34290000Y-49784000D01*
X32258000Y-51308000D02*
X32766000Y-51308000D01*
X45720000Y-86614000D02*
X45720000Y-86106000D01*
X45720000Y-86106000D02*
X43688000Y-84074000D01*
X43688000Y-84074000D02*
X42418000Y-84074000D01*
X42418000Y-84074000D02*
X41402000Y-83058000D01*
X41402000Y-83058000D02*
X41402000Y-78740000D01*
X41402000Y-78740000D02*
X42164000Y-77978000D01*
X42164000Y-77978000D02*
X42164000Y-68326000D01*
X42164000Y-68326000D02*
X42926000Y-67564000D01*
X42926000Y-67564000D02*
X44958000Y-67564000D01*
X44958000Y-67564000D02*
X46228000Y-66294000D01*
X46228000Y-66294000D02*
X46228000Y-61976000D01*
X42418000Y-88606000D02*
X44744000Y-88606000D01*
X45720000Y-87630000D02*
X45720000Y-86614000D01*
X44744000Y-88606000D02*
X45720000Y-87630000D01*
X97790000Y-70358000D02*
X97282000Y-69850000D01*
X105156000Y-72390000D02*
X105156000Y-70866000D01*
X107696000Y-74930000D02*
X105156000Y-72390000D01*
X104648000Y-70358000D02*
X97790000Y-70358000D01*
X105156000Y-70866000D02*
X104648000Y-70358000D01*
X109982000Y-74930000D02*
X107696000Y-74930000D01*
X110744000Y-75692000D02*
X109982000Y-74930000D01*
X110744000Y-76708000D02*
X110744000Y-75692000D01*
X114215000Y-80941000D02*
X113665000Y-80941000D01*
X114808000Y-81534000D02*
X114215000Y-80941000D01*
X114808000Y-88138000D02*
X114808000Y-81534000D01*
X113538000Y-89408000D02*
X114808000Y-88138000D01*
X110744000Y-78232000D02*
X110998000Y-78486000D01*
X110744000Y-76708000D02*
X110744000Y-78232000D01*
X113665000Y-80645000D02*
X111506000Y-78486000D01*
X113665000Y-80941000D02*
X113665000Y-80645000D01*
X110998000Y-78486000D02*
X111506000Y-78486000D01*
X98044000Y-68072000D02*
X97282000Y-68834000D01*
X97282000Y-69850000D02*
X97282000Y-68834000D01*
X110109000Y-78359000D02*
X110744000Y-78994000D01*
X77511582Y-74634418D02*
X78486000Y-73660000D01*
X77511582Y-81321582D02*
X77511582Y-74634418D01*
X76608991Y-82224173D02*
X77511582Y-81321582D01*
X78486000Y-73660000D02*
X79502000Y-73660000D01*
X76608990Y-83240174D02*
X76608991Y-82224173D01*
X74168000Y-85681164D02*
X76608990Y-83240174D01*
X74168000Y-92456000D02*
X74168000Y-85681164D01*
X74422000Y-92710000D02*
X74168000Y-92456000D01*
X75438000Y-92710000D02*
X74422000Y-92710000D01*
X77216000Y-94488000D02*
X75438000Y-92710000D01*
X112395000Y-80137000D02*
X111252000Y-78994000D01*
X112395000Y-80941000D02*
X112395000Y-80137000D01*
X110744000Y-78994000D02*
X111252000Y-78994000D01*
X110109000Y-76708000D02*
X110109000Y-78105000D01*
X110109000Y-78105000D02*
X110109000Y-78359000D01*
X103378000Y-82550000D02*
X104688000Y-83860000D01*
X103378000Y-79248000D02*
X103378000Y-82550000D01*
X104013000Y-78613000D02*
X103378000Y-79248000D01*
X104688000Y-83860000D02*
X105918000Y-83860000D01*
X109601000Y-78613000D02*
X104013000Y-78613000D01*
X110109000Y-78105000D02*
X109601000Y-78613000D01*
X114808000Y-76708000D02*
X114554000Y-76708000D01*
X115824000Y-91440000D02*
X115824000Y-77724000D01*
X116558010Y-92174010D02*
X115824000Y-91440000D01*
X116558010Y-105437990D02*
X116558010Y-92174010D01*
X115824000Y-116078000D02*
X115824000Y-106172000D01*
X74930000Y-119634000D02*
X74930000Y-122428000D01*
X74930000Y-122428000D02*
X75664010Y-123162010D01*
X75664010Y-123162010D02*
X99540010Y-123162010D01*
X99540010Y-123162010D02*
X100103990Y-123725990D01*
X100103990Y-123725990D02*
X107751174Y-123725990D01*
X108315154Y-123162010D02*
X109755990Y-123162010D01*
X109755990Y-123162010D02*
X111279990Y-121638010D01*
X115824000Y-106172000D02*
X116558010Y-105437990D01*
X116332000Y-120650000D02*
X116332000Y-116586000D01*
X115824000Y-77724000D02*
X114808000Y-76708000D01*
X107751174Y-123725990D02*
X108315154Y-123162010D01*
X111279990Y-121638010D02*
X112295990Y-121638010D01*
X116332000Y-116586000D02*
X115824000Y-116078000D01*
X112776000Y-121158000D02*
X115824000Y-121158000D01*
X112295990Y-121638010D02*
X112776000Y-121158000D01*
X115824000Y-121158000D02*
X116332000Y-120650000D01*
X59864000Y-106346000D02*
X59864000Y-110382000D01*
X59182000Y-105664000D02*
X59864000Y-106346000D01*
X48514000Y-105664000D02*
X59182000Y-105664000D01*
X48006000Y-105156000D02*
X48514000Y-105664000D01*
X48006000Y-101600000D02*
X48006000Y-105156000D01*
X27940000Y-89408000D02*
X30734000Y-86614000D01*
X31158030Y-86189970D02*
X39707970Y-86189970D01*
X30734000Y-86614000D02*
X31158030Y-86189970D01*
X39707970Y-86189970D02*
X39286030Y-86189970D01*
X36576000Y-80772000D02*
X36576000Y-74716000D01*
X37084000Y-81280000D02*
X36576000Y-80772000D01*
X36576000Y-74716000D02*
X37378000Y-73914000D01*
X39116000Y-81280000D02*
X37084000Y-81280000D01*
X40159990Y-82323990D02*
X39116000Y-81280000D01*
X40159990Y-85879990D02*
X40159990Y-82323990D01*
X39850010Y-86189970D02*
X40159990Y-85879990D01*
X39707970Y-86189970D02*
X39850010Y-86189970D01*
X73366000Y-112014000D02*
X73660000Y-112308000D01*
X67564000Y-112014000D02*
X73366000Y-112014000D01*
X70104000Y-116332000D02*
X71628000Y-114808000D01*
X74422000Y-122936000D02*
X70612000Y-122936000D01*
X75184000Y-123698000D02*
X74422000Y-122936000D01*
X75239980Y-123642020D02*
X75184000Y-123698000D01*
X99568000Y-124206000D02*
X99004020Y-123642020D01*
X107950000Y-124206000D02*
X99568000Y-124206000D01*
X108513980Y-123642020D02*
X107950000Y-124206000D01*
X109954816Y-123642020D02*
X108513980Y-123642020D01*
X111422836Y-122174000D02*
X109954816Y-123642020D01*
X99004020Y-123642020D02*
X75239980Y-123642020D01*
X112438836Y-122174000D02*
X111422836Y-122174000D01*
X112946836Y-121666000D02*
X112438836Y-122174000D01*
X116078000Y-121666000D02*
X112946836Y-121666000D01*
X113919000Y-75565000D02*
X114300000Y-75184000D01*
X114300000Y-75184000D02*
X115824000Y-75184000D01*
X71628000Y-114808000D02*
X73660000Y-114808000D01*
X115824000Y-75184000D02*
X116586000Y-75946000D01*
X117038020Y-91892020D02*
X117038020Y-105719980D01*
X116586000Y-75946000D02*
X116586000Y-91440000D01*
X113919000Y-76708000D02*
X113919000Y-75565000D01*
X116586000Y-91440000D02*
X117038020Y-91892020D01*
X117038020Y-105719980D02*
X116586000Y-106172000D01*
X70104000Y-122428000D02*
X70104000Y-116332000D01*
X116586000Y-106172000D02*
X116586000Y-116161164D01*
X116840000Y-120904000D02*
X116078000Y-121666000D01*
X70612000Y-122936000D02*
X70104000Y-122428000D01*
X116586000Y-116161164D02*
X116840000Y-116415164D01*
X116840000Y-116415164D02*
X116840000Y-120904000D01*
X36148000Y-105490000D02*
X35560000Y-104902000D01*
X36148000Y-110382000D02*
X36148000Y-107776000D01*
X35560000Y-107188000D02*
X35560000Y-104902000D01*
X36148000Y-107776000D02*
X35560000Y-107188000D01*
X35560000Y-102402000D02*
X35306000Y-102148000D01*
X27940000Y-97282000D02*
X27940000Y-99060000D01*
X27940000Y-99060000D02*
X28956000Y-100076000D01*
X34798000Y-100076000D02*
X35306000Y-100584000D01*
X28956000Y-100076000D02*
X34798000Y-100076000D01*
X35306000Y-102148000D02*
X35306000Y-100584000D01*
X41950000Y-94448000D02*
X41950000Y-93218000D01*
X39370000Y-97028000D02*
X41950000Y-94448000D01*
X37846000Y-97028000D02*
X39370000Y-97028000D01*
X49864000Y-110382000D02*
X49864000Y-109808000D01*
X49864000Y-109808000D02*
X46228000Y-106172000D01*
X46228000Y-106172000D02*
X44450000Y-106172000D01*
X44450000Y-106172000D02*
X43434000Y-105156000D01*
X43434000Y-105156000D02*
X43434000Y-97282000D01*
X44450000Y-96266000D02*
X44450000Y-93218000D01*
X43434000Y-97282000D02*
X44450000Y-96266000D01*
X52832000Y-89662000D02*
X52832000Y-88392000D01*
X52070000Y-90424000D02*
X52832000Y-89662000D01*
X51562000Y-90424000D02*
X50800000Y-90424000D01*
X53594000Y-92456000D02*
X51562000Y-90424000D01*
X50800000Y-90424000D02*
X52070000Y-90424000D01*
X41910000Y-117094000D02*
X41148000Y-116332000D01*
X31242000Y-90424000D02*
X32088000Y-90424000D01*
X30861000Y-91313000D02*
X30861000Y-90805000D01*
X30226000Y-91948000D02*
X30861000Y-91313000D01*
X30861000Y-90805000D02*
X31242000Y-90424000D01*
X32088000Y-90424000D02*
X33274000Y-90424000D01*
X34544000Y-91694000D02*
X37338000Y-91694000D01*
X33274000Y-90424000D02*
X34544000Y-91694000D01*
X23876000Y-92710000D02*
X24638000Y-91948000D01*
X23876000Y-93726000D02*
X23876000Y-92710000D01*
X24638000Y-91948000D02*
X30226000Y-91948000D01*
X41148000Y-90424000D02*
X50800000Y-90424000D01*
X37338000Y-92710000D02*
X37338000Y-91694000D01*
X36830000Y-93218000D02*
X37338000Y-92710000D01*
X32766000Y-94234000D02*
X33782000Y-93218000D01*
X41148000Y-90424000D02*
X40894000Y-90424000D01*
X40894000Y-90424000D02*
X39878000Y-91440000D01*
X34544000Y-99060000D02*
X30988000Y-99060000D01*
X39878000Y-91440000D02*
X39878000Y-93726000D01*
X33782000Y-93218000D02*
X36830000Y-93218000D01*
X39878000Y-93726000D02*
X38354000Y-95250000D01*
X38354000Y-95250000D02*
X36322000Y-95250000D01*
X30480000Y-98552000D02*
X30480000Y-95758000D01*
X36322000Y-95250000D02*
X35560000Y-96012000D01*
X35560000Y-96012000D02*
X35560000Y-98044000D01*
X35560000Y-98044000D02*
X34544000Y-99060000D01*
X30988000Y-99060000D02*
X30480000Y-98552000D01*
X30480000Y-95758000D02*
X32004000Y-94234000D01*
X32004000Y-94234000D02*
X32766000Y-94234000D01*
X93218000Y-51460400D02*
X93370400Y-51308000D01*
X93472000Y-51409600D02*
X93370400Y-51308000D01*
X93472000Y-55118000D02*
X93472000Y-51409600D01*
X24638000Y-60706000D02*
X23876000Y-59944000D01*
X25908000Y-60706000D02*
X24638000Y-60706000D01*
X23876000Y-52832000D02*
X23368000Y-52324000D01*
X23876000Y-59944000D02*
X23876000Y-52832000D01*
X23622000Y-52578000D02*
X23368000Y-52324000D01*
X22098000Y-51054000D02*
X22098000Y-49530000D01*
X23368000Y-52324000D02*
X22098000Y-51054000D01*
X25908000Y-61468000D02*
X25908000Y-60706000D01*
X25146000Y-62230000D02*
X25908000Y-61468000D01*
X19812000Y-62738000D02*
X20320000Y-62230000D01*
X19812000Y-121412000D02*
X19812000Y-62738000D01*
X33274000Y-122428000D02*
X20828000Y-122428000D01*
X20320000Y-62230000D02*
X25146000Y-62230000D01*
X20828000Y-122428000D02*
X19812000Y-121412000D01*
X34290000Y-121412000D02*
X33274000Y-122428000D01*
X34290000Y-108458000D02*
X34290000Y-121412000D01*
X33274000Y-107442000D02*
X34290000Y-108458000D01*
X30480000Y-107442000D02*
X33274000Y-107442000D01*
X29678000Y-108244000D02*
X30480000Y-107442000D01*
X29678000Y-110382000D02*
X29678000Y-108244000D01*
X22860000Y-85090000D02*
X22860000Y-83820000D01*
X22860000Y-83820000D02*
X23368000Y-83312000D01*
X23368000Y-83312000D02*
X29464000Y-83312000D01*
X29464000Y-83312000D02*
X29972000Y-82804000D01*
X26670000Y-78232000D02*
X26670000Y-77978000D01*
X26670000Y-78740000D02*
X27178000Y-79248000D01*
X29464000Y-79248000D02*
X27178000Y-79248000D01*
X26670000Y-78740000D02*
X26670000Y-77978000D01*
X32088000Y-87884000D02*
X30988000Y-87884000D01*
X30226000Y-89237164D02*
X29718000Y-89745164D01*
X30226000Y-88646000D02*
X30226000Y-89237164D01*
X30988000Y-87884000D02*
X30226000Y-88646000D01*
X29718000Y-89745164D02*
X29718000Y-90424000D01*
X29718000Y-90424000D02*
X29210000Y-90932000D01*
X29210000Y-90932000D02*
X26924000Y-90932000D01*
X26924000Y-90932000D02*
X25908000Y-89916000D01*
X25908000Y-89916000D02*
X25908000Y-88138000D01*
X25908000Y-88138000D02*
X26670000Y-87376000D01*
X26670000Y-87376000D02*
X29210000Y-87376000D01*
X29210000Y-87376000D02*
X29972000Y-86614000D01*
X29972000Y-86614000D02*
X29972000Y-82550000D01*
X29972000Y-82550000D02*
X29972000Y-79756000D01*
X29972000Y-82804000D02*
X29972000Y-82550000D01*
X22606000Y-74930000D02*
X24130000Y-76454000D01*
X26162000Y-76454000D02*
X26670000Y-75946000D01*
X29972000Y-79756000D02*
X29464000Y-79248000D01*
X26670000Y-76708000D02*
X26416000Y-76454000D01*
X26670000Y-77978000D02*
X26670000Y-76708000D01*
X24130000Y-76454000D02*
X26416000Y-76454000D01*
X37338000Y-89154000D02*
X36830000Y-89154000D01*
X40640000Y-80010000D02*
X39624000Y-78994000D01*
X40640000Y-86868000D02*
X40640000Y-80010000D01*
X39116000Y-87376000D02*
X40132000Y-87376000D01*
X38608000Y-86868000D02*
X39116000Y-87376000D01*
X39624000Y-78994000D02*
X38354000Y-78994000D01*
X35814000Y-86868000D02*
X38608000Y-86868000D01*
X35306000Y-87376000D02*
X35814000Y-86868000D01*
X35306000Y-88392000D02*
X35306000Y-87376000D01*
X40132000Y-87376000D02*
X40640000Y-86868000D01*
X36068000Y-89154000D02*
X35306000Y-88392000D01*
X37338000Y-89154000D02*
X36068000Y-89154000D01*
X41910000Y-55372000D02*
X41910000Y-54356000D01*
X40894000Y-60198000D02*
X40894000Y-56388000D01*
X40894000Y-56388000D02*
X41910000Y-55372000D01*
X37592000Y-69088000D02*
X37592000Y-62230000D01*
X35560000Y-71120000D02*
X37592000Y-69088000D01*
X38354000Y-61468000D02*
X39624000Y-61468000D01*
X37592000Y-62230000D02*
X38354000Y-61468000D01*
X35052000Y-78486000D02*
X35560000Y-77978000D01*
X33528000Y-78486000D02*
X35052000Y-78486000D01*
X32298000Y-79716000D02*
X33528000Y-78486000D01*
X39624000Y-61468000D02*
X40894000Y-60198000D01*
X32298000Y-81788000D02*
X32298000Y-79716000D01*
X35560000Y-77978000D02*
X35560000Y-71120000D01*
X30480000Y-65278000D02*
X30480000Y-63754000D01*
X23154000Y-62992000D02*
X23134000Y-63012000D01*
X30480000Y-63754000D02*
X29718000Y-62992000D01*
X22606000Y-62992000D02*
X23622000Y-62992000D01*
X21590000Y-64008000D02*
X22606000Y-62992000D01*
X23622000Y-62992000D02*
X23154000Y-62992000D01*
X29718000Y-62992000D02*
X23622000Y-62992000D01*
X57150000Y-63246000D02*
X58166000Y-64262000D01*
X54102000Y-63246000D02*
X57150000Y-63246000D01*
X25908000Y-53086000D02*
X29210000Y-53086000D01*
X103505000Y-92583000D02*
X103124000Y-92202000D01*
X103505000Y-94256000D02*
X103505000Y-92583000D01*
X91440000Y-98806000D02*
X91440000Y-98044000D01*
X91440000Y-98806000D02*
X91440000Y-93218000D01*
X92456000Y-92202000D02*
X98298000Y-92202000D01*
X91440000Y-93218000D02*
X92456000Y-92202000D01*
X98298000Y-92202000D02*
X97536000Y-92202000D01*
X103124000Y-92202000D02*
X98298000Y-92202000D01*
X78740000Y-117602000D02*
X79756000Y-116586000D01*
X79756000Y-116586000D02*
X82804000Y-116586000D01*
X82804000Y-114046000D02*
X81280000Y-114046000D01*
X79756000Y-112522000D02*
X78740000Y-112522000D01*
X81280000Y-114046000D02*
X79756000Y-112522000D01*
X82804000Y-111506000D02*
X82550000Y-111760000D01*
X81534000Y-107696000D02*
X82804000Y-108966000D01*
X78740000Y-107696000D02*
X81534000Y-107696000D01*
X56134000Y-82042000D02*
X56134000Y-97282000D01*
X57404000Y-80772000D02*
X56134000Y-82042000D01*
X67818000Y-80772000D02*
X57404000Y-80772000D01*
X69596000Y-78994000D02*
X67818000Y-80772000D01*
X56134000Y-97282000D02*
X58674000Y-99822000D01*
X58674000Y-99822000D02*
X58701990Y-99849990D01*
X76962000Y-59436000D02*
X76962000Y-59944000D01*
X76200000Y-58674000D02*
X76962000Y-59436000D01*
X77978000Y-60960000D02*
X79502000Y-60960000D01*
X72390000Y-59436000D02*
X73152000Y-58674000D01*
X72390000Y-74168000D02*
X72390000Y-59436000D01*
X76962000Y-59944000D02*
X77978000Y-60960000D01*
X73152000Y-58674000D02*
X76200000Y-58674000D01*
X70866000Y-75692000D02*
X72390000Y-74168000D01*
X70866000Y-77724000D02*
X70866000Y-75692000D01*
X69596000Y-78994000D02*
X70866000Y-77724000D01*
X72390000Y-97536000D02*
X72390000Y-98552000D01*
X70358000Y-96520000D02*
X71374000Y-96520000D01*
X71374000Y-96520000D02*
X72390000Y-97536000D01*
X66040000Y-96012000D02*
X69850000Y-96012000D01*
X69850000Y-96012000D02*
X70358000Y-96520000D01*
X65532000Y-99314000D02*
X65532000Y-96520000D01*
X65024000Y-99822000D02*
X65532000Y-99314000D01*
X65532000Y-96520000D02*
X66040000Y-96012000D01*
X58674000Y-99822000D02*
X65024000Y-99822000D01*
X83566000Y-99060000D02*
X84074000Y-99060000D01*
X84328000Y-99060000D02*
X83566000Y-99060000D01*
X84582000Y-100838000D02*
X84582000Y-99314000D01*
X85852000Y-102108000D02*
X84582000Y-100838000D01*
X85852000Y-106680000D02*
X85852000Y-102108000D01*
X84582000Y-99314000D02*
X84328000Y-99060000D01*
X86868000Y-107696000D02*
X85852000Y-106680000D01*
X90678000Y-107696000D02*
X86868000Y-107696000D01*
X91186000Y-107188000D02*
X90678000Y-107696000D01*
X91186000Y-104902000D02*
X91186000Y-107188000D01*
X90932000Y-89662000D02*
X90932000Y-88138000D01*
X90932000Y-88138000D02*
X90170000Y-87376000D01*
X90170000Y-87376000D02*
X87122000Y-87376000D01*
X87122000Y-87376000D02*
X85344000Y-85598000D01*
X85344000Y-85598000D02*
X85090000Y-85598000D01*
X83312000Y-83820000D02*
X83312000Y-71374000D01*
X85090000Y-85598000D02*
X83312000Y-83820000D01*
X87630000Y-122174000D02*
X88392000Y-121412000D01*
X88392000Y-121412000D02*
X88392000Y-115570000D01*
X87376000Y-114554000D02*
X86614000Y-114554000D01*
X88392000Y-115570000D02*
X87376000Y-114554000D01*
X80010000Y-122174000D02*
X87630000Y-122174000D01*
X79248000Y-122174000D02*
X80010000Y-122174000D01*
X77978000Y-71120000D02*
X79502000Y-71120000D01*
X75946000Y-81788000D02*
X76708000Y-81026000D01*
X76708000Y-81026000D02*
X76708000Y-72390000D01*
X75946000Y-82804000D02*
X75946000Y-81788000D01*
X76708000Y-72390000D02*
X77978000Y-71120000D01*
X74930000Y-98806000D02*
X74930000Y-94488000D01*
X76962000Y-100838000D02*
X74930000Y-98806000D01*
X76962000Y-121158000D02*
X76962000Y-100838000D01*
X73406000Y-85344000D02*
X75946000Y-82804000D01*
X74930000Y-94488000D02*
X73406000Y-92964000D01*
X77978000Y-122174000D02*
X76962000Y-121158000D01*
X73406000Y-92964000D02*
X73406000Y-85344000D01*
X80010000Y-122174000D02*
X77978000Y-122174000D01*
X93472000Y-87630000D02*
X93472000Y-89662000D01*
X92710000Y-86868000D02*
X93472000Y-87630000D01*
X89662000Y-86868000D02*
X92710000Y-86868000D01*
X88900000Y-86106000D02*
X89662000Y-86868000D01*
X88900000Y-79502000D02*
X88900000Y-86106000D01*
X88138000Y-78740000D02*
X88900000Y-79502000D01*
X87122000Y-78740000D02*
X88138000Y-78740000D01*
X96520000Y-86360000D02*
X98552000Y-88392000D01*
X90170000Y-86360000D02*
X96520000Y-86360000D01*
X89662000Y-85852000D02*
X90170000Y-86360000D01*
X89662000Y-83820000D02*
X89662000Y-85852000D01*
X89408000Y-83566000D02*
X89662000Y-83820000D01*
X89408000Y-77216000D02*
X89408000Y-83566000D01*
X88392000Y-76200000D02*
X89408000Y-77216000D01*
X87122000Y-76200000D02*
X88392000Y-76200000D01*
X63246000Y-56388000D02*
X65278000Y-56388000D01*
X67564000Y-54102000D02*
X68834000Y-54102000D01*
X65278000Y-56388000D02*
X67564000Y-54102000D01*
X74930000Y-63500000D02*
X79502000Y-63500000D01*
X74930000Y-66040000D02*
X79502000Y-66040000D01*
X58634000Y-85892000D02*
X58674000Y-85852000D01*
X70612000Y-102616000D02*
X70612000Y-101346000D01*
X68326000Y-99060000D02*
X68326000Y-97790000D01*
X70612000Y-101346000D02*
X68326000Y-99060000D01*
X58674000Y-87884000D02*
X59944000Y-87884000D01*
X59944000Y-87884000D02*
X60960000Y-86868000D01*
X60960000Y-86868000D02*
X60960000Y-83820000D01*
X61468000Y-83312000D02*
X62992000Y-83312000D01*
X60960000Y-83820000D02*
X61468000Y-83312000D01*
X62992000Y-88392000D02*
X64516000Y-88392000D01*
X64516000Y-88392000D02*
X65278000Y-87630000D01*
X65278000Y-87630000D02*
X65278000Y-83820000D01*
X65786000Y-83312000D02*
X67056000Y-83312000D01*
X65278000Y-83820000D02*
X65786000Y-83312000D01*
X58674000Y-90424000D02*
X59944000Y-90424000D01*
X61976000Y-88392000D02*
X62992000Y-88392000D01*
X59944000Y-90424000D02*
X61976000Y-88392000D01*
X58674000Y-92964000D02*
X59944000Y-92964000D01*
X59944000Y-92964000D02*
X60706000Y-92202000D01*
X67056000Y-88392000D02*
X67056000Y-90932000D01*
X67056000Y-90932000D02*
X65786000Y-92202000D01*
X60706000Y-92202000D02*
X65786000Y-92202000D01*
X67818000Y-92964000D02*
X67056000Y-92202000D01*
X67818000Y-94234000D02*
X67818000Y-92964000D01*
X65786000Y-92202000D02*
X67056000Y-92202000D01*
X61468000Y-95504000D02*
X62738000Y-94234000D01*
X58674000Y-95504000D02*
X61468000Y-95504000D01*
X108204000Y-111760000D02*
X108458000Y-111760000D01*
X108458000Y-111760000D02*
X109982000Y-111760000D01*
X110998000Y-103483000D02*
X111125000Y-103356000D01*
X110998000Y-110744000D02*
X110998000Y-103483000D01*
X109982000Y-111760000D02*
X110998000Y-110744000D01*
X103378000Y-115280000D02*
X104104000Y-114554000D01*
X104104000Y-114554000D02*
X104140000Y-114554000D01*
X105664000Y-113030000D02*
X105664000Y-112014000D01*
X104140000Y-114554000D02*
X105664000Y-113030000D01*
X105918000Y-111760000D02*
X107188000Y-111760000D01*
X105664000Y-112014000D02*
X105918000Y-111760000D01*
X107188000Y-111760000D02*
X108458000Y-111760000D01*
X109855000Y-104521000D02*
X109855000Y-103356000D01*
X110490000Y-105156000D02*
X109855000Y-104521000D01*
X105255010Y-110644990D02*
X105664000Y-110236000D01*
X108966000Y-110236000D02*
X110490000Y-108712000D01*
X105664000Y-110236000D02*
X108966000Y-110236000D01*
X110490000Y-108712000D02*
X110490000Y-105156000D01*
X105255010Y-111577826D02*
X105255010Y-110644990D01*
X104648000Y-112184836D02*
X105255010Y-111577826D01*
X104648000Y-112776000D02*
X104648000Y-112184836D01*
X104084000Y-113340000D02*
X104648000Y-112776000D01*
X103378000Y-113340000D02*
X104084000Y-113340000D01*
X53086000Y-76454000D02*
X53340000Y-76200000D01*
X49530000Y-76454000D02*
X53086000Y-76454000D01*
X53340000Y-76200000D02*
X54102000Y-75438000D01*
X51054000Y-74930000D02*
X49530000Y-76454000D01*
X51562000Y-74422000D02*
X51054000Y-74930000D01*
X50800000Y-66548000D02*
X51562000Y-67310000D01*
X51562000Y-67310000D02*
X51562000Y-74422000D01*
X49276000Y-66548000D02*
X50800000Y-66548000D01*
X83566000Y-39878000D02*
X81026000Y-37338000D01*
X81026000Y-37338000D02*
X78994000Y-37338000D01*
X87122000Y-84074000D02*
X87122000Y-83820000D01*
X88900000Y-62992000D02*
X88392000Y-63500000D01*
X88419990Y-47779990D02*
X88900000Y-48260000D01*
X78005990Y-47779990D02*
X88419990Y-47779990D01*
X77497990Y-48287990D02*
X78005990Y-47779990D01*
X77442010Y-48287990D02*
X77497990Y-48287990D01*
X76962000Y-48768000D02*
X77442010Y-48287990D01*
X76962000Y-52578000D02*
X76962000Y-48768000D01*
X88392000Y-63500000D02*
X87122000Y-63500000D01*
X75946000Y-53594000D02*
X76962000Y-52578000D01*
X71628000Y-53594000D02*
X75946000Y-53594000D01*
X71120000Y-53086000D02*
X71628000Y-53594000D01*
X52578000Y-50038000D02*
X53594000Y-51054000D01*
X53594000Y-51054000D02*
X54610000Y-51054000D01*
X70175020Y-49855020D02*
X71120000Y-50800000D01*
X55372000Y-53594000D02*
X56134000Y-54356000D01*
X54610000Y-51054000D02*
X55372000Y-51816000D01*
X66040000Y-50800000D02*
X66984980Y-49855020D01*
X66984980Y-49855020D02*
X70175020Y-49855020D01*
X55372000Y-51816000D02*
X55372000Y-53594000D01*
X71120000Y-50800000D02*
X71120000Y-53086000D01*
X56134000Y-54356000D02*
X65786000Y-54356000D01*
X52578000Y-48514000D02*
X52578000Y-50038000D01*
X65786000Y-54356000D02*
X66040000Y-54102000D01*
X88900000Y-48260000D02*
X88900000Y-62992000D01*
X66040000Y-54102000D02*
X66040000Y-50800000D01*
X71120000Y-74168000D02*
X71374000Y-73914000D01*
X53086000Y-58928000D02*
X52832000Y-59182000D01*
X67056000Y-75692000D02*
X65532000Y-74168000D01*
X69596000Y-75692000D02*
X67056000Y-75692000D01*
X71374000Y-73914000D02*
X69596000Y-75692000D01*
X65532000Y-74168000D02*
X65532000Y-59944000D01*
X65532000Y-59944000D02*
X65532000Y-59690000D01*
X65024000Y-59182000D02*
X52832000Y-59182000D01*
X65532000Y-59690000D02*
X65024000Y-59182000D01*
X76481990Y-58193990D02*
X72616010Y-58193990D01*
X71374000Y-59436000D02*
X71374000Y-73914000D01*
X77470000Y-57205980D02*
X76481990Y-58193990D01*
X77470000Y-49276000D02*
X77470000Y-57205980D01*
X80899000Y-48895000D02*
X77851000Y-48895000D01*
X82042000Y-50038000D02*
X80899000Y-48895000D01*
X82042000Y-57404000D02*
X82042000Y-50038000D01*
X83058000Y-58420000D02*
X82042000Y-57404000D01*
X72616010Y-58193990D02*
X71374000Y-59436000D01*
X77851000Y-48895000D02*
X77470000Y-49276000D01*
X87122000Y-58420000D02*
X83058000Y-58420000D01*
X32088000Y-89154000D02*
X31496000Y-89154000D01*
X24892000Y-85598000D02*
X25400000Y-85090000D01*
X25400000Y-85090000D02*
X25400000Y-86868000D01*
X24892000Y-87376000D02*
X24892000Y-88392000D01*
X25400000Y-86868000D02*
X24892000Y-87376000D01*
X24892000Y-88392000D02*
X24892000Y-88138000D01*
X30380990Y-89761010D02*
X30988000Y-89154000D01*
X30380990Y-91031010D02*
X30380990Y-89761010D01*
X29972000Y-91440000D02*
X30380990Y-91031010D01*
X30988000Y-89154000D02*
X32088000Y-89154000D01*
X25146000Y-91440000D02*
X29972000Y-91440000D01*
X24892000Y-91186000D02*
X25146000Y-91440000D01*
X24892000Y-88392000D02*
X24892000Y-91186000D01*
X65532000Y-102616000D02*
X67056000Y-102616000D01*
X64008000Y-104140000D02*
X65532000Y-102616000D01*
X64008000Y-112014000D02*
X64008000Y-104140000D01*
X65786000Y-102616000D02*
X67056000Y-102616000D01*
X63500000Y-100330000D02*
X65786000Y-102616000D01*
X58166000Y-100330000D02*
X63500000Y-100330000D01*
X55626000Y-97790000D02*
X58166000Y-100330000D01*
X53848000Y-97790000D02*
X55626000Y-97790000D01*
X53594000Y-97536000D02*
X53848000Y-97790000D01*
X53594000Y-96012000D02*
X53594000Y-97536000D01*
X22098000Y-91440000D02*
X25146000Y-91440000D01*
X21336000Y-92202000D02*
X22098000Y-91440000D01*
X29718000Y-95504000D02*
X22098000Y-95504000D01*
X29972000Y-95758000D02*
X29718000Y-95504000D01*
X29972000Y-98806000D02*
X29972000Y-95758000D01*
X30734000Y-99568000D02*
X29972000Y-98806000D01*
X21336000Y-94742000D02*
X21336000Y-92202000D01*
X36068000Y-99568000D02*
X30734000Y-99568000D01*
X22098000Y-95504000D02*
X21336000Y-94742000D01*
X36830000Y-100330000D02*
X36068000Y-99568000D01*
X40386000Y-100330000D02*
X36830000Y-100330000D01*
X41656000Y-99060000D02*
X40386000Y-100330000D01*
X21336000Y-97028000D02*
X21082000Y-96774000D01*
X20828000Y-87884000D02*
X20828000Y-82042000D01*
X21590000Y-81280000D02*
X22860000Y-81280000D01*
X20828000Y-82042000D02*
X21590000Y-81280000D01*
X21590000Y-97282000D02*
X21336000Y-97028000D01*
X22860000Y-97282000D02*
X21590000Y-97282000D01*
X21082000Y-96774000D02*
X20828000Y-96520000D01*
X20828000Y-90424000D02*
X20828000Y-90170000D01*
X20828000Y-96520000D02*
X20828000Y-90424000D01*
X20828000Y-90424000D02*
X20828000Y-87884000D01*
X21590000Y-89408000D02*
X22860000Y-89408000D01*
X20828000Y-90170000D02*
X21590000Y-89408000D01*
X37338000Y-90424000D02*
X36576000Y-90424000D01*
X38608000Y-90424000D02*
X37338000Y-90424000D01*
X39116000Y-90932000D02*
X38608000Y-90424000D01*
X39116000Y-92964000D02*
X39116000Y-90932000D01*
X38100000Y-93980000D02*
X39116000Y-92964000D01*
X34036000Y-93980000D02*
X38100000Y-93980000D01*
X32766000Y-95250000D02*
X33020000Y-94996000D01*
X32766000Y-97028000D02*
X32766000Y-95250000D01*
X33020000Y-94996000D02*
X34036000Y-93980000D01*
X41656000Y-49530000D02*
X41910000Y-49276000D01*
X36576000Y-49530000D02*
X41656000Y-49530000D01*
X26924000Y-68326000D02*
X26670000Y-68072000D01*
X81026000Y-58420000D02*
X79502000Y-58420000D01*
X81788000Y-59182000D02*
X81026000Y-58420000D01*
X81788000Y-84836000D02*
X81788000Y-59182000D01*
X81280000Y-85344000D02*
X81788000Y-84836000D01*
X106045000Y-94256000D02*
X106045000Y-98679000D01*
X96561582Y-100625582D02*
X94021582Y-100625582D01*
X106045000Y-98679000D02*
X105410000Y-99314000D01*
X105410000Y-99314000D02*
X97873164Y-99314000D01*
X97873164Y-99314000D02*
X96561582Y-100625582D01*
X94021582Y-100625582D02*
X93047164Y-101600000D01*
X93047164Y-101600000D02*
X88138000Y-101600000D01*
X82478980Y-95686980D02*
X81280000Y-94488000D01*
X86360000Y-99822000D02*
X86360000Y-96266000D01*
X86360000Y-96266000D02*
X85780980Y-95686980D01*
X88138000Y-101600000D02*
X86360000Y-99822000D01*
X85780980Y-95686980D02*
X82478980Y-95686980D01*
X81280000Y-94488000D02*
X81280000Y-85344000D01*
X107315000Y-91059000D02*
X106426000Y-90170000D01*
X107315000Y-94256000D02*
X107315000Y-91059000D01*
X108585000Y-94256000D02*
X108585000Y-95885000D01*
X108585000Y-95885000D02*
X109728000Y-97028000D01*
X111760000Y-99822000D02*
X98044000Y-99822000D01*
X109728000Y-97028000D02*
X111760000Y-97028000D01*
X111760000Y-97028000D02*
X112776000Y-98044000D01*
X112776000Y-98044000D02*
X112776000Y-98806000D01*
X112776000Y-98806000D02*
X111760000Y-99822000D01*
X97028000Y-100838000D02*
X96801990Y-101064010D01*
X98044000Y-99822000D02*
X97028000Y-100838000D01*
X93726000Y-102108000D02*
X94615000Y-101219000D01*
X87630000Y-102108000D02*
X93726000Y-102108000D01*
X85852000Y-96774000D02*
X85852000Y-100330000D01*
X85344000Y-96266000D02*
X85852000Y-96774000D01*
X94615000Y-101219000D02*
X96647000Y-101219000D01*
X82042000Y-96266000D02*
X85344000Y-96266000D01*
X96647000Y-101219000D02*
X97028000Y-100838000D01*
X80772000Y-94996000D02*
X82042000Y-96266000D01*
X80772000Y-85090000D02*
X80772000Y-94996000D01*
X81280000Y-84582000D02*
X80772000Y-85090000D01*
X81280000Y-77978000D02*
X81280000Y-84582000D01*
X85852000Y-100330000D02*
X87630000Y-102108000D01*
X79502000Y-76200000D02*
X81280000Y-77978000D01*
X111125000Y-95631000D02*
X111125000Y-94256000D01*
X112014000Y-96520000D02*
X111125000Y-95631000D01*
X114554000Y-97028000D02*
X114046000Y-96520000D01*
X113510010Y-100357990D02*
X114554000Y-99314000D01*
X114554000Y-99314000D02*
X114554000Y-97028000D01*
X114046000Y-96520000D02*
X112014000Y-96520000D01*
X98270010Y-100357990D02*
X113510010Y-100357990D01*
X97536000Y-101092000D02*
X98270010Y-100357990D01*
X97282000Y-101346000D02*
X97536000Y-101092000D01*
X96774000Y-101854000D02*
X97536000Y-101092000D01*
X96520000Y-105918000D02*
X96774000Y-105664000D01*
X79502000Y-83820000D02*
X79502000Y-85090000D01*
X80264000Y-85852000D02*
X80264000Y-95758000D01*
X87122000Y-102616000D02*
X92456000Y-102616000D01*
X80264000Y-95758000D02*
X81280000Y-96774000D01*
X93472000Y-105918000D02*
X96520000Y-105918000D01*
X96774000Y-105664000D02*
X96774000Y-101854000D01*
X81280000Y-96774000D02*
X84582000Y-96774000D01*
X79502000Y-85090000D02*
X80264000Y-85852000D01*
X85090000Y-97282000D02*
X85090000Y-100584000D01*
X93218000Y-103378000D02*
X93218000Y-105664000D01*
X92456000Y-102616000D02*
X93218000Y-103378000D01*
X84582000Y-96774000D02*
X85090000Y-97282000D01*
X85090000Y-100584000D02*
X87122000Y-102616000D01*
X93218000Y-105664000D02*
X93472000Y-105918000D01*
X113665000Y-104775000D02*
X113665000Y-103356000D01*
X113538000Y-113284000D02*
X112268000Y-113284000D01*
X112268000Y-113284000D02*
X111506000Y-112522000D01*
X111506000Y-112522000D02*
X111506000Y-106426000D01*
X112522000Y-105410000D02*
X113030000Y-105410000D01*
X111506000Y-106426000D02*
X112522000Y-105410000D01*
X113030000Y-105410000D02*
X113665000Y-104775000D01*
X114935000Y-105029000D02*
X114935000Y-103356000D01*
X113538000Y-106426000D02*
X114427000Y-105537000D01*
X113538000Y-108204000D02*
X113538000Y-106426000D01*
X114427000Y-105537000D02*
X114935000Y-105029000D01*
X114300000Y-105664000D02*
X114427000Y-105537000D01*
X69596000Y-88138000D02*
X71374000Y-88138000D01*
X69596000Y-80772000D02*
X69088000Y-81280000D01*
X70358000Y-80772000D02*
X69596000Y-80772000D01*
X71628000Y-79502000D02*
X70358000Y-80772000D01*
X71628000Y-76454000D02*
X71628000Y-79502000D01*
X69088000Y-87630000D02*
X69596000Y-88138000D01*
X73406000Y-74676000D02*
X71628000Y-76454000D01*
X73406000Y-70104000D02*
X73406000Y-74676000D01*
X69088000Y-81280000D02*
X69088000Y-87630000D01*
X74930000Y-68580000D02*
X73406000Y-70104000D01*
X61468000Y-66294000D02*
X62992000Y-66294000D01*
X60452000Y-67310000D02*
X61468000Y-66294000D01*
X60452000Y-69342000D02*
X60452000Y-67310000D01*
X60452000Y-69596000D02*
X60452000Y-69342000D01*
X58166000Y-77724000D02*
X58166000Y-76454000D01*
X60452000Y-74168000D02*
X60452000Y-69850000D01*
X58166000Y-76454000D02*
X60452000Y-74168000D01*
X60452000Y-69850000D02*
X60452000Y-69342000D01*
X60452000Y-70358000D02*
X60452000Y-69850000D01*
X62992000Y-66294000D02*
X60706000Y-64008000D01*
X60706000Y-61254000D02*
X61000000Y-60960000D01*
X60706000Y-64008000D02*
X60706000Y-61254000D01*
X47498000Y-43220000D02*
X47498000Y-42672000D01*
X43434000Y-36322000D02*
X43434000Y-35306000D01*
X44196000Y-37084000D02*
X43434000Y-36322000D01*
X44704000Y-37084000D02*
X44196000Y-37084000D01*
X45466000Y-37846000D02*
X44704000Y-37084000D01*
X47498000Y-37846000D02*
X45466000Y-37846000D01*
X48260000Y-38608000D02*
X47498000Y-37846000D01*
X48260000Y-42418000D02*
X48260000Y-38608000D01*
X48280000Y-42438000D02*
X48260000Y-42418000D01*
X47498000Y-43220000D02*
X48280000Y-42438000D01*
X21590000Y-54864000D02*
X21082000Y-54864000D01*
X21082000Y-54864000D02*
X19812000Y-53594000D01*
X19812000Y-53594000D02*
X19812000Y-48768000D01*
X19812000Y-48768000D02*
X20828000Y-47752000D01*
X20828000Y-47752000D02*
X30734000Y-47752000D01*
X31496000Y-48514000D02*
X30734000Y-47752000D01*
X31496000Y-49530000D02*
X31496000Y-48514000D01*
X28916000Y-76454000D02*
X28916000Y-74128000D01*
X32178000Y-120476000D02*
X32178000Y-110382000D01*
X20292010Y-120622010D02*
X21336000Y-121666000D01*
X21336000Y-121666000D02*
X30988000Y-121666000D01*
X20292010Y-78204010D02*
X20292010Y-120622010D01*
X20347990Y-74648010D02*
X20347990Y-78204010D01*
X30988000Y-121666000D02*
X32178000Y-120476000D01*
X20347990Y-78204010D02*
X20292010Y-78204010D01*
X28194000Y-73406000D02*
X28321000Y-73533000D01*
X21590000Y-73406000D02*
X28194000Y-73406000D01*
X28916000Y-74128000D02*
X28321000Y-73533000D01*
X21590000Y-73406000D02*
X20347990Y-74648010D01*
X68410000Y-39878000D02*
X68410000Y-38608000D01*
X65278000Y-38608000D02*
X64516000Y-39370000D01*
X68410000Y-38608000D02*
X65278000Y-38608000D01*
X73660000Y-41148000D02*
X74930000Y-41148000D01*
X74930000Y-41148000D02*
X75946000Y-40132000D01*
X75946000Y-33274000D02*
X76454000Y-32766000D01*
X75946000Y-40132000D02*
X75946000Y-33274000D01*
X73660000Y-41148000D02*
X70612000Y-41148000D01*
X70612000Y-41148000D02*
X70104000Y-40640000D01*
X70104000Y-36576000D02*
X69596000Y-36068000D01*
X70104000Y-40640000D02*
X70104000Y-36576000D01*
X69596000Y-36068000D02*
X67056000Y-36068000D01*
X67056000Y-36068000D02*
X65786000Y-37338000D01*
X64770000Y-37338000D02*
X64008000Y-37338000D01*
X65786000Y-37338000D02*
X64770000Y-37338000D01*
X64742010Y-37365990D02*
X64770000Y-37338000D01*
X64035990Y-37365990D02*
X64742010Y-37365990D01*
X63754000Y-37084000D02*
X64035990Y-37365990D01*
X63754000Y-31242000D02*
X63754000Y-37084000D01*
X48514000Y-31496000D02*
X48514000Y-30226000D01*
X48514000Y-30226000D02*
X49276000Y-29464000D01*
X49276000Y-29464000D02*
X61976000Y-29464000D01*
X62738000Y-30226000D02*
X63754000Y-31242000D01*
X61976000Y-29464000D02*
X62738000Y-30226000D01*
X62484000Y-29972000D02*
X62738000Y-30226000D01*
X73660000Y-37338000D02*
X73660000Y-36068000D01*
X73660000Y-36068000D02*
X74422000Y-35306000D01*
X74422000Y-35306000D02*
X74422000Y-30988000D01*
X75184000Y-30226000D02*
X76454000Y-30226000D01*
X74422000Y-30988000D02*
X75184000Y-30226000D01*
X39116000Y-59182000D02*
X40132000Y-58166000D01*
X37592000Y-59182000D02*
X39116000Y-59182000D01*
X40132000Y-53423164D02*
X40427582Y-53127582D01*
X40132000Y-58166000D02*
X40132000Y-53423164D01*
X40215164Y-53340000D02*
X40427582Y-53127582D01*
X45212000Y-41402000D02*
X46482000Y-40132000D01*
X45212000Y-49022000D02*
X45212000Y-41402000D01*
X44477990Y-49756010D02*
X45212000Y-49022000D01*
X43138418Y-52365582D02*
X44477990Y-51026010D01*
X41189582Y-52365582D02*
X43138418Y-52365582D01*
X44477990Y-51026010D02*
X44477990Y-49756010D01*
X40427582Y-53127582D02*
X41189582Y-52365582D01*
X50800000Y-34036000D02*
X50800000Y-37084000D01*
X50292000Y-33528000D02*
X50800000Y-34036000D01*
X48006000Y-33528000D02*
X50292000Y-33528000D01*
X41148000Y-37338000D02*
X41148000Y-29972000D01*
X41656000Y-37846000D02*
X41148000Y-37338000D01*
X66294000Y-37846000D02*
X66802000Y-37338000D01*
X44450000Y-37846000D02*
X41656000Y-37846000D01*
X46482000Y-40132000D02*
X46482000Y-39878000D01*
X46990000Y-32512000D02*
X48006000Y-33528000D01*
X41656000Y-29464000D02*
X45720000Y-29464000D01*
X41148000Y-29972000D02*
X41656000Y-29464000D01*
X46990000Y-30734000D02*
X46990000Y-32512000D01*
X46482000Y-39878000D02*
X44450000Y-37846000D01*
X66802000Y-37338000D02*
X68410000Y-37338000D01*
X45720000Y-29464000D02*
X46990000Y-30734000D01*
X50800000Y-37084000D02*
X51562000Y-37846000D01*
X51562000Y-37846000D02*
X66294000Y-37846000D01*
X68326000Y-41148000D02*
X68410000Y-41148000D01*
X62230000Y-43434000D02*
X66040000Y-43434000D01*
X56642000Y-43942000D02*
X61722000Y-43942000D01*
X61722000Y-43942000D02*
X62230000Y-43434000D01*
X66040000Y-43434000D02*
X68326000Y-41148000D01*
X49276000Y-36068000D02*
X48514000Y-35306000D01*
X49276000Y-40386000D02*
X49276000Y-36068000D01*
X56134000Y-43434000D02*
X56642000Y-43942000D01*
X56134000Y-41402000D02*
X56134000Y-43434000D01*
X55626000Y-40894000D02*
X56134000Y-41402000D01*
X49784000Y-40894000D02*
X55626000Y-40894000D01*
X49276000Y-40386000D02*
X49784000Y-40894000D01*
X44450000Y-33528000D02*
X43434000Y-32512000D01*
X44958000Y-33528000D02*
X44450000Y-33528000D01*
X46736000Y-35306000D02*
X44958000Y-33528000D01*
X43434000Y-32512000D02*
X43434000Y-31496000D01*
X48514000Y-35306000D02*
X46736000Y-35306000D01*
X36576000Y-55372000D02*
X37592000Y-55372000D01*
X32642000Y-57912000D02*
X34798000Y-57912000D01*
X35560000Y-57150000D02*
X35560000Y-55880000D01*
X36068000Y-55372000D02*
X37592000Y-55372000D01*
X35560000Y-55880000D02*
X36068000Y-55372000D01*
X33782000Y-57912000D02*
X32642000Y-57912000D01*
X34290000Y-58420000D02*
X35052000Y-57658000D01*
X34290000Y-59690000D02*
X34290000Y-58420000D01*
X37592000Y-60452000D02*
X35052000Y-60452000D01*
X35052000Y-57658000D02*
X35560000Y-57150000D01*
X35052000Y-60452000D02*
X34290000Y-59690000D01*
X34798000Y-57912000D02*
X35052000Y-57658000D01*
X32726000Y-45212000D02*
X36576000Y-45212000D01*
X24130000Y-42926000D02*
X24130000Y-41656000D01*
X24892000Y-43688000D02*
X24130000Y-42926000D01*
X24892000Y-43688000D02*
X27940000Y-43688000D01*
X27940000Y-43688000D02*
X28702000Y-44450000D01*
X29464000Y-44450000D02*
X30226000Y-45212000D01*
X28702000Y-44450000D02*
X29464000Y-44450000D01*
X21590000Y-30988000D02*
X22352000Y-30988000D01*
X23368000Y-32004000D02*
X25146000Y-32004000D01*
X22352000Y-30988000D02*
X23368000Y-32004000D01*
X25146000Y-33274000D02*
X25146000Y-32004000D01*
X25908000Y-28194000D02*
X27686000Y-28194000D01*
X25146000Y-30734000D02*
X25146000Y-28956000D01*
X25146000Y-28956000D02*
X25908000Y-28194000D01*
X27178000Y-28194000D02*
X27686000Y-28194000D01*
X40386000Y-37592000D02*
X41148000Y-38354000D01*
X40386000Y-28956000D02*
X40386000Y-37592000D01*
X39624000Y-28194000D02*
X40386000Y-28956000D01*
X27686000Y-28194000D02*
X39624000Y-28194000D01*
X43942000Y-40132000D02*
X43942000Y-39370000D01*
X42926000Y-38354000D02*
X41148000Y-38354000D01*
X43942000Y-39370000D02*
X42926000Y-38354000D01*
X30480000Y-34628000D02*
X30396000Y-34544000D01*
X30988000Y-41148000D02*
X30988000Y-39370000D01*
X29464000Y-34544000D02*
X30396000Y-34544000D01*
X28956000Y-35052000D02*
X29464000Y-34544000D01*
X28956000Y-37338000D02*
X28956000Y-35052000D01*
X30988000Y-39370000D02*
X28956000Y-37338000D01*
X34036000Y-36068000D02*
X35052000Y-37084000D01*
X30988000Y-36068000D02*
X34036000Y-36068000D01*
X30396000Y-35476000D02*
X30988000Y-36068000D01*
X30396000Y-34544000D02*
X30396000Y-35476000D01*
X35052000Y-37084000D02*
X36576000Y-37084000D01*
X37592000Y-36068000D02*
X37592000Y-34798000D01*
X36576000Y-37084000D02*
X37592000Y-36068000D01*
X30396000Y-30734000D02*
X31666000Y-29464000D01*
X31666000Y-29464000D02*
X36830000Y-29464000D01*
X37592000Y-30226000D02*
X37592000Y-32258000D01*
X36830000Y-29464000D02*
X37592000Y-30226000D01*
X36322000Y-41402000D02*
X36068000Y-41148000D01*
X39878000Y-37338000D02*
X36068000Y-41148000D01*
X39878000Y-32512000D02*
X39878000Y-37338000D01*
X39878000Y-32258000D02*
X39878000Y-32512000D01*
X39878000Y-30480000D02*
X39878000Y-32512000D01*
X38100000Y-28702000D02*
X39878000Y-30480000D01*
X28448000Y-28702000D02*
X38100000Y-28702000D01*
X27178000Y-29972000D02*
X28448000Y-28702000D01*
X26670000Y-34544000D02*
X27178000Y-34036000D01*
X27178000Y-34036000D02*
X27178000Y-29972000D01*
X25146000Y-34544000D02*
X26670000Y-34544000D01*
X36068000Y-41148000D02*
X36068000Y-42672000D01*
X36068000Y-42672000D02*
X36830000Y-43434000D01*
X36830000Y-43434000D02*
X40894000Y-43434000D01*
X41656000Y-44196000D02*
X41656000Y-45212000D01*
X40894000Y-43434000D02*
X41656000Y-44196000D01*
X25400000Y-65532000D02*
X26670000Y-65532000D01*
X22606000Y-68326000D02*
X25400000Y-65532000D01*
X22606000Y-69850000D02*
X22606000Y-68326000D01*
X37846000Y-85090000D02*
X38354000Y-84582000D01*
X30988000Y-85090000D02*
X37846000Y-85090000D01*
X30480000Y-79756000D02*
X30480000Y-84582000D01*
X30861000Y-79375000D02*
X30480000Y-79756000D01*
X30480000Y-84582000D02*
X30988000Y-85090000D01*
X30861000Y-74295000D02*
X30861000Y-79375000D01*
X29464000Y-72898000D02*
X30861000Y-74295000D01*
X24384000Y-72898000D02*
X29464000Y-72898000D01*
X22606000Y-71120000D02*
X24384000Y-72898000D01*
X22606000Y-69850000D02*
X22606000Y-71120000D01*
X32642000Y-59182000D02*
X31496000Y-59182000D01*
X29972000Y-60706000D02*
X29210000Y-60706000D01*
X31496000Y-59182000D02*
X29972000Y-60706000D01*
X31496000Y-59182000D02*
X30988000Y-58674000D01*
X30988000Y-58674000D02*
X30988000Y-54864000D01*
X31750000Y-54102000D02*
X32642000Y-54102000D01*
X30988000Y-54864000D02*
X31750000Y-54102000D01*
X103008000Y-120870000D02*
X103920000Y-120870000D01*
X103412000Y-107730000D02*
X103008000Y-107730000D01*
X103978000Y-120870000D02*
X103978000Y-120812000D01*
X107442000Y-114300000D02*
X108158000Y-114300000D01*
X103978000Y-120870000D02*
X104936000Y-120870000D01*
X104936000Y-120870000D02*
X105918000Y-119888000D01*
X105918000Y-116540000D02*
X108158000Y-114300000D01*
X105918000Y-119888000D02*
X105918000Y-116540000D01*
X100838000Y-118110000D02*
X99568000Y-118110000D01*
X101600000Y-118872000D02*
X100838000Y-118110000D01*
X101600000Y-122428000D02*
X101600000Y-118872000D01*
X101854000Y-122682000D02*
X101600000Y-122428000D01*
X107442000Y-121666000D02*
X106426000Y-122682000D01*
X107950000Y-119126000D02*
X107442000Y-119634000D01*
X108966000Y-116078000D02*
X108966000Y-117602000D01*
X114808000Y-115316000D02*
X109728000Y-115316000D01*
X108966000Y-117602000D02*
X107950000Y-118618000D01*
X115316000Y-114808000D02*
X114808000Y-115316000D01*
X107442000Y-119634000D02*
X107442000Y-121666000D01*
X104775000Y-94256000D02*
X104775000Y-91059000D01*
X107950000Y-118618000D02*
X107950000Y-119126000D01*
X105156000Y-90678000D02*
X105156000Y-89662000D01*
X104775000Y-91059000D02*
X105156000Y-90678000D01*
X105156000Y-89662000D02*
X105918000Y-88900000D01*
X116078000Y-92964000D02*
X116078000Y-105156000D01*
X105918000Y-88900000D02*
X107950000Y-88900000D01*
X109728000Y-115316000D02*
X108966000Y-116078000D01*
X107950000Y-88900000D02*
X108712000Y-89662000D01*
X108712000Y-89662000D02*
X108712000Y-91948000D01*
X108712000Y-91948000D02*
X109093000Y-92329000D01*
X109093000Y-92329000D02*
X115443000Y-92329000D01*
X106426000Y-122682000D02*
X101854000Y-122682000D01*
X115443000Y-92329000D02*
X116078000Y-92964000D01*
X115316000Y-105918000D02*
X115316000Y-114808000D01*
X116078000Y-105156000D02*
X115316000Y-105918000D01*
X102362000Y-94383000D02*
X102235000Y-94256000D01*
X102235000Y-96139000D02*
X102235000Y-94256000D01*
X102362000Y-96266000D02*
X102235000Y-96139000D01*
X104140000Y-96266000D02*
X102362000Y-96266000D01*
X104902000Y-97028000D02*
X104140000Y-96266000D01*
X104902000Y-98044000D02*
X104902000Y-97028000D01*
X101092000Y-98552000D02*
X100838000Y-98298000D01*
X104394000Y-98552000D02*
X101092000Y-98552000D01*
X104394000Y-98552000D02*
X104902000Y-98044000D01*
X100965000Y-96139000D02*
X102616000Y-97790000D01*
X100965000Y-94256000D02*
X100965000Y-96139000D01*
X106045000Y-103356000D02*
X106045000Y-104775000D01*
X104775000Y-111379000D02*
X104775000Y-109855000D01*
X102108000Y-112014000D02*
X104140000Y-112014000D01*
X106045000Y-104775000D02*
X107442000Y-106172000D01*
X99568000Y-110490000D02*
X100584000Y-110490000D01*
X107442000Y-108712000D02*
X107442000Y-106172000D01*
X106934000Y-109220000D02*
X107442000Y-108712000D01*
X105410000Y-109220000D02*
X106934000Y-109220000D01*
X100584000Y-110490000D02*
X102108000Y-112014000D01*
X104140000Y-112014000D02*
X104775000Y-111379000D01*
X104775000Y-109855000D02*
X105410000Y-109220000D01*
X90424000Y-119380000D02*
X93472000Y-119380000D01*
X94234000Y-118618000D02*
X94234000Y-116840000D01*
X93472000Y-119380000D02*
X94234000Y-118618000D01*
X111379000Y-76708000D02*
X111379000Y-76073000D01*
X111379000Y-76073000D02*
X111379000Y-75819000D01*
X111379000Y-76708000D02*
X111379000Y-75819000D01*
X115697000Y-73025000D02*
X116078000Y-72644000D01*
X116078000Y-68834000D02*
X115824000Y-68580000D01*
X112649000Y-73025000D02*
X115697000Y-73025000D01*
X116078000Y-72644000D02*
X116078000Y-68834000D01*
X111379000Y-74295000D02*
X112649000Y-73025000D01*
X111379000Y-75819000D02*
X111379000Y-74295000D01*
X108839000Y-77512002D02*
X108373002Y-77978000D01*
X108839000Y-76708000D02*
X108839000Y-77512002D01*
X107188000Y-77978000D02*
X106680000Y-77978000D01*
X108373002Y-77978000D02*
X107188000Y-77978000D01*
X106426000Y-77978000D02*
X107188000Y-77978000D01*
X104394000Y-75946000D02*
X106426000Y-77978000D01*
X102870000Y-75946000D02*
X104394000Y-75946000D01*
X102870000Y-73152000D02*
X102616000Y-72898000D01*
X102870000Y-75946000D02*
X102870000Y-73152000D01*
X113284000Y-69220000D02*
X113924000Y-68580000D01*
X113284000Y-71508000D02*
X113284000Y-69220000D01*
X113363999Y-76787999D02*
X113284000Y-76708000D01*
X113284000Y-77724000D02*
X113284000Y-76708000D01*
X114300000Y-78740000D02*
X113284000Y-77724000D01*
X106680000Y-52832000D02*
X107188000Y-53340000D01*
X107442000Y-53340000D02*
X107188000Y-53086000D01*
X104394000Y-47752000D02*
X104988000Y-47752000D01*
X103124000Y-49022000D02*
X104394000Y-47752000D01*
X103124000Y-51816000D02*
X103124000Y-49022000D01*
X104140000Y-52832000D02*
X103124000Y-51816000D01*
X106934000Y-52832000D02*
X104140000Y-52832000D01*
X107188000Y-53086000D02*
X106934000Y-52832000D01*
X108712000Y-57404000D02*
X108712000Y-56388000D01*
X108712000Y-57404000D02*
X108712000Y-57150000D01*
X108164000Y-55840000D02*
X107188000Y-55840000D01*
X108712000Y-56388000D02*
X108164000Y-55840000D01*
X108712000Y-62484000D02*
X108712000Y-57404000D01*
X108966000Y-62738000D02*
X108712000Y-62484000D01*
X110744000Y-62738000D02*
X108966000Y-62738000D01*
X111506000Y-69088000D02*
X111506000Y-63500000D01*
X111506000Y-63500000D02*
X110744000Y-62738000D01*
X110029001Y-70564999D02*
X111506000Y-69088000D01*
X110029001Y-71421001D02*
X110029001Y-70564999D01*
X110109000Y-71501000D02*
X110029001Y-71421001D01*
X110109000Y-71508000D02*
X110109000Y-71501000D01*
X107569000Y-71508000D02*
X106814000Y-71508000D01*
X106814000Y-71508000D02*
X103886000Y-68580000D01*
X100076000Y-68580000D02*
X98806000Y-67310000D01*
X98806000Y-65532000D02*
X99314000Y-65024000D01*
X98806000Y-67310000D02*
X98806000Y-65532000D01*
X101854000Y-57912000D02*
X102616000Y-57150000D01*
X101854000Y-60960000D02*
X101854000Y-57912000D01*
X102616000Y-57150000D02*
X103886000Y-57150000D01*
X99314000Y-63500000D02*
X101854000Y-60960000D01*
X99314000Y-64516000D02*
X99314000Y-63500000D01*
X101132000Y-68580000D02*
X101386000Y-68326000D01*
X100076000Y-68580000D02*
X101132000Y-68580000D01*
X106426000Y-57912000D02*
X107188000Y-57912000D01*
X105664000Y-58674000D02*
X106426000Y-57912000D01*
X105664000Y-60198000D02*
X105664000Y-58674000D01*
X105410000Y-60452000D02*
X105664000Y-60198000D01*
X103886000Y-60452000D02*
X105410000Y-60452000D01*
X104394000Y-60960000D02*
X103886000Y-60452000D01*
X104394000Y-64516000D02*
X104394000Y-60960000D01*
X112522000Y-56134000D02*
X113284000Y-55372000D01*
X112522000Y-63754000D02*
X112522000Y-56134000D01*
X112014000Y-64262000D02*
X112522000Y-63754000D01*
X113284000Y-55372000D02*
X114554000Y-55372000D01*
X112014000Y-71508000D02*
X112014000Y-64262000D01*
X115824000Y-57912000D02*
X114554000Y-57912000D01*
X116840000Y-66040000D02*
X116840000Y-58928000D01*
X116332000Y-66548000D02*
X116840000Y-66040000D01*
X116840000Y-58928000D02*
X115824000Y-57912000D01*
X112649000Y-67691000D02*
X113792000Y-66548000D01*
X112649000Y-71508000D02*
X112649000Y-67691000D01*
X113792000Y-66548000D02*
X116332000Y-66548000D01*
X115824000Y-57912000D02*
X116586000Y-57150000D01*
X116586000Y-57150000D02*
X116586000Y-50546000D01*
X116332000Y-50292000D02*
X114554000Y-50292000D01*
X116586000Y-50546000D02*
X116332000Y-50292000D01*
M02*
