M48
; DRILL file {KiCad (5.1.7)-1} date 03/15/21 09:13:33
; FORMAT={-:-/ absolute / inch / decimal}
; #@! TF.CreationDate,2021-03-15T09:13:33+08:00
; #@! TF.GenerationSoftware,Kicad,Pcbnew,(5.1.7)-1
; #@! TF.FileFunction,Plated,1,2,PTH
FMAT,2
INCH
T1C0.0157
T2C0.0197
T3C0.0315
T4C0.0354
T5C0.0394
T6C0.0472
T7C0.0512
%
G90
G05
T1
X1.82Y-2.44
X3.28Y-2.81
X3.86Y-2.68
X3.97Y-3.87
X4.04Y-3.85
X4.19Y-3.55
X4.3Y-4.24
X4.5Y-3.1
T2
X1.9052Y-2.81
X1.98Y-2.81
X4.4852Y-2.7
X4.56Y-2.7
T3
X3.89Y-2.18
X3.89Y-2.2784
X3.85Y-2.99
X4.05Y-2.99
X4.38Y-4.6
X4.38Y-4.6984
X3.75Y-4.26
X3.75Y-4.3584
X1.6516Y-3.67
X1.75Y-3.67
X3.3016Y-1.19
X3.4Y-1.19
X3.59Y-2.31
X3.59Y-2.51
X2.74Y-3.11
X2.94Y-3.11
X4.2216Y-2.67
X4.32Y-2.67
X1.73Y-3.19
X1.93Y-3.19
X2.48Y-3.28
X2.48Y-3.48
X3.63Y-3.26
X3.7284Y-3.26
X3.75Y-2.5416
X3.75Y-2.64
X2.52Y-4.41
X2.52Y-4.61
X1.71Y-1.24
X1.91Y-1.24
X2.8516Y-4.71
X2.95Y-4.71
X1.15Y-2.09
X1.15Y-2.39
X1.22Y-1.62
X1.42Y-1.62
X2.73Y-1.31
X2.8284Y-1.31
X1.7216Y-2.76
X1.82Y-2.76
X2.29Y-1.61
X2.3884Y-1.61
X3.91Y-1.6416
X3.91Y-1.74
X2.9Y-4.4216
X2.9Y-4.52
X3.1Y-4.43
X3.1Y-4.63
X1.4716Y-2.91
X1.57Y-2.91
X2.64Y-3.28
X2.64Y-3.48
X4.1216Y-3.16
X4.22Y-3.16
X2.3Y-2.06
X2.5Y-2.06
X2.93Y-4.04
X2.93Y-4.24
X3.27Y-1.42
X3.47Y-1.42
X3.29Y-1.57
X3.29Y-1.77
X0.9Y-3.52
X1.1Y-3.52
X2.8816Y-2.0
X2.98Y-2.0
X1.04Y-3.01
X1.1384Y-3.01
X1.3116Y-2.59
X1.41Y-2.59
X1.87Y-1.7016
X1.87Y-1.8
X1.65Y-1.94
X1.65Y-2.14
X1.44Y-1.78
X1.64Y-1.78
X0.85Y-1.22
X0.85Y-1.3184
X4.5Y-4.61
X4.5Y-4.7084
X4.06Y-1.71
X4.1584Y-1.71
X4.47Y-4.26
X4.47Y-4.46
X1.2Y-2.57
X1.2Y-2.77
X1.71Y-2.32
X1.71Y-2.52
X3.1Y-4.04
X3.1Y-4.24
X0.85Y-2.52
X0.85Y-2.6184
X2.47Y-3.71
X2.67Y-3.71
X4.22Y-2.09
X4.22Y-2.1884
X1.29Y-3.82
X1.49Y-3.82
X1.64Y-3.9
X1.64Y-4.1
X2.13Y-2.97
X2.13Y-3.17
X0.87Y-1.95
X1.07Y-1.95
X1.71Y-1.39
X1.91Y-1.39
X3.43Y-1.57
X3.43Y-1.77
X4.35Y-2.18
X4.35Y-2.38
X2.34Y-1.8016
X2.34Y-1.9
X2.84Y-3.72
X3.04Y-3.72
X1.57Y-2.5
X1.57Y-2.7
X2.08Y-3.3816
X2.08Y-3.48
X2.48Y-2.61
X2.48Y-2.81
X1.7216Y-2.87
X1.82Y-2.87
X3.41Y-4.51
X3.41Y-4.71
X1.7916Y-4.0
X1.89Y-4.0
X2.64Y-4.04
X2.64Y-4.24
X0.9Y-3.94
X0.9Y-4.0384
X1.14Y-4.03
X1.14Y-4.1284
X3.74Y-3.88
X3.74Y-4.08
X2.54Y-1.55
X2.54Y-1.6484
X2.38Y-1.2816
X2.38Y-1.38
X3.59Y-2.82
X3.6884Y-2.82
X1.8Y-3.41
X1.8984Y-3.41
X2.55Y-1.77
X2.55Y-1.8684
X4.17Y-1.18
X4.17Y-1.2784
X2.85Y-3.88
X3.05Y-3.88
X4.3716Y-3.52
X4.47Y-3.52
X2.04Y-4.0
X2.1384Y-4.0
X2.49Y-3.85
X2.69Y-3.85
X1.2716Y-3.22
X1.37Y-3.22
X3.51Y-3.73
X3.71Y-3.73
X3.29Y-3.46
X3.29Y-3.66
X0.9Y-3.83
X1.1Y-3.83
X2.29Y-3.06
X2.59Y-3.06
X2.29Y-2.53
X2.29Y-2.73
X2.0016Y-1.55
X2.1Y-1.55
X0.89Y-2.75
X0.89Y-2.95
X2.9916Y-3.52
X3.09Y-3.52
X2.0716Y-1.36
X2.17Y-1.36
X0.94Y-3.69
X1.14Y-3.69
X1.34Y-1.24
X1.34Y-1.3384
X1.85Y-2.24
X1.9484Y-2.24
X3.45Y-4.13
X3.45Y-4.33
X3.9916Y-2.69
X4.09Y-2.69
X3.59Y-4.13
X3.59Y-4.33
X2.78Y-4.04
X2.78Y-4.24
X1.4Y-4.0316
X1.4Y-4.13
X2.66Y-4.41
X2.66Y-4.61
X4.17Y-3.3016
X4.17Y-3.4
X2.4016Y-2.4
X2.5Y-2.4
X1.51Y-3.11
X1.51Y-3.31
X2.0316Y-1.73
X2.13Y-1.73
X2.57Y-1.2916
X2.57Y-1.39
X1.19Y-1.78
X1.2884Y-1.78
X3.13Y-2.0
X3.13Y-2.1
X3.13Y-2.2
X3.13Y-2.3
X3.13Y-2.4
X3.13Y-2.5
X3.13Y-2.6
X3.13Y-2.7
X3.13Y-2.8
X3.13Y-2.9
X3.13Y-3.0
X3.13Y-3.1
X3.13Y-3.2
X3.13Y-3.3
X3.43Y-2.0
X3.43Y-2.1
X3.43Y-2.2
X3.43Y-2.3
X3.43Y-2.4
X3.43Y-2.5
X3.43Y-2.6
X3.43Y-2.7
X3.43Y-2.8
X3.43Y-2.9
X3.43Y-3.0
X3.43Y-3.1
X3.43Y-3.2
X3.43Y-3.3
X4.22Y-2.28
X4.22Y-2.3784
X1.8416Y-2.06
X1.94Y-2.06
X1.02Y-2.09
X1.02Y-2.39
X2.13Y-2.49
X2.13Y-2.79
X1.87Y-1.91
X2.07Y-1.91
X3.9416Y-2.85
X4.04Y-2.85
X3.5816Y-2.17
X3.68Y-2.17
X1.94Y-2.42
X1.94Y-2.62
X3.65Y-1.69
X3.7484Y-1.69
X4.2316Y-2.55
X4.33Y-2.55
X2.08Y-2.13
X2.08Y-2.33
X1.33Y-2.8
X1.33Y-3.0
X1.91Y-3.78
X2.11Y-3.78
X1.91Y-3.64
X2.11Y-3.64
X1.24Y-1.95
X1.44Y-1.95
X1.67Y-3.39
X1.67Y-3.4884
X3.17Y-1.1916
X3.17Y-1.29
T4
X3.5Y-3.89
X3.6Y-3.89
X4.07Y-4.3622
X4.07Y-4.4622
X4.07Y-4.5386
X4.07Y-4.6398
T5
X3.92Y-4.25
X3.92Y-4.35
X3.92Y-4.45
X3.92Y-4.55
X3.92Y-4.65
X3.92Y-4.75
X2.31Y-3.26
X2.31Y-3.36
X2.31Y-3.46
X2.31Y-3.56
X2.31Y-3.66
X2.31Y-3.76
X0.9Y-3.35
X1.0Y-3.35
X1.1Y-3.35
X2.81Y-3.27
X2.81Y-3.37
X2.81Y-3.47
X2.81Y-3.57
X1.75Y-3.01
X1.85Y-3.01
X1.95Y-3.01
X0.85Y-2.16
X0.85Y-2.26
X0.85Y-2.36
X4.41Y-1.98
X4.51Y-1.98
X2.29Y-2.22
X2.39Y-2.22
X2.49Y-2.22
X3.69Y-1.46
X3.79Y-1.46
X3.89Y-1.46
X1.63Y-1.58
X1.73Y-1.58
X1.83Y-1.58
X4.53Y-2.5
X3.71Y-4.5
X3.71Y-4.6
X0.9Y-3.2
X1.0Y-3.2
X1.1Y-3.2
X0.85Y-1.64
X0.95Y-1.64
X1.05Y-1.64
X3.26Y-3.89
X3.26Y-3.99
X3.26Y-4.09
X3.26Y-4.19
X3.26Y-4.29
X3.26Y-4.39
X3.26Y-4.49
X3.26Y-4.59
X3.26Y-4.69
X3.91Y-2.54
X4.01Y-2.54
X4.11Y-2.54
X1.48Y-1.27
X1.48Y-1.37
X1.05Y-2.58
X1.05Y-2.68
X1.05Y-2.78
X2.95Y-2.4
X2.95Y-2.5
X2.95Y-2.6
X2.95Y-2.7
X2.31Y-4.04
X2.41Y-4.04
X2.71Y-2.03
X2.71Y-2.13
X2.71Y-2.23
X2.71Y-2.33
X2.71Y-2.43
X2.71Y-2.53
X2.71Y-2.63
X2.71Y-2.73
X2.71Y-2.83
X3.56Y-1.26
X3.66Y-1.26
X0.85Y-1.79
X0.95Y-1.79
X1.05Y-1.79
X3.48Y-3.51
X3.58Y-3.51
X3.68Y-3.51
X3.78Y-3.51
X3.88Y-3.51
X3.98Y-3.51
X3.11Y-1.47
X3.11Y-1.57
X3.11Y-1.67
X3.11Y-1.77
X3.01Y-1.19
X3.01Y-1.29
X3.88Y-1.25
X3.98Y-1.25
X4.51Y-2.18
X4.51Y-2.28
X3.56Y-4.5
X3.56Y-4.6
X3.56Y-4.7
X4.09Y-2.15
X4.09Y-2.25
X4.09Y-2.35
T6
X0.8731Y-4.3457
X0.9716Y-4.3457
X1.07Y-4.58
X1.1684Y-4.3457
X1.2669Y-4.3457
X1.4231Y-4.3457
X1.5216Y-4.3457
X1.62Y-4.58
X1.7184Y-4.3457
X1.8169Y-4.3457
X1.9631Y-4.3457
X2.0616Y-4.3457
X2.16Y-4.58
X2.2584Y-4.3457
X2.3569Y-4.3457
T7
G00X4.0739Y-4.2413
M15
G01X4.1133Y-4.2413
M16
G05
G00X4.1133Y-4.7587
M15
G01X4.0739Y-4.7587
M16
G05
G00X4.2582Y-4.4803
M15
G01X4.2582Y-4.5197
M16
G05
T0
M30
