G04 #@! TF.GenerationSoftware,KiCad,Pcbnew,(5.1.7)-1*
G04 #@! TF.CreationDate,2021-03-15T09:13:19+08:00*
G04 #@! TF.ProjectId,dsmp3_v5_ns8002,64736d70-335f-4763-955f-6e7338303032,1.2.1*
G04 #@! TF.SameCoordinates,Original*
G04 #@! TF.FileFunction,Soldermask,Top*
G04 #@! TF.FilePolarity,Negative*
%FSLAX46Y46*%
G04 Gerber Fmt 4.6, Leading zero omitted, Abs format (unit mm)*
G04 Created by KiCad (PCBNEW (5.1.7)-1) date 2021-03-15 09:13:19*
%MOMM*%
%LPD*%
G01*
G04 APERTURE LIST*
%ADD10C,1.600000*%
%ADD11R,1.600000X1.600000*%
%ADD12O,1.700000X1.700000*%
%ADD13R,1.700000X1.700000*%
%ADD14R,3.500000X2.500000*%
%ADD15O,1.750000X3.500000*%
%ADD16R,1.300000X1.300000*%
%ADD17C,1.300000*%
%ADD18O,2.900000X1.900000*%
%ADD19O,1.900000X2.900000*%
%ADD20O,0.600000X2.300000*%
%ADD21R,1.981200X0.533400*%
%ADD22O,1.600000X1.600000*%
%ADD23C,1.800000*%
%ADD24R,1.800000X1.800000*%
%ADD25C,1.000000*%
%ADD26R,1.060000X0.650000*%
%ADD27R,0.400000X1.200000*%
G04 APERTURE END LIST*
D10*
X43728000Y-72898000D03*
X46228000Y-72898000D03*
X48220000Y-86614000D03*
D11*
X45720000Y-86614000D03*
D12*
X112014000Y-50292000D03*
D13*
X114554000Y-50292000D03*
D10*
X91186000Y-63754000D03*
X91186000Y-58674000D03*
D14*
X54864000Y-116332000D03*
D15*
X49864000Y-110382000D03*
X59864000Y-110382000D03*
X52364000Y-110382000D03*
X57364000Y-110382000D03*
X43648000Y-110382000D03*
X38648000Y-110382000D03*
X46148000Y-110382000D03*
X36148000Y-110382000D03*
D14*
X41148000Y-116332000D03*
X27178000Y-116332000D03*
D15*
X22178000Y-110382000D03*
X32178000Y-110382000D03*
X24678000Y-110382000D03*
X29678000Y-110382000D03*
D16*
X103378000Y-117850000D03*
D17*
X103378000Y-115280000D03*
X103378000Y-113340000D03*
X103378000Y-110800000D03*
D18*
X103978000Y-107730000D03*
X103978000Y-120870000D03*
D19*
X108158000Y-114300000D03*
D10*
X34036000Y-33996000D03*
X34036000Y-31496000D03*
D13*
X90424000Y-114300000D03*
D12*
X90424000Y-116840000D03*
X90424000Y-119380000D03*
D10*
X95250000Y-110704000D03*
X95250000Y-108204000D03*
X113538000Y-108204000D03*
X113538000Y-113284000D03*
X77216000Y-94488000D03*
X72136000Y-94488000D03*
D11*
X73660000Y-114808000D03*
D10*
X73660000Y-112308000D03*
X83860000Y-30226000D03*
D11*
X86360000Y-30226000D03*
D10*
X37846000Y-97028000D03*
X32766000Y-97028000D03*
X28956000Y-104862000D03*
D11*
X28956000Y-102362000D03*
D10*
X53594000Y-96012000D03*
X48514000Y-96012000D03*
X53340000Y-39370000D03*
X50840000Y-39370000D03*
G36*
G01*
X31667000Y-52982000D02*
X31667000Y-52682000D01*
G75*
G02*
X31817000Y-52532000I150000J0D01*
G01*
X33467000Y-52532000D01*
G75*
G02*
X33617000Y-52682000I0J-150000D01*
G01*
X33617000Y-52982000D01*
G75*
G02*
X33467000Y-53132000I-150000J0D01*
G01*
X31817000Y-53132000D01*
G75*
G02*
X31667000Y-52982000I0J150000D01*
G01*
G37*
G36*
G01*
X31667000Y-54252000D02*
X31667000Y-53952000D01*
G75*
G02*
X31817000Y-53802000I150000J0D01*
G01*
X33467000Y-53802000D01*
G75*
G02*
X33617000Y-53952000I0J-150000D01*
G01*
X33617000Y-54252000D01*
G75*
G02*
X33467000Y-54402000I-150000J0D01*
G01*
X31817000Y-54402000D01*
G75*
G02*
X31667000Y-54252000I0J150000D01*
G01*
G37*
G36*
G01*
X31667000Y-55522000D02*
X31667000Y-55222000D01*
G75*
G02*
X31817000Y-55072000I150000J0D01*
G01*
X33467000Y-55072000D01*
G75*
G02*
X33617000Y-55222000I0J-150000D01*
G01*
X33617000Y-55522000D01*
G75*
G02*
X33467000Y-55672000I-150000J0D01*
G01*
X31817000Y-55672000D01*
G75*
G02*
X31667000Y-55522000I0J150000D01*
G01*
G37*
G36*
G01*
X31667000Y-56792000D02*
X31667000Y-56492000D01*
G75*
G02*
X31817000Y-56342000I150000J0D01*
G01*
X33467000Y-56342000D01*
G75*
G02*
X33617000Y-56492000I0J-150000D01*
G01*
X33617000Y-56792000D01*
G75*
G02*
X33467000Y-56942000I-150000J0D01*
G01*
X31817000Y-56942000D01*
G75*
G02*
X31667000Y-56792000I0J150000D01*
G01*
G37*
G36*
G01*
X31667000Y-58062000D02*
X31667000Y-57762000D01*
G75*
G02*
X31817000Y-57612000I150000J0D01*
G01*
X33467000Y-57612000D01*
G75*
G02*
X33617000Y-57762000I0J-150000D01*
G01*
X33617000Y-58062000D01*
G75*
G02*
X33467000Y-58212000I-150000J0D01*
G01*
X31817000Y-58212000D01*
G75*
G02*
X31667000Y-58062000I0J150000D01*
G01*
G37*
G36*
G01*
X31667000Y-59332000D02*
X31667000Y-59032000D01*
G75*
G02*
X31817000Y-58882000I150000J0D01*
G01*
X33467000Y-58882000D01*
G75*
G02*
X33617000Y-59032000I0J-150000D01*
G01*
X33617000Y-59332000D01*
G75*
G02*
X33467000Y-59482000I-150000J0D01*
G01*
X31817000Y-59482000D01*
G75*
G02*
X31667000Y-59332000I0J150000D01*
G01*
G37*
G36*
G01*
X31667000Y-60602000D02*
X31667000Y-60302000D01*
G75*
G02*
X31817000Y-60152000I150000J0D01*
G01*
X33467000Y-60152000D01*
G75*
G02*
X33617000Y-60302000I0J-150000D01*
G01*
X33617000Y-60602000D01*
G75*
G02*
X33467000Y-60752000I-150000J0D01*
G01*
X31817000Y-60752000D01*
G75*
G02*
X31667000Y-60602000I0J150000D01*
G01*
G37*
G36*
G01*
X36617000Y-60602000D02*
X36617000Y-60302000D01*
G75*
G02*
X36767000Y-60152000I150000J0D01*
G01*
X38417000Y-60152000D01*
G75*
G02*
X38567000Y-60302000I0J-150000D01*
G01*
X38567000Y-60602000D01*
G75*
G02*
X38417000Y-60752000I-150000J0D01*
G01*
X36767000Y-60752000D01*
G75*
G02*
X36617000Y-60602000I0J150000D01*
G01*
G37*
G36*
G01*
X36617000Y-59332000D02*
X36617000Y-59032000D01*
G75*
G02*
X36767000Y-58882000I150000J0D01*
G01*
X38417000Y-58882000D01*
G75*
G02*
X38567000Y-59032000I0J-150000D01*
G01*
X38567000Y-59332000D01*
G75*
G02*
X38417000Y-59482000I-150000J0D01*
G01*
X36767000Y-59482000D01*
G75*
G02*
X36617000Y-59332000I0J150000D01*
G01*
G37*
G36*
G01*
X36617000Y-58062000D02*
X36617000Y-57762000D01*
G75*
G02*
X36767000Y-57612000I150000J0D01*
G01*
X38417000Y-57612000D01*
G75*
G02*
X38567000Y-57762000I0J-150000D01*
G01*
X38567000Y-58062000D01*
G75*
G02*
X38417000Y-58212000I-150000J0D01*
G01*
X36767000Y-58212000D01*
G75*
G02*
X36617000Y-58062000I0J150000D01*
G01*
G37*
G36*
G01*
X36617000Y-56792000D02*
X36617000Y-56492000D01*
G75*
G02*
X36767000Y-56342000I150000J0D01*
G01*
X38417000Y-56342000D01*
G75*
G02*
X38567000Y-56492000I0J-150000D01*
G01*
X38567000Y-56792000D01*
G75*
G02*
X38417000Y-56942000I-150000J0D01*
G01*
X36767000Y-56942000D01*
G75*
G02*
X36617000Y-56792000I0J150000D01*
G01*
G37*
G36*
G01*
X36617000Y-55522000D02*
X36617000Y-55222000D01*
G75*
G02*
X36767000Y-55072000I150000J0D01*
G01*
X38417000Y-55072000D01*
G75*
G02*
X38567000Y-55222000I0J-150000D01*
G01*
X38567000Y-55522000D01*
G75*
G02*
X38417000Y-55672000I-150000J0D01*
G01*
X36767000Y-55672000D01*
G75*
G02*
X36617000Y-55522000I0J150000D01*
G01*
G37*
G36*
G01*
X36617000Y-54252000D02*
X36617000Y-53952000D01*
G75*
G02*
X36767000Y-53802000I150000J0D01*
G01*
X38417000Y-53802000D01*
G75*
G02*
X38567000Y-53952000I0J-150000D01*
G01*
X38567000Y-54252000D01*
G75*
G02*
X38417000Y-54402000I-150000J0D01*
G01*
X36767000Y-54402000D01*
G75*
G02*
X36617000Y-54252000I0J150000D01*
G01*
G37*
G36*
G01*
X36617000Y-52982000D02*
X36617000Y-52682000D01*
G75*
G02*
X36767000Y-52532000I150000J0D01*
G01*
X38417000Y-52532000D01*
G75*
G02*
X38567000Y-52682000I0J-150000D01*
G01*
X38567000Y-52982000D01*
G75*
G02*
X38417000Y-53132000I-150000J0D01*
G01*
X36767000Y-53132000D01*
G75*
G02*
X36617000Y-52982000I0J150000D01*
G01*
G37*
X28916000Y-76454000D03*
D11*
X26416000Y-76454000D03*
D20*
X98425000Y-103356000D03*
X99695000Y-103356000D03*
X100965000Y-103356000D03*
X102235000Y-103356000D03*
X103505000Y-103356000D03*
X104775000Y-103356000D03*
X106045000Y-103356000D03*
X107315000Y-103356000D03*
X108585000Y-103356000D03*
X109855000Y-103356000D03*
X111125000Y-103356000D03*
X112395000Y-103356000D03*
X113665000Y-103356000D03*
X114935000Y-103356000D03*
X114935000Y-94256000D03*
X113665000Y-94256000D03*
X112395000Y-94256000D03*
X111125000Y-94256000D03*
X109855000Y-94256000D03*
X108585000Y-94256000D03*
X107315000Y-94256000D03*
X106045000Y-94256000D03*
X104775000Y-94256000D03*
X103505000Y-94256000D03*
X102235000Y-94256000D03*
X100965000Y-94256000D03*
X99695000Y-94256000D03*
X98425000Y-94256000D03*
D21*
X98298000Y-47498000D03*
X98298000Y-48768000D03*
X98298000Y-50038000D03*
X98298000Y-51308000D03*
X93370400Y-51308000D03*
X93370400Y-50038000D03*
X93370400Y-48768000D03*
X93370400Y-47498000D03*
D10*
X54102000Y-80518000D03*
X54102000Y-75438000D03*
D13*
X37592000Y-34798000D03*
D12*
X37592000Y-32258000D03*
D10*
X52832000Y-59182000D03*
X52832000Y-54102000D03*
D13*
X74930000Y-68580000D03*
D12*
X74930000Y-66040000D03*
X74930000Y-63500000D03*
X74930000Y-60960000D03*
D10*
X58166000Y-64262000D03*
X58166000Y-69342000D03*
X83566000Y-44958000D03*
X83566000Y-39878000D03*
D13*
X78994000Y-44958000D03*
D12*
X78994000Y-42418000D03*
X78994000Y-39878000D03*
X78994000Y-37338000D03*
D10*
X95210000Y-42926000D03*
D11*
X92710000Y-42926000D03*
D10*
X83566000Y-87884000D03*
X83566000Y-92964000D03*
D11*
X74930000Y-119634000D03*
D10*
X72430000Y-119634000D03*
X87122000Y-39878000D03*
X87122000Y-44958000D03*
D11*
X25908000Y-53086000D03*
D22*
X25908000Y-60706000D03*
D10*
X41950000Y-93218000D03*
D11*
X44450000Y-93218000D03*
D13*
X82804000Y-119126000D03*
D12*
X82804000Y-116586000D03*
X82804000Y-114046000D03*
X82804000Y-111506000D03*
X82804000Y-108966000D03*
X82804000Y-106426000D03*
X82804000Y-103886000D03*
X82804000Y-101346000D03*
X82804000Y-98806000D03*
D10*
X23876000Y-93726000D03*
X28956000Y-93726000D03*
D11*
X98806000Y-55372000D03*
D10*
X98806000Y-57872000D03*
X30480000Y-65278000D03*
X30480000Y-70358000D03*
D11*
X79502000Y-50800000D03*
D22*
X87122000Y-83820000D03*
X79502000Y-53340000D03*
X87122000Y-81280000D03*
X79502000Y-55880000D03*
X87122000Y-78740000D03*
X79502000Y-58420000D03*
X87122000Y-76200000D03*
X79502000Y-60960000D03*
X87122000Y-73660000D03*
X79502000Y-63500000D03*
X87122000Y-71120000D03*
X79502000Y-66040000D03*
X87122000Y-68580000D03*
X79502000Y-68580000D03*
X87122000Y-66040000D03*
X79502000Y-71120000D03*
X87122000Y-63500000D03*
X79502000Y-73660000D03*
X87122000Y-60960000D03*
X79502000Y-76200000D03*
X87122000Y-58420000D03*
X79502000Y-78740000D03*
X87122000Y-55880000D03*
X79502000Y-81280000D03*
X87122000Y-53340000D03*
X79502000Y-83820000D03*
X87122000Y-50800000D03*
D11*
X91186000Y-71628000D03*
D10*
X93686000Y-71628000D03*
X43728000Y-70104000D03*
X46228000Y-70104000D03*
X64770000Y-44958000D03*
X64770000Y-47458000D03*
X60666000Y-40894000D03*
D11*
X58166000Y-40894000D03*
D10*
X59436000Y-45760000D03*
D11*
X59436000Y-48260000D03*
D10*
X114300000Y-119594000D03*
X114300000Y-117094000D03*
X99314000Y-41696000D03*
X99314000Y-44196000D03*
X111252000Y-119340000D03*
X111252000Y-116840000D03*
X105624000Y-43434000D03*
D11*
X103124000Y-43434000D03*
D10*
X49276000Y-52324000D03*
X46776000Y-52324000D03*
X46990000Y-56896000D03*
X49490000Y-56896000D03*
X105918000Y-32472000D03*
X105918000Y-29972000D03*
X54316000Y-101600000D03*
D11*
X51816000Y-101600000D03*
X48006000Y-101600000D03*
D10*
X45506000Y-101600000D03*
X37378000Y-73914000D03*
D11*
X39878000Y-73914000D03*
X35560000Y-104902000D03*
D10*
X35560000Y-102402000D03*
X52832000Y-85892000D03*
D11*
X52832000Y-88392000D03*
D10*
X90972000Y-55118000D03*
X93472000Y-55118000D03*
D11*
X34798000Y-81788000D03*
D10*
X32298000Y-81788000D03*
X21590000Y-66508000D03*
X21590000Y-64008000D03*
D22*
X54102000Y-63246000D03*
D11*
X54102000Y-70866000D03*
D23*
X88900000Y-98806000D03*
D24*
X91440000Y-98806000D03*
D13*
X88392000Y-89154000D03*
D12*
X90932000Y-89154000D03*
X93472000Y-89154000D03*
X96012000Y-89154000D03*
X98552000Y-89154000D03*
X101092000Y-89154000D03*
X68834000Y-51562000D03*
X68834000Y-54102000D03*
X68834000Y-56642000D03*
X68834000Y-59182000D03*
X68834000Y-61722000D03*
X68834000Y-64262000D03*
X68834000Y-66802000D03*
X68834000Y-69342000D03*
D13*
X68834000Y-71882000D03*
D12*
X58674000Y-82804000D03*
X58674000Y-85344000D03*
X58674000Y-87884000D03*
X58674000Y-90424000D03*
X58674000Y-92964000D03*
D13*
X58674000Y-95504000D03*
D10*
X63500000Y-52324000D03*
X58420000Y-52324000D03*
X91186000Y-109982000D03*
X91186000Y-104902000D03*
X43942000Y-81026000D03*
X49022000Y-81026000D03*
X69596000Y-78994000D03*
X74676000Y-78994000D03*
X77470000Y-98552000D03*
X72390000Y-98552000D03*
X49276000Y-61468000D03*
X49276000Y-66548000D03*
X87630000Y-109982000D03*
X87630000Y-104902000D03*
X78740000Y-107696000D03*
X78740000Y-102616000D03*
X74422000Y-107696000D03*
X74422000Y-102616000D03*
X78740000Y-117602000D03*
X78740000Y-112522000D03*
X70612000Y-107696000D03*
X70612000Y-102616000D03*
X63246000Y-97790000D03*
X68326000Y-97790000D03*
X62992000Y-83312000D03*
X62992000Y-88392000D03*
X67056000Y-83312000D03*
X67056000Y-88392000D03*
X62992000Y-71374000D03*
X62992000Y-66294000D03*
X62738000Y-94234000D03*
X67818000Y-94234000D03*
X47498000Y-48514000D03*
X52578000Y-48514000D03*
X39878000Y-63500000D03*
X39878000Y-68580000D03*
X43434000Y-64008000D03*
X43434000Y-58928000D03*
X89154000Y-94742000D03*
X94234000Y-94742000D03*
X67056000Y-102616000D03*
X67056000Y-107696000D03*
X64008000Y-117094000D03*
X64008000Y-112014000D03*
X41656000Y-104140000D03*
X41656000Y-99060000D03*
X22860000Y-89408000D03*
X27940000Y-89408000D03*
X67564000Y-112014000D03*
X67564000Y-117094000D03*
X22860000Y-97282000D03*
X27940000Y-97282000D03*
X48514000Y-92456000D03*
X53594000Y-92456000D03*
X22606000Y-69850000D03*
X22606000Y-74930000D03*
X38354000Y-84074000D03*
X38354000Y-78994000D03*
X94996000Y-103632000D03*
X94996000Y-98552000D03*
X22098000Y-49530000D03*
X27178000Y-49530000D03*
X33782000Y-76200000D03*
X33782000Y-71120000D03*
D21*
X68478400Y-43942000D03*
X68478400Y-45212000D03*
X68478400Y-46482000D03*
X68478400Y-47752000D03*
X73406000Y-47752000D03*
X73406000Y-46482000D03*
X73406000Y-45212000D03*
X73406000Y-43942000D03*
X110134400Y-29210000D03*
X110134400Y-30480000D03*
X110134400Y-31750000D03*
X110134400Y-33020000D03*
X115062000Y-33020000D03*
X115062000Y-31750000D03*
X115062000Y-30480000D03*
X115062000Y-29210000D03*
D25*
X48392000Y-71374000D03*
X50292000Y-71374000D03*
D21*
X102184200Y-34925000D03*
X102184200Y-36195000D03*
X102184200Y-37465000D03*
X102184200Y-38735000D03*
X107111800Y-38735000D03*
X107111800Y-37465000D03*
X107111800Y-36195000D03*
X107111800Y-34925000D03*
D13*
X101092000Y-31750000D03*
D12*
X98552000Y-31750000D03*
D10*
X33314000Y-65786000D03*
X35814000Y-65786000D03*
X22860000Y-102576000D03*
X22860000Y-100076000D03*
D13*
X26670000Y-65532000D03*
D12*
X26670000Y-68072000D03*
X26670000Y-70612000D03*
X90424000Y-32004000D03*
D13*
X92964000Y-32004000D03*
X44450000Y-76454000D03*
D12*
X46990000Y-76454000D03*
X49530000Y-76454000D03*
X71374000Y-83058000D03*
X71374000Y-85598000D03*
X71374000Y-88138000D03*
D13*
X71374000Y-90678000D03*
D10*
X73192000Y-50800000D03*
X75692000Y-50800000D03*
D22*
X58166000Y-77724000D03*
D11*
X65786000Y-77724000D03*
D10*
X61000000Y-60960000D03*
X63500000Y-60960000D03*
D13*
X63246000Y-56388000D03*
D12*
X60706000Y-56388000D03*
X58166000Y-56388000D03*
D10*
X88138000Y-36068000D03*
X83058000Y-36068000D03*
X78486000Y-89408000D03*
D11*
X75986000Y-89408000D03*
D13*
X93726000Y-37084000D03*
D12*
X96266000Y-37084000D03*
X98806000Y-37084000D03*
D10*
X47498000Y-43220000D03*
X47498000Y-45720000D03*
X64516000Y-41870000D03*
X64516000Y-39370000D03*
D13*
X76454000Y-32766000D03*
D12*
X76454000Y-30226000D03*
D10*
X48514000Y-35306000D03*
X43434000Y-35306000D03*
X43434000Y-31496000D03*
X48514000Y-31496000D03*
D13*
X26670000Y-45466000D03*
D12*
X24130000Y-45466000D03*
X21590000Y-45466000D03*
G36*
G01*
X67585000Y-37488000D02*
X67585000Y-37188000D01*
G75*
G02*
X67735000Y-37038000I150000J0D01*
G01*
X69085000Y-37038000D01*
G75*
G02*
X69235000Y-37188000I0J-150000D01*
G01*
X69235000Y-37488000D01*
G75*
G02*
X69085000Y-37638000I-150000J0D01*
G01*
X67735000Y-37638000D01*
G75*
G02*
X67585000Y-37488000I0J150000D01*
G01*
G37*
G36*
G01*
X67585000Y-38758000D02*
X67585000Y-38458000D01*
G75*
G02*
X67735000Y-38308000I150000J0D01*
G01*
X69085000Y-38308000D01*
G75*
G02*
X69235000Y-38458000I0J-150000D01*
G01*
X69235000Y-38758000D01*
G75*
G02*
X69085000Y-38908000I-150000J0D01*
G01*
X67735000Y-38908000D01*
G75*
G02*
X67585000Y-38758000I0J150000D01*
G01*
G37*
G36*
G01*
X67585000Y-40028000D02*
X67585000Y-39728000D01*
G75*
G02*
X67735000Y-39578000I150000J0D01*
G01*
X69085000Y-39578000D01*
G75*
G02*
X69235000Y-39728000I0J-150000D01*
G01*
X69235000Y-40028000D01*
G75*
G02*
X69085000Y-40178000I-150000J0D01*
G01*
X67735000Y-40178000D01*
G75*
G02*
X67585000Y-40028000I0J150000D01*
G01*
G37*
G36*
G01*
X67585000Y-41298000D02*
X67585000Y-40998000D01*
G75*
G02*
X67735000Y-40848000I150000J0D01*
G01*
X69085000Y-40848000D01*
G75*
G02*
X69235000Y-40998000I0J-150000D01*
G01*
X69235000Y-41298000D01*
G75*
G02*
X69085000Y-41448000I-150000J0D01*
G01*
X67735000Y-41448000D01*
G75*
G02*
X67585000Y-41298000I0J150000D01*
G01*
G37*
G36*
G01*
X72835000Y-41298000D02*
X72835000Y-40998000D01*
G75*
G02*
X72985000Y-40848000I150000J0D01*
G01*
X74335000Y-40848000D01*
G75*
G02*
X74485000Y-40998000I0J-150000D01*
G01*
X74485000Y-41298000D01*
G75*
G02*
X74335000Y-41448000I-150000J0D01*
G01*
X72985000Y-41448000D01*
G75*
G02*
X72835000Y-41298000I0J150000D01*
G01*
G37*
G36*
G01*
X72835000Y-40028000D02*
X72835000Y-39728000D01*
G75*
G02*
X72985000Y-39578000I150000J0D01*
G01*
X74335000Y-39578000D01*
G75*
G02*
X74485000Y-39728000I0J-150000D01*
G01*
X74485000Y-40028000D01*
G75*
G02*
X74335000Y-40178000I-150000J0D01*
G01*
X72985000Y-40178000D01*
G75*
G02*
X72835000Y-40028000I0J150000D01*
G01*
G37*
G36*
G01*
X72835000Y-38758000D02*
X72835000Y-38458000D01*
G75*
G02*
X72985000Y-38308000I150000J0D01*
G01*
X74335000Y-38308000D01*
G75*
G02*
X74485000Y-38458000I0J-150000D01*
G01*
X74485000Y-38758000D01*
G75*
G02*
X74335000Y-38908000I-150000J0D01*
G01*
X72985000Y-38908000D01*
G75*
G02*
X72835000Y-38758000I0J150000D01*
G01*
G37*
G36*
G01*
X72835000Y-37488000D02*
X72835000Y-37188000D01*
G75*
G02*
X72985000Y-37038000I150000J0D01*
G01*
X74335000Y-37038000D01*
G75*
G02*
X74485000Y-37188000I0J-150000D01*
G01*
X74485000Y-37488000D01*
G75*
G02*
X74335000Y-37638000I-150000J0D01*
G01*
X72985000Y-37638000D01*
G75*
G02*
X72835000Y-37488000I0J150000D01*
G01*
G37*
D10*
X65278000Y-32806000D03*
X65278000Y-35306000D03*
X71842000Y-33274000D03*
D11*
X69342000Y-33274000D03*
D10*
X80518000Y-32766000D03*
X80518000Y-30266000D03*
D13*
X21590000Y-54864000D03*
D12*
X21590000Y-57404000D03*
X21590000Y-59944000D03*
D10*
X32726000Y-45212000D03*
X30226000Y-45212000D03*
X21590000Y-33488000D03*
X21590000Y-30988000D03*
X52618000Y-34544000D03*
D11*
X55118000Y-34544000D03*
X60452000Y-35052000D03*
D10*
X60452000Y-32552000D03*
D12*
X41402000Y-40132000D03*
X43942000Y-40132000D03*
D13*
X46482000Y-40132000D03*
D10*
X41656000Y-45212000D03*
X36576000Y-45212000D03*
X36068000Y-41148000D03*
X30988000Y-41148000D03*
D13*
X26670000Y-41656000D03*
D12*
X24130000Y-41656000D03*
X21590000Y-41656000D03*
G36*
G01*
X24321000Y-30884000D02*
X24321000Y-30584000D01*
G75*
G02*
X24471000Y-30434000I150000J0D01*
G01*
X25821000Y-30434000D01*
G75*
G02*
X25971000Y-30584000I0J-150000D01*
G01*
X25971000Y-30884000D01*
G75*
G02*
X25821000Y-31034000I-150000J0D01*
G01*
X24471000Y-31034000D01*
G75*
G02*
X24321000Y-30884000I0J150000D01*
G01*
G37*
G36*
G01*
X24321000Y-32154000D02*
X24321000Y-31854000D01*
G75*
G02*
X24471000Y-31704000I150000J0D01*
G01*
X25821000Y-31704000D01*
G75*
G02*
X25971000Y-31854000I0J-150000D01*
G01*
X25971000Y-32154000D01*
G75*
G02*
X25821000Y-32304000I-150000J0D01*
G01*
X24471000Y-32304000D01*
G75*
G02*
X24321000Y-32154000I0J150000D01*
G01*
G37*
G36*
G01*
X24321000Y-33424000D02*
X24321000Y-33124000D01*
G75*
G02*
X24471000Y-32974000I150000J0D01*
G01*
X25821000Y-32974000D01*
G75*
G02*
X25971000Y-33124000I0J-150000D01*
G01*
X25971000Y-33424000D01*
G75*
G02*
X25821000Y-33574000I-150000J0D01*
G01*
X24471000Y-33574000D01*
G75*
G02*
X24321000Y-33424000I0J150000D01*
G01*
G37*
G36*
G01*
X24321000Y-34694000D02*
X24321000Y-34394000D01*
G75*
G02*
X24471000Y-34244000I150000J0D01*
G01*
X25821000Y-34244000D01*
G75*
G02*
X25971000Y-34394000I0J-150000D01*
G01*
X25971000Y-34694000D01*
G75*
G02*
X25821000Y-34844000I-150000J0D01*
G01*
X24471000Y-34844000D01*
G75*
G02*
X24321000Y-34694000I0J150000D01*
G01*
G37*
G36*
G01*
X29571000Y-34694000D02*
X29571000Y-34394000D01*
G75*
G02*
X29721000Y-34244000I150000J0D01*
G01*
X31071000Y-34244000D01*
G75*
G02*
X31221000Y-34394000I0J-150000D01*
G01*
X31221000Y-34694000D01*
G75*
G02*
X31071000Y-34844000I-150000J0D01*
G01*
X29721000Y-34844000D01*
G75*
G02*
X29571000Y-34694000I0J150000D01*
G01*
G37*
G36*
G01*
X29571000Y-33424000D02*
X29571000Y-33124000D01*
G75*
G02*
X29721000Y-32974000I150000J0D01*
G01*
X31071000Y-32974000D01*
G75*
G02*
X31221000Y-33124000I0J-150000D01*
G01*
X31221000Y-33424000D01*
G75*
G02*
X31071000Y-33574000I-150000J0D01*
G01*
X29721000Y-33574000D01*
G75*
G02*
X29571000Y-33424000I0J150000D01*
G01*
G37*
G36*
G01*
X29571000Y-32154000D02*
X29571000Y-31854000D01*
G75*
G02*
X29721000Y-31704000I150000J0D01*
G01*
X31071000Y-31704000D01*
G75*
G02*
X31221000Y-31854000I0J-150000D01*
G01*
X31221000Y-32154000D01*
G75*
G02*
X31071000Y-32304000I-150000J0D01*
G01*
X29721000Y-32304000D01*
G75*
G02*
X29571000Y-32154000I0J150000D01*
G01*
G37*
G36*
G01*
X29571000Y-30884000D02*
X29571000Y-30584000D01*
G75*
G02*
X29721000Y-30434000I150000J0D01*
G01*
X31071000Y-30434000D01*
G75*
G02*
X31221000Y-30584000I0J-150000D01*
G01*
X31221000Y-30884000D01*
G75*
G02*
X31071000Y-31034000I-150000J0D01*
G01*
X29721000Y-31034000D01*
G75*
G02*
X29571000Y-30884000I0J150000D01*
G01*
G37*
D10*
X42418000Y-88606000D03*
X42418000Y-86106000D03*
X31496000Y-49530000D03*
X36576000Y-49530000D03*
X41910000Y-54356000D03*
X41910000Y-49276000D03*
D22*
X29210000Y-53086000D03*
D11*
X29210000Y-60706000D03*
D10*
X51602000Y-43942000D03*
D11*
X54102000Y-43942000D03*
D10*
X94702000Y-82804000D03*
D11*
X92202000Y-82804000D03*
G36*
G01*
X31263000Y-88034000D02*
X31263000Y-87734000D01*
G75*
G02*
X31413000Y-87584000I150000J0D01*
G01*
X32763000Y-87584000D01*
G75*
G02*
X32913000Y-87734000I0J-150000D01*
G01*
X32913000Y-88034000D01*
G75*
G02*
X32763000Y-88184000I-150000J0D01*
G01*
X31413000Y-88184000D01*
G75*
G02*
X31263000Y-88034000I0J150000D01*
G01*
G37*
G36*
G01*
X31263000Y-89304000D02*
X31263000Y-89004000D01*
G75*
G02*
X31413000Y-88854000I150000J0D01*
G01*
X32763000Y-88854000D01*
G75*
G02*
X32913000Y-89004000I0J-150000D01*
G01*
X32913000Y-89304000D01*
G75*
G02*
X32763000Y-89454000I-150000J0D01*
G01*
X31413000Y-89454000D01*
G75*
G02*
X31263000Y-89304000I0J150000D01*
G01*
G37*
G36*
G01*
X31263000Y-90574000D02*
X31263000Y-90274000D01*
G75*
G02*
X31413000Y-90124000I150000J0D01*
G01*
X32763000Y-90124000D01*
G75*
G02*
X32913000Y-90274000I0J-150000D01*
G01*
X32913000Y-90574000D01*
G75*
G02*
X32763000Y-90724000I-150000J0D01*
G01*
X31413000Y-90724000D01*
G75*
G02*
X31263000Y-90574000I0J150000D01*
G01*
G37*
G36*
G01*
X31263000Y-91844000D02*
X31263000Y-91544000D01*
G75*
G02*
X31413000Y-91394000I150000J0D01*
G01*
X32763000Y-91394000D01*
G75*
G02*
X32913000Y-91544000I0J-150000D01*
G01*
X32913000Y-91844000D01*
G75*
G02*
X32763000Y-91994000I-150000J0D01*
G01*
X31413000Y-91994000D01*
G75*
G02*
X31263000Y-91844000I0J150000D01*
G01*
G37*
G36*
G01*
X36513000Y-91844000D02*
X36513000Y-91544000D01*
G75*
G02*
X36663000Y-91394000I150000J0D01*
G01*
X38013000Y-91394000D01*
G75*
G02*
X38163000Y-91544000I0J-150000D01*
G01*
X38163000Y-91844000D01*
G75*
G02*
X38013000Y-91994000I-150000J0D01*
G01*
X36663000Y-91994000D01*
G75*
G02*
X36513000Y-91844000I0J150000D01*
G01*
G37*
G36*
G01*
X36513000Y-90574000D02*
X36513000Y-90274000D01*
G75*
G02*
X36663000Y-90124000I150000J0D01*
G01*
X38013000Y-90124000D01*
G75*
G02*
X38163000Y-90274000I0J-150000D01*
G01*
X38163000Y-90574000D01*
G75*
G02*
X38013000Y-90724000I-150000J0D01*
G01*
X36663000Y-90724000D01*
G75*
G02*
X36513000Y-90574000I0J150000D01*
G01*
G37*
G36*
G01*
X36513000Y-89304000D02*
X36513000Y-89004000D01*
G75*
G02*
X36663000Y-88854000I150000J0D01*
G01*
X38013000Y-88854000D01*
G75*
G02*
X38163000Y-89004000I0J-150000D01*
G01*
X38163000Y-89304000D01*
G75*
G02*
X38013000Y-89454000I-150000J0D01*
G01*
X36663000Y-89454000D01*
G75*
G02*
X36513000Y-89304000I0J150000D01*
G01*
G37*
G36*
G01*
X36513000Y-88034000D02*
X36513000Y-87734000D01*
G75*
G02*
X36663000Y-87584000I150000J0D01*
G01*
X38013000Y-87584000D01*
G75*
G02*
X38163000Y-87734000I0J-150000D01*
G01*
X38163000Y-88034000D01*
G75*
G02*
X38013000Y-88184000I-150000J0D01*
G01*
X36663000Y-88184000D01*
G75*
G02*
X36513000Y-88034000I0J150000D01*
G01*
G37*
D13*
X58674000Y-102616000D03*
D12*
X61214000Y-102616000D03*
D13*
X99568000Y-120650000D03*
D12*
X99568000Y-118110000D03*
X99568000Y-115570000D03*
X99568000Y-113030000D03*
X99568000Y-110490000D03*
X99568000Y-107950000D03*
D13*
X94234000Y-114300000D03*
D12*
X94234000Y-116840000D03*
D10*
X86614000Y-114554000D03*
X86614000Y-119634000D03*
X105918000Y-83860000D03*
X105918000Y-86360000D03*
X111038000Y-89408000D03*
X113538000Y-89408000D03*
D12*
X27940000Y-85090000D03*
X25400000Y-85090000D03*
D13*
X22860000Y-85090000D03*
X22860000Y-81280000D03*
D12*
X25400000Y-81280000D03*
X27940000Y-81280000D03*
G36*
G01*
X110005000Y-87016000D02*
X109705000Y-87016000D01*
G75*
G02*
X109555000Y-86866000I0J150000D01*
G01*
X109555000Y-85516000D01*
G75*
G02*
X109705000Y-85366000I150000J0D01*
G01*
X110005000Y-85366000D01*
G75*
G02*
X110155000Y-85516000I0J-150000D01*
G01*
X110155000Y-86866000D01*
G75*
G02*
X110005000Y-87016000I-150000J0D01*
G01*
G37*
G36*
G01*
X111275000Y-87016000D02*
X110975000Y-87016000D01*
G75*
G02*
X110825000Y-86866000I0J150000D01*
G01*
X110825000Y-85516000D01*
G75*
G02*
X110975000Y-85366000I150000J0D01*
G01*
X111275000Y-85366000D01*
G75*
G02*
X111425000Y-85516000I0J-150000D01*
G01*
X111425000Y-86866000D01*
G75*
G02*
X111275000Y-87016000I-150000J0D01*
G01*
G37*
G36*
G01*
X112545000Y-87016000D02*
X112245000Y-87016000D01*
G75*
G02*
X112095000Y-86866000I0J150000D01*
G01*
X112095000Y-85516000D01*
G75*
G02*
X112245000Y-85366000I150000J0D01*
G01*
X112545000Y-85366000D01*
G75*
G02*
X112695000Y-85516000I0J-150000D01*
G01*
X112695000Y-86866000D01*
G75*
G02*
X112545000Y-87016000I-150000J0D01*
G01*
G37*
G36*
G01*
X113815000Y-87016000D02*
X113515000Y-87016000D01*
G75*
G02*
X113365000Y-86866000I0J150000D01*
G01*
X113365000Y-85516000D01*
G75*
G02*
X113515000Y-85366000I150000J0D01*
G01*
X113815000Y-85366000D01*
G75*
G02*
X113965000Y-85516000I0J-150000D01*
G01*
X113965000Y-86866000D01*
G75*
G02*
X113815000Y-87016000I-150000J0D01*
G01*
G37*
G36*
G01*
X113815000Y-81766000D02*
X113515000Y-81766000D01*
G75*
G02*
X113365000Y-81616000I0J150000D01*
G01*
X113365000Y-80266000D01*
G75*
G02*
X113515000Y-80116000I150000J0D01*
G01*
X113815000Y-80116000D01*
G75*
G02*
X113965000Y-80266000I0J-150000D01*
G01*
X113965000Y-81616000D01*
G75*
G02*
X113815000Y-81766000I-150000J0D01*
G01*
G37*
G36*
G01*
X112545000Y-81766000D02*
X112245000Y-81766000D01*
G75*
G02*
X112095000Y-81616000I0J150000D01*
G01*
X112095000Y-80266000D01*
G75*
G02*
X112245000Y-80116000I150000J0D01*
G01*
X112545000Y-80116000D01*
G75*
G02*
X112695000Y-80266000I0J-150000D01*
G01*
X112695000Y-81616000D01*
G75*
G02*
X112545000Y-81766000I-150000J0D01*
G01*
G37*
G36*
G01*
X111275000Y-81766000D02*
X110975000Y-81766000D01*
G75*
G02*
X110825000Y-81616000I0J150000D01*
G01*
X110825000Y-80266000D01*
G75*
G02*
X110975000Y-80116000I150000J0D01*
G01*
X111275000Y-80116000D01*
G75*
G02*
X111425000Y-80266000I0J-150000D01*
G01*
X111425000Y-81616000D01*
G75*
G02*
X111275000Y-81766000I-150000J0D01*
G01*
G37*
G36*
G01*
X110005000Y-81766000D02*
X109705000Y-81766000D01*
G75*
G02*
X109555000Y-81616000I0J150000D01*
G01*
X109555000Y-80266000D01*
G75*
G02*
X109705000Y-80116000I150000J0D01*
G01*
X110005000Y-80116000D01*
G75*
G02*
X110155000Y-80266000I0J-150000D01*
G01*
X110155000Y-81616000D01*
G75*
G02*
X110005000Y-81766000I-150000J0D01*
G01*
G37*
D10*
X107228000Y-67818000D03*
X109728000Y-67818000D03*
X102616000Y-72390000D03*
X100116000Y-72390000D03*
X109982000Y-64770000D03*
X107482000Y-64770000D03*
X104688000Y-80264000D03*
X107188000Y-80264000D03*
X107188000Y-53086000D03*
X107188000Y-55586000D03*
X95250000Y-67056000D03*
X95250000Y-64556000D03*
X103886000Y-68326000D03*
X101386000Y-68326000D03*
D13*
X104394000Y-64516000D03*
D12*
X101854000Y-64516000D03*
X99314000Y-64516000D03*
X103886000Y-59690000D03*
X103886000Y-57150000D03*
D13*
X103886000Y-54610000D03*
X115062000Y-63500000D03*
X114554000Y-55372000D03*
D12*
X114554000Y-57912000D03*
D10*
X110490000Y-55372000D03*
X110490000Y-60452000D03*
X107188000Y-57912000D03*
X107188000Y-60412000D03*
X97790000Y-75946000D03*
X102870000Y-75946000D03*
D26*
X104988000Y-47752000D03*
X104988000Y-48702000D03*
X104988000Y-49652000D03*
X107188000Y-49652000D03*
X107188000Y-47752000D03*
X107188000Y-48702000D03*
D27*
X114554000Y-71508000D03*
X113919000Y-71508000D03*
X113284000Y-71508000D03*
X112649000Y-71508000D03*
X112014000Y-71508000D03*
X111379000Y-71508000D03*
X110744000Y-71508000D03*
X110109000Y-71508000D03*
X109474000Y-71508000D03*
X108839000Y-71508000D03*
X108204000Y-71508000D03*
X107569000Y-71508000D03*
X107569000Y-76708000D03*
X108204000Y-76708000D03*
X108839000Y-76708000D03*
X109474000Y-76708000D03*
X110109000Y-76708000D03*
X110744000Y-76708000D03*
X111379000Y-76708000D03*
X112014000Y-76708000D03*
X112649000Y-76708000D03*
X113284000Y-76708000D03*
X113919000Y-76708000D03*
X114554000Y-76708000D03*
D25*
X115824000Y-68580000D03*
X113924000Y-68580000D03*
M02*
